<?xml version="1.0" encoding="UTF-8" standalone="no"?>
<svg
   xmlns:dc="http://purl.org/dc/elements/1.1/"
   xmlns:cc="http://creativecommons.org/ns#"
   xmlns:rdf="http://www.w3.org/1999/02/22-rdf-syntax-ns#"
   xmlns:svg="http://www.w3.org/2000/svg"
   xmlns="http://www.w3.org/2000/svg"
   xmlns:sodipodi="http://sodipodi.sourceforge.net/DTD/sodipodi-0.dtd"
   xmlns:inkscape="http://www.inkscape.org/namespaces/inkscape"
   width="309.20096mm"
   height="139.33614mm"
   viewBox="0 0 309.20096 139.33614"
   version="1.1"
   id="svg897"
   inkscape:version="1.0 (4035a4f, 2020-05-01)"
   sodipodi:docname="ePuck.svg">
  <defs
     id="defs891">
    <marker
       inkscape:isstock="true"
       style="overflow:visible"
       id="marker3984"
       refX="0"
       refY="0"
       orient="auto"
       inkscape:stockid="DotM">
      <path
         transform="matrix(0.4,0,0,0.4,2.96,0.4)"
         style="fill:#000000;fill-opacity:1;fill-rule:evenodd;stroke:#000000;stroke-width:1pt;stroke-opacity:1"
         d="m -2.5,-1 c 0,2.76 -2.24,5 -5,5 -2.76,0 -5,-2.24 -5,-5 0,-2.76 2.24,-5 5,-5 2.76,0 5,2.24 5,5 z"
         id="path3982" />
    </marker>
    <marker
       inkscape:stockid="DotM"
       orient="auto"
       refY="0"
       refX="0"
       id="marker1921"
       style="overflow:visible"
       inkscape:isstock="true">
      <path
         id="path1919"
         d="m -2.5,-1 c 0,2.76 -2.24,5 -5,5 -2.76,0 -5,-2.24 -5,-5 0,-2.76 2.24,-5 5,-5 2.76,0 5,2.24 5,5 z"
         style="fill:#000000;fill-opacity:1;fill-rule:evenodd;stroke:#000000;stroke-width:1pt;stroke-opacity:1"
         transform="matrix(0.4,0,0,0.4,2.96,0.4)" />
    </marker>
    <marker
       inkscape:collect="always"
       inkscape:isstock="true"
       style="overflow:visible"
       id="marker1881"
       refX="0"
       refY="0"
       orient="auto"
       inkscape:stockid="DotM">
      <path
         transform="matrix(0.4,0,0,0.4,2.96,0.4)"
         style="fill:#000000;fill-opacity:1;fill-rule:evenodd;stroke:#000000;stroke-width:1pt;stroke-opacity:1"
         d="m -2.5,-1 c 0,2.76 -2.24,5 -5,5 -2.76,0 -5,-2.24 -5,-5 0,-2.76 2.24,-5 5,-5 2.76,0 5,2.24 5,5 z"
         id="path1879" />
    </marker>
    <marker
       inkscape:collect="always"
       inkscape:stockid="DotM"
       orient="auto"
       refY="0"
       refX="0"
       id="marker1847"
       style="overflow:visible"
       inkscape:isstock="true">
      <path
         id="path1845"
         d="m -2.5,-1 c 0,2.76 -2.24,5 -5,5 -2.76,0 -5,-2.24 -5,-5 0,-2.76 2.24,-5 5,-5 2.76,0 5,2.24 5,5 z"
         style="fill:#000000;fill-opacity:1;fill-rule:evenodd;stroke:#000000;stroke-width:1pt;stroke-opacity:1"
         transform="matrix(0.4,0,0,0.4,2.96,0.4)" />
    </marker>
    <marker
       inkscape:collect="always"
       inkscape:isstock="true"
       style="overflow:visible"
       id="DotM"
       refX="0"
       refY="0"
       orient="auto"
       inkscape:stockid="DotM">
      <path
         transform="matrix(0.4,0,0,0.4,2.96,0.4)"
         style="fill:#000000;fill-opacity:1;fill-rule:evenodd;stroke:#000000;stroke-width:1pt;stroke-opacity:1"
         d="m -2.5,-1 c 0,2.76 -2.24,5 -5,5 -2.76,0 -5,-2.24 -5,-5 0,-2.76 2.24,-5 5,-5 2.76,0 5,2.24 5,5 z"
         id="path1599" />
    </marker>
    <marker
       inkscape:isstock="true"
       style="overflow:visible"
       id="Arrow1Lend"
       refX="0"
       refY="0"
       orient="auto"
       inkscape:stockid="Arrow1Lend">
      <path
         transform="matrix(-0.8,0,0,-0.8,-10,0)"
         style="fill:#000000;fill-opacity:1;fill-rule:evenodd;stroke:#000000;stroke-width:1pt;stroke-opacity:1"
         d="M 0,0 5,-5 -12.5,0 5,5 Z"
         id="path1538" />
    </marker>
    <marker
       inkscape:collect="always"
       inkscape:stockid="DotM"
       orient="auto"
       refY="0"
       refX="0"
       id="marker1881-7"
       style="overflow:visible"
       inkscape:isstock="true">
      <path
         id="path1879-4"
         d="m -2.5,-1 c 0,2.76 -2.24,5 -5,5 -2.76,0 -5,-2.24 -5,-5 0,-2.76 2.24,-5 5,-5 2.76,0 5,2.24 5,5 z"
         style="fill:#000000;fill-opacity:1;fill-rule:evenodd;stroke:#000000;stroke-width:1pt;stroke-opacity:1"
         transform="matrix(0.4,0,0,0.4,2.96,0.4)" />
    </marker>
    <marker
       inkscape:collect="always"
       inkscape:isstock="true"
       style="overflow:visible"
       id="marker1881-7-8"
       refX="0"
       refY="0"
       orient="auto"
       inkscape:stockid="DotM">
      <path
         transform="matrix(0.4,0,0,0.4,2.96,0.4)"
         style="fill:#000000;fill-opacity:1;fill-rule:evenodd;stroke:#000000;stroke-width:1pt;stroke-opacity:1"
         d="m -2.5,-1 c 0,2.76 -2.24,5 -5,5 -2.76,0 -5,-2.24 -5,-5 0,-2.76 2.24,-5 5,-5 2.76,0 5,2.24 5,5 z"
         id="path1879-4-1" />
    </marker>
    <marker
       inkscape:stockid="DotM"
       orient="auto"
       refY="0"
       refX="0"
       id="marker1881-7-8-1"
       style="overflow:visible"
       inkscape:isstock="true"
       inkscape:collect="always">
      <path
         id="path1879-4-1-8"
         d="m -2.5,-1 c 0,2.76 -2.24,5 -5,5 -2.76,0 -5,-2.24 -5,-5 0,-2.76 2.24,-5 5,-5 2.76,0 5,2.24 5,5 z"
         style="fill:#000000;fill-opacity:1;fill-rule:evenodd;stroke:#000000;stroke-width:1pt;stroke-opacity:1"
         transform="matrix(0.4,0,0,0.4,2.96,0.4)" />
    </marker>
    <marker
       inkscape:collect="always"
       inkscape:isstock="true"
       style="overflow:visible"
       id="marker1881-7-8-1-5"
       refX="0"
       refY="0"
       orient="auto"
       inkscape:stockid="DotM">
      <path
         transform="matrix(0.4,0,0,0.4,2.96,0.4)"
         style="fill:#000000;fill-opacity:1;fill-rule:evenodd;stroke:#000000;stroke-width:1pt;stroke-opacity:1"
         d="m -2.5,-1 c 0,2.76 -2.24,5 -5,5 -2.76,0 -5,-2.24 -5,-5 0,-2.76 2.24,-5 5,-5 2.76,0 5,2.24 5,5 z"
         id="path1879-4-1-8-2" />
    </marker>
    <marker
       inkscape:stockid="Arrow1Lend"
       orient="auto"
       refY="0"
       refX="0"
       id="Arrow1Lend-7"
       style="overflow:visible"
       inkscape:isstock="true">
      <path
         id="path1538-6"
         d="M 0,0 5,-5 -12.5,0 5,5 Z"
         style="fill:#000000;fill-opacity:1;fill-rule:evenodd;stroke:#000000;stroke-width:1pt;stroke-opacity:1"
         transform="matrix(-0.8,0,0,-0.8,-10,0)" />
    </marker>
  </defs>
  <sodipodi:namedview
     fit-margin-bottom="0"
     fit-margin-right="0"
     fit-margin-left="0"
     fit-margin-top="0"
     inkscape:window-maximized="0"
     inkscape:window-y="86"
     inkscape:window-x="35"
     inkscape:window-height="943"
     inkscape:window-width="1560"
     inkscape:guide-bbox="true"
     showguides="true"
     showgrid="false"
     inkscape:document-rotation="0"
     inkscape:current-layer="layer1"
     inkscape:document-units="mm"
     inkscape:cy="841.99567"
     inkscape:cx="1060.865"
     inkscape:zoom="0.37396347"
     inkscape:pageshadow="2"
     inkscape:pageopacity="0.0"
     borderopacity="1.0"
     bordercolor="#666666"
     pagecolor="#ffffff"
     id="base">
    <sodipodi:guide
       id="guide1515"
       orientation="0,-1"
       position="60.658347,11.574237" />
  </sodipodi:namedview>
  <metadata
     id="metadata894">
    <rdf:RDF>
      <cc:Work
         rdf:about="">
        <dc:format>image/svg+xml</dc:format>
        <dc:type
           rdf:resource="http://purl.org/dc/dcmitype/StillImage" />
        <dc:title></dc:title>
      </cc:Work>
    </rdf:RDF>
  </metadata>
  <g
     transform="translate(-4.7113402,18.546698)"
     id="layer1"
     inkscape:groupmode="layer"
     inkscape:label="Layer 1">
    <circle
       inkscape:export-ydpi="300"
       inkscape:export-xdpi="300"
       r="25.324406"
       cy="51.026787"
       cx="75.217262"
       id="path1462"
       style="fill:none;stroke:#000000;stroke-width:0.181633" />
    <rect
       inkscape:export-ydpi="300"
       inkscape:export-xdpi="300"
       y="34.90733"
       x="58.211849"
       height="30.179745"
       width="2.0920787"
       id="rect1464"
       style="fill:none;stroke:#000000;stroke-width:0.264583;stroke-miterlimit:4;stroke-dasharray:none" />
    <ellipse
       inkscape:export-ydpi="300"
       inkscape:export-xdpi="300"
       ry="1.5943825"
       rx="1.7272478"
       cy="29.761812"
       cx="74.803123"
       id="path1481"
       style="fill:#000000;stroke:#000000;stroke-width:0.181633" />
    <rect
       inkscape:export-ydpi="300"
       inkscape:export-xdpi="300"
       style="fill:none;stroke:#000000;stroke-width:0.264583;stroke-miterlimit:4;stroke-dasharray:none"
       id="rect1464-9"
       width="2.0920787"
       height="30.179745"
       x="90.89669"
       y="35.133179" />
    <path
       inkscape:export-ydpi="300"
       inkscape:export-xdpi="300"
       id="path1498"
       d="M 69.603024,75.992022 V 110.80272"
       style="fill:none;stroke:#000000;stroke-width:0.264583px;stroke-linecap:butt;stroke-linejoin:miter;stroke-opacity:1;marker-end:url(#marker1921)" />
    <path
       inkscape:export-ydpi="300"
       inkscape:export-xdpi="300"
       style="fill:none;stroke:#000000;stroke-width:0.264583px;stroke-linecap:butt;stroke-linejoin:miter;stroke-opacity:1;marker-end:url(#marker1881)"
       d="M 80.600181,76.000402 V 110.8111"
       id="path1498-6" />
    <path
       inkscape:export-ydpi="300"
       inkscape:export-xdpi="300"
       style="fill:none;stroke:#000000;stroke-width:0.264583px;stroke-linecap:butt;stroke-linejoin:miter;stroke-opacity:1;marker-start:url(#marker1847)"
       d="M 69.789375,-8.4294749 V 26.381211"
       id="path1498-3" />
    <path
       inkscape:export-ydpi="300"
       inkscape:export-xdpi="300"
       id="path1498-6-7"
       d="M 80.786533,-8.4210945 V 26.389591"
       style="fill:none;stroke:#000000;stroke-width:0.264583px;stroke-linecap:butt;stroke-linejoin:miter;stroke-opacity:1;marker-start:url(#DotM)" />
    <path
       inkscape:export-ydpi="300"
       inkscape:export-xdpi="300"
       id="path1498-6-6"
       d="m 100.78079,50.823988 34.80989,0.237699"
       style="fill:none;stroke:#000000;stroke-width:0.264583px;stroke-linecap:butt;stroke-linejoin:miter;stroke-opacity:1;marker-end:url(#marker1881-7)" />
    <path
       inkscape:export-ydpi="300"
       inkscape:export-xdpi="300"
       style="fill:none;stroke:#000000;stroke-width:0.264583px;stroke-linecap:butt;stroke-linejoin:miter;stroke-opacity:1;marker-end:url(#marker1881-7-8)"
       d="M 49.822715,50.408834 15.012165,50.307866"
       id="path1498-6-6-1" />
    <path
       inkscape:export-ydpi="300"
       inkscape:export-xdpi="300"
       id="path1498-6-6-1-4"
       d="M 55.5268,35.226483 29.056092,12.619266"
       style="fill:none;stroke:#000000;stroke-width:0.264583px;stroke-linecap:butt;stroke-linejoin:miter;stroke-opacity:1;marker-end:url(#marker1881-7-8-1)" />
    <path
       inkscape:export-ydpi="300"
       inkscape:export-xdpi="300"
       style="fill:none;stroke:#000000;stroke-width:0.264583px;stroke-linecap:butt;stroke-linejoin:miter;stroke-opacity:1;marker-end:url(#marker1881-7-8-1-5)"
       d="M 95.904717,36.672727 122.37555,14.06551"
       id="path1498-6-6-1-4-7" />
    <text
       inkscape:export-ydpi="300"
       inkscape:export-xdpi="300"
       id="text2695"
       y="118.704"
       x="64.24572"
       style="font-style:normal;font-weight:normal;font-size:10.5833px;line-height:1.25;font-family:sans-serif;fill:#000000;fill-opacity:1;stroke:none;stroke-width:0.264583"
       xml:space="preserve"><tspan
         dx="0 0"
         style="font-size:7.76111px;stroke-width:0.264583"
         y="118.704"
         x="64.24572"
         id="tspan2693"
         sodipodi:role="line">d<tspan
   dy="2"
   rotate="0 0"
   id="tspan2809"
   style="font-size:5.64444px;letter-spacing:0px;word-spacing:0px">0</tspan></tspan></text>
    <text
       inkscape:export-ydpi="300"
       inkscape:export-xdpi="300"
       xml:space="preserve"
       style="font-style:normal;font-weight:normal;font-size:10.5833px;line-height:1.25;font-family:sans-serif;fill:#000000;fill-opacity:1;stroke:none;stroke-width:0.264583"
       x="4.3020635"
       y="52.348507"
       id="text2695-8"><tspan
         sodipodi:role="line"
         id="tspan2693-7"
         x="4.3020635"
         y="52.348507"
         style="font-size:7.7611px;stroke-width:0.264583"
         dx="0">d<tspan
   dy="2"
   style="font-size:5.64444px;letter-spacing:0px;word-spacing:0px;stroke-width:0.264583"
   id="tspan2809-8"
   rotate="0 0">1</tspan></tspan></text>
    <text
       inkscape:export-ydpi="300"
       inkscape:export-xdpi="300"
       id="text2695-8-4"
       y="13.449743"
       x="19.108694"
       style="font-style:normal;font-weight:normal;font-size:10.5833px;line-height:1.25;font-family:sans-serif;fill:#000000;fill-opacity:1;stroke:none;stroke-width:0.264583"
       xml:space="preserve"><tspan
         dx="0"
         style="font-size:7.7611px;stroke-width:0.264583"
         y="13.449743"
         x="19.108694"
         id="tspan2693-7-1"
         sodipodi:role="line">d<tspan
   dy="2"
   rotate="0 0"
   id="tspan2809-8-9"
   style="font-size:5.64444px;letter-spacing:0px;word-spacing:0px;stroke-width:0.264583">2</tspan></tspan></text>
    <text
       inkscape:export-ydpi="300"
       inkscape:export-xdpi="300"
       xml:space="preserve"
       style="font-style:normal;font-weight:normal;font-size:10.5833px;line-height:1.25;font-family:sans-serif;fill:#000000;fill-opacity:1;stroke:none;stroke-width:0.264583"
       x="64.281464"
       y="-12.399122"
       id="text2695-8-4-6"><tspan
         sodipodi:role="line"
         id="tspan2693-7-1-3"
         x="64.281464"
         y="-12.399122"
         style="font-size:7.7611px;stroke-width:0.264583"
         dx="0">d<tspan
   dy="2"
   style="font-size:5.64444px;letter-spacing:0px;word-spacing:0px;stroke-width:0.264583"
   id="tspan2809-8-9-5"
   rotate="0 0">3</tspan></tspan></text>
    <text
       inkscape:export-ydpi="300"
       inkscape:export-xdpi="300"
       id="text2695-8-4-6-2"
       y="-12.650082"
       x="76.578499"
       style="font-style:normal;font-weight:normal;font-size:10.5833px;line-height:1.25;font-family:sans-serif;fill:#000000;fill-opacity:1;stroke:none;stroke-width:0.264583"
       xml:space="preserve"><tspan
         dx="0"
         style="font-size:7.7611px;stroke-width:0.264583"
         y="-12.650082"
         x="76.578499"
         id="tspan2693-7-1-3-5"
         sodipodi:role="line">d<tspan
   dy="2"
   rotate="0 0"
   id="tspan2809-8-9-5-1"
   style="font-size:5.64444px;letter-spacing:0px;word-spacing:0px;stroke-width:0.264583">4</tspan></tspan></text>
    <text
       inkscape:export-ydpi="300"
       inkscape:export-xdpi="300"
       xml:space="preserve"
       style="font-style:normal;font-weight:normal;font-size:10.5833px;line-height:1.25;font-family:sans-serif;fill:#000000;fill-opacity:1;stroke:none;stroke-width:0.264583"
       x="124.51183"
       y="13.449742"
       id="text2695-8-4-6-2-7"><tspan
         sodipodi:role="line"
         id="tspan2693-7-1-3-5-4"
         x="124.51183"
         y="13.449742"
         style="font-size:7.7611px;stroke-width:0.264583"
         dx="0">d<tspan
   dy="2"
   style="font-size:5.64444px;letter-spacing:0px;word-spacing:0px;stroke-width:0.264583"
   id="tspan2809-8-9-5-1-9"
   rotate="0 0">5</tspan></tspan></text>
    <text
       inkscape:export-ydpi="300"
       inkscape:export-xdpi="300"
       id="text2695-8-4-6-2-7-6"
       y="53.101398"
       x="137.8127"
       style="font-style:normal;font-weight:normal;font-size:10.5833px;line-height:1.25;font-family:sans-serif;fill:#000000;fill-opacity:1;stroke:none;stroke-width:0.264583"
       xml:space="preserve"><tspan
         dx="0"
         style="font-size:7.7611px;stroke-width:0.264583"
         y="53.101398"
         x="137.8127"
         id="tspan2693-7-1-3-5-4-4"
         sodipodi:role="line">d<tspan
   dy="2"
   rotate="0 0"
   id="tspan2809-8-9-5-1-9-1"
   style="font-size:5.64444px;letter-spacing:0px;word-spacing:0px;stroke-width:0.264583">6</tspan></tspan></text>
    <text
       inkscape:export-ydpi="300"
       inkscape:export-xdpi="300"
       xml:space="preserve"
       style="font-style:normal;font-weight:normal;font-size:10.5833px;line-height:1.25;font-family:sans-serif;fill:#000000;fill-opacity:1;stroke:none;stroke-width:0.264583"
       x="77.080414"
       y="118.35096"
       id="text2695-8-4-6-2-7-6-8"><tspan
         dy="0 2"
         sodipodi:role="line"
         id="tspan2693-7-1-3-5-4-4-8"
         x="77.080414"
         y="118.35096"
         style="font-size:7.7611px;stroke-width:0.264583"
         dx="0">d<tspan
   id="tspan2958"
   style="font-size:5.64444px">7</tspan></tspan></text>
    <g
       inkscape:export-ydpi="300"
       inkscape:export-xdpi="300"
       transform="translate(33.605677,6.5911389)"
       id="g4247">
      <rect
         style="fill:none;stroke:none;stroke-width:0.301613;stroke-miterlimit:4;stroke-dasharray:none"
         id="rect2960"
         width="115.90642"
         height="93.069077"
         x="157.62129"
         y="9.5549879" />
      <path
         id="path3884"
         title="1/(x/1000)"
         d="m 157.62129,9.5550516 c 0.13,0.7263104 0.259,1.4356104 0.388,2.1290104 0.129,0.6935 0.258,1.371 0.388,2.0338 0.129,0.6628 0.258,1.3107 0.387,1.9448 0.129,0.6342 0.259,1.2544 0.388,1.8616 0.129,0.6073 0.258,1.2015 0.388,1.7835 0.129,0.5821 0.258,1.1519 0.387,1.7103 0.129,0.5585 0.259,1.1054 0.388,1.6415 0.129,0.5362 0.258,1.0616 0.387,1.5768 0.13,0.5152 0.259,1.0203 0.388,1.5158 0.129,0.4955 0.259,0.9814 0.388,1.4583 0.129,0.4768 0.258,0.9447 0.387,1.4039 0.13,0.4593 0.259,0.9101 0.388,1.3527 0.129,0.4427 0.258,0.8772 0.388,1.3041 0.129,0.4269 0.258,0.8461 0.387,1.2581 0.13,0.412 0.259,0.8167 0.388,1.2145 0.129,0.3979 0.258,0.7888 0.388,1.1732 0.129,0.3844 0.258,0.7622 0.387,1.1338 0.13,0.3717 0.259,0.737 0.388,1.0965 0.129,0.3595 0.258,0.7131 0.388,1.061 0.129,0.3479 0.258,0.6902 0.387,1.0271 0.129,0.337 0.259,0.6685 0.388,0.9949 0.129,0.3265 0.258,0.6477 0.388,0.9642 0.129,0.3164 0.258,0.6279 0.387,0.9348 0.129,0.3068 0.259,0.609 0.388,0.9067 0.129,0.2978 0.258,0.591 0.387,0.88 0.13,0.289 0.259,0.5738 0.388,0.8544 0.129,0.2807 0.259,0.5572 0.388,0.8299 0.129,0.2726 0.258,0.5414 0.387,0.8064 0.13,0.265 0.259,0.5262 0.388,0.7839 0.129,0.2577 0.258,0.5117 0.388,0.7623 0.129,0.2507 0.258,0.4978 0.387,0.7417 0.13,0.2439 0.259,0.4844 0.388,0.7218 0.129,0.2374 0.258,0.4716 0.388,0.7028 0.129,0.2311 0.258,0.4592 0.387,0.6844 0.129,0.2252 0.259,0.4474 0.388,0.6668 0.129,0.2194 0.258,0.436 0.388,0.6499 0.129,0.2138 0.258,0.425 0.387,0.6335 0.129,0.2086 0.259,0.4145 0.388,0.6179 0.129,0.2034 0.258,0.4043 0.388,0.6027 0.129,0.1985 0.258,0.3945 0.387,0.5882 0.129,0.1937 0.259,0.385 0.388,0.5741 0.129,0.1891 0.258,0.3759 0.387,0.5606 0.13,0.1846 0.259,0.3671 0.388,0.5474 0.129,0.1804 0.259,0.3587 0.388,0.5349 0.129,0.1762 0.258,0.3504 0.387,0.5227 0.13,0.1722 0.259,0.3425 0.388,0.5108 0.129,0.1684 0.258,0.3349 0.388,0.4995 0.129,0.1647 0.258,0.3275 0.387,0.4885 0.13,0.161 0.259,0.3203 0.388,0.4778 0.129,0.1575 0.258,0.3134 0.388,0.4675 0.129,0.1542 0.258,0.3067 0.387,0.4576 0.129,0.1508 0.259,0.3001 0.388,0.4478 0.129,0.1478 0.258,0.2939 0.388,0.4386 0.129,0.1446 0.258,0.2877 0.387,0.4294 0.129,0.1417 0.259,0.2819 0.388,0.4207 0.129,0.1387 0.258,0.2761 0.388,0.4121 0.129,0.136 0.258,0.2706 0.387,0.4039 0.129,0.1332 0.259,0.2652 0.388,0.3958 0.129,0.1307 0.258,0.26 0.387,0.3881 0.13,0.1281 0.259,0.2549 0.388,0.3805 0.129,0.1256 0.259,0.25 0.388,0.3732 0.129,0.1232 0.258,0.2452 0.387,0.366 0.13,0.1209 0.259,0.2406 0.388,0.3591 0.129,0.1186 0.258,0.2361 0.388,0.3524 0.129,0.1164 0.258,0.2316 0.387,0.3459 0.13,0.1142 0.259,0.2273 0.388,0.3394 0.129,0.1122 0.258,0.2233 0.388,0.3333 0.129,0.1101 0.258,0.2192 0.387,0.3273 0.129,0.1081 0.259,0.2152 0.388,0.3214 0.129,0.1062 0.258,0.2114 0.388,0.3157 0.129,0.1043 0.258,0.2077 0.387,0.3102 0.129,0.1025 0.259,0.2041 0.388,0.3048 0.129,0.1007 0.258,0.2005 0.388,0.2994 0.129,0.099 0.258,0.1971 0.387,0.2944 0.129,0.0973 0.259,0.1937 0.388,0.2893 0.129,0.0957 0.258,0.1905 0.387,0.2845 0.13,0.094 0.259,0.1873 0.388,0.2797 0.129,0.0925 0.259,0.1842 0.388,0.2751 0.129,0.091 0.258,0.1811 0.387,0.2706 0.13,0.0894 0.259,0.1782 0.388,0.2662 0.129,0.088 0.258,0.1752 0.388,0.2618 0.129,0.0866 0.258,0.1725 0.387,0.2577 0.13,0.0852 0.259,0.1697 0.388,0.2535 0.129,0.0839 0.258,0.1671 0.388,0.2496 0.129,0.0825 0.258,0.1644 0.387,0.2456 0.129,0.0813 0.259,0.1619 0.388,0.2419 0.129,0.08 0.258,0.1593 0.388,0.2381 0.129,0.0787 0.258,0.1569 0.387,0.2344 0.129,0.0776 0.259,0.1545 0.388,0.2309 0.129,0.0764 0.258,0.1522 0.388,0.2274 0.129,0.0753 0.258,0.15 0.387,0.2241 0.129,0.0741 0.259,0.1476 0.388,0.2207 0.129,0.073 0.258,0.1455 0.387,0.2174 0.13,0.0719 0.259,0.1434 0.388,0.2143 0.129,0.0709 0.259,0.1412 0.388,0.2111 0.129,0.0699 0.258,0.1392 0.387,0.2081 0.13,0.0689 0.259,0.1372 0.388,0.2051 0.129,0.0679 0.258,0.1353 0.388,0.2022 0.129,0.067 0.258,0.1334 0.387,0.1994 0.13,0.066 0.259,0.1315 0.388,0.1966 0.129,0.065 0.258,0.1296 0.388,0.1938 0.129,0.0641 0.258,0.1279 0.387,0.1911 0.129,0.0633 0.259,0.1261 0.388,0.1886 0.129,0.0624 0.258,0.1243 0.388,0.1859 0.129,0.0616 0.258,0.1227 0.387,0.1834 0.129,0.0608 0.259,0.1211 0.388,0.181 0.129,0.0599 0.258,0.1194 0.388,0.1786 0.129,0.0591 0.258,0.1178 0.387,0.1761 0.129,0.0584 0.259,0.1163 0.388,0.1739 0.129,0.0576 0.258,0.1148 0.387,0.1716 0.13,0.0568 0.259,0.1132 0.388,0.1693 0.129,0.0561 0.259,0.1118 0.388,0.1672 0.129,0.0554 0.258,0.1104 0.387,0.165 0.13,0.0547 0.259,0.109 0.388,0.1629 0.129,0.054 0.258,0.1076 0.388,0.1609 0.129,0.0532 0.258,0.1062 0.387,0.1588 0.13,0.0526 0.259,0.1048 0.388,0.1568 0.129,0.0519 0.258,0.1036 0.388,0.1549 0.129,0.0513 0.258,0.1023 0.387,0.1529 0.129,0.0507 0.259,0.1011 0.388,0.1511 0.129,0.0501 0.258,0.0998 0.388,0.1492 0.129,0.0495 0.258,0.0986 0.387,0.1475 0.129,0.0488 0.259,0.0974 0.388,0.1456 0.129,0.0483 0.258,0.0962 0.388,0.1439 0.129,0.0477 0.258,0.0951 0.387,0.1422 0.129,0.0471 0.259,0.0939 0.388,0.1405 0.129,0.0465 0.258,0.0928 0.387,0.1388 0.13,0.046 0.259,0.0918 0.388,0.1372 0.129,0.0455 0.259,0.0907 0.388,0.1356 0.129,0.045 0.258,0.0897 0.387,0.1341 0.13,0.0444 0.259,0.0886 0.388,0.1325 0.129,0.0439 0.258,0.0876 0.388,0.131 0.129,0.0434 0.258,0.0865 0.387,0.1295 0.13,0.0429 0.259,0.0855 0.388,0.128 0.129,0.0424 0.258,0.0846 0.388,0.1266 0.129,0.0419 0.258,0.0836 0.387,0.1251 0.129,0.0415 0.259,0.0828 0.388,0.1238 0.129,0.041 0.258,0.0818 0.388,0.1224 0.129,0.0406 0.258,0.0809 0.387,0.1211 0.129,0.0401 0.259,0.08 0.388,0.1197 0.129,0.0397 0.258,0.0792 0.388,0.1184 0.129,0.0393 0.258,0.0784 0.387,0.1172 0.129,0.0388 0.259,0.0775 0.388,0.1159 0.129,0.0384 0.258,0.0766 0.387,0.1146 0.13,0.038 0.259,0.0758 0.388,0.1134 0.129,0.0377 0.259,0.0751 0.388,0.1123 0.129,0.0372 0.258,0.0742 0.387,0.111 0.13,0.0368 0.259,0.0734 0.388,0.1099 0.129,0.0364 0.258,0.0727 0.388,0.1087 0.129,0.0361 0.258,0.0719 0.387,0.1076 0.13,0.0357 0.259,0.0712 0.388,0.1065 0.129,0.0353 0.258,0.0704 0.388,0.1054 0.129,0.0349 0.258,0.0697 0.387,0.1043 0.129,0.0346 0.259,0.069 0.388,0.1033 0.129,0.0342 0.258,0.0683 0.388,0.1022 0.129,0.0339 0.258,0.0676 0.387,0.1012 0.129,0.0335 0.259,0.0669 0.388,0.1001 0.129,0.0333 0.258,0.0663 0.387,0.0992 0.13,0.0329 0.259,0.0656 0.388,0.0982 0.129,0.0326 0.259,0.065 0.388,0.0972 0.129,0.0323 0.258,0.0643 0.387,0.0963 0.13,0.0319 0.259,0.0637 0.388,0.0953 0.129,0.0316 0.259,0.0631 0.388,0.0944 0.129,0.0313 0.258,0.0625 0.387,0.0935 0.13,0.031 0.259,0.0619 0.388,0.0926 0.129,0.0307 0.258,0.0613 0.388,0.0917 0.129,0.0304 0.258,0.0607 0.387,0.0908 0.13,0.0301 0.259,0.0601 0.388,0.09 0.129,0.0298 0.258,0.0595 0.388,0.0891 0.129,0.0295 0.258,0.059 0.387,0.0882 0.129,0.0293 0.259,0.0585 0.388,0.0875 0.129,0.029 0.258,0.0579 0.388,0.0866 0.129,0.0288 0.258,0.0574 0.387,0.0859 0.129,0.0284 0.259,0.0568 0.388,0.085 0.129,0.0282 0.258,0.0563 0.387,0.0842 0.13,0.028 0.259,0.0558 0.388,0.0835 0.129,0.0277 0.259,0.0553 0.388,0.0828 0.129,0.0274 0.258,0.0547 0.387,0.0819 0.13,0.0272 0.259,0.0543 0.388,0.0813 0.129,0.0269 0.259,0.0538 0.388,0.0805 0.129,0.0267 0.258,0.0533 0.387,0.0798 0.13,0.0264 0.259,0.0528 0.388,0.079 0.129,0.0263 0.258,0.0524 0.388,0.0784 0.129,0.026 0.258,0.0519 0.387,0.0777 0.13,0.0258 0.259,0.0515 0.388,0.077 0.129,0.0256 0.258,0.051 0.388,0.0763 0.129,0.0254 0.258,0.0506 0.387,0.0757 0.129,0.0251 0.259,0.0501 0.388,0.075 0.129,0.0249 0.258,0.0497 0.388,0.0744 0.129,0.0247 0.258,0.0492 0.387,0.0737 0.129,0.0245 0.259,0.0488 0.388,0.0731 0.129,0.0243 0.258,0.0484 0.387,0.0725 0.13,0.024 0.259,0.048 0.388,0.0718 0.129,0.0239 0.259,0.0476 0.388,0.0713 0.129,0.0236 0.258,0.0472 0.387,0.0706 0.13,0.0235 0.259,0.0468 0.388,0.0701 0.129,0.0232 0.259,0.0464 0.388,0.0694 0.129,0.0231 0.258,0.0461 0.387,0.0689 0.13,0.0229 0.259,0.0457 0.388,0.0684 0.129,0.0226 0.258,0.0452 0.388,0.0677 0.129,0.0225 0.258,0.0449 0.387,0.0672 0.13,0.0223 0.259,0.0446 0.388,0.0667 0.129,0.0221 0.258,0.0441 0.388,0.0661 0.129,0.0219 0.258,0.0438 0.387,0.0656 0.129,0.0217 0.259,0.0434 0.388,0.065 0.129,0.0216 0.258,0.0431 0.388,0.0645 0.129,0.0215 0.258,0.0428 0.387,0.0641 0.129,0.0212 0.259,0.0424 0.388,0.0635 0.129,0.021 0.258,0.042 0.387,0.0629 0.13,0.021 0.259,0.0418 0.388,0.0625 0.129,0.0208 0.259,0.0415 0.388,0.062 0.129,0.0206 0.258,0.0411 0.387,0.0616 0.13,0.0204 0.259,0.0407 0.388,0.061 0.129,0.0203 0.259,0.0404 0.388,0.0605 0.129,0.0202 0.258,0.0402 0.387,0.0601 0.13,0.02 0.259,0.0399 0.388,0.0597 0.129,0.0198 0.258,0.0395 0.388,0.0591 0.129,0.0197 0.258,0.0392 0.387,0.0587 0.13,0.0195 0.259,0.039 0.388,0.0583 0.129,0.0193 0.258,0.0386 0.388,0.0578 0.129,0.0192 0.258,0.0383 0.387,0.0574 0.129,0.0191 0.259,0.038 0.388,0.0569 0.129,0.019 0.258,0.0378 0.388,0.0566 l 0.387,0.0561 c 0.129,0.0186 0.259,0.0371 0.388,0.0556 0.129,0.0185 0.258,0.0369 0.387,0.0553 0.13,0.0183 0.259,0.0366 0.388,0.0548 0.129,0.0183 0.259,0.0364 0.388,0.0545 0.129,0.0181 0.258,0.0361 0.387,0.054 0.13,0.018 0.259,0.0359 0.388,0.0537 0.129,0.0178 0.259,0.0355 0.388,0.0532 0.129,0.0177 0.258,0.0353 0.387,0.0529 0.13,0.0176 0.259,0.0351 0.388,0.0525 0.129,0.0174 0.258,0.0348 0.388,0.0521 0.129,0.0173 0.258,0.0345 0.387,0.0517 0.13,0.0172 0.259,0.0343 0.388,0.0514 0.129,0.017 0.258,0.034 0.388,0.051 0.129,0.0169 0.258,0.0338 0.387,0.0506 0.129,0.0168 0.259,0.0336 0.388,0.0503 0.129,0.0167 0.258,0.0333 0.388,0.0499 0.129,0.0166 0.258,0.0331 0.387,0.0496 0.129,0.0164 0.259,0.0328 0.388,0.0492 0.129,0.0163 0.258,0.0326 0.387,0.0488 0.13,0.0163 0.259,0.0324 0.388,0.0486 0.129,0.0161 0.259,0.0321 0.388,0.0482 0.129,0.016 0.258,0.0319 0.387,0.0478 0.13,0.0159 0.259,0.0318 0.388,0.0475 0.129,0.0158 0.259,0.0316 0.388,0.0472 0.129,0.0157 0.258,0.0313 0.387,0.0469 0.13,0.0156 0.259,0.0311 0.388,0.0466 0.129,0.0154 0.258,0.0309 0.388,0.0462 0.129,0.0154 0.258,0.0307 0.387,0.0459 0.13,0.0153 0.259,0.0305 0.388,0.0457 0.129,0.0151 0.258,0.0302 0.388,0.0453 l 0.387,0.045 c 0.129,0.0149 0.259,0.0298 0.388,0.0447 0.129,0.0148 0.258,0.0296 0.388,0.0444 l 0.387,0.0441 c 0.129,0.0146 0.259,0.0292 0.388,0.0438 0.129,0.0145 0.258,0.0291 0.387,0.0435 0.13,0.0145 0.259,0.0289 0.388,0.0433 0.129,0.0143 0.259,0.0286 0.388,0.0429 0.129,0.0143 0.258,0.0285 0.387,0.0427 0.13,0.0142 0.259,0.0283 0.388,0.0424 0.129,0.0141 0.259,0.0281 0.388,0.0421 0.129,0.014 0.258,0.0279 0.387,0.0419 0.13,0.0139 0.259,0.0277 0.388,0.0415 0.129,0.0138 0.258,0.0276 0.388,0.0413 0.129,0.0138 0.258,0.0274 0.387,0.0411 0.13,0.0136 0.259,0.0272 0.388,0.0408 0.129,0.0135 0.258,0.027 0.388,0.0405 0.129,0.0135 0.258,0.0269 0.387,0.0403 0.129,0.0133 0.259,0.0267 0.388,0.04 0.129,0.0133 0.258,0.0265 0.388,0.0397 0.129,0.0132 0.258,0.0264 0.387,0.0395 0.129,0.0132 0.259,0.0262 0.388,0.0393 l 0.387,0.039 0.388,0.0388 c 0.129,0.0129 0.259,0.0257 0.388,0.0385 0.129,0.0128 0.258,0.0256 0.387,0.0383 0.13,0.0127 0.259,0.0254 0.388,0.038 0.129,0.0127 0.258,0.0253 0.388,0.0379 0.129,0.0125 0.258,0.0251 0.387,0.0376 0.13,0.0124 0.259,0.0249 0.388,0.0373 0.129,0.0124 0.258,0.0248 0.388,0.0371 0.129,0.0124 0.258,0.0247 0.387,0.0369 0.13,0.0123 0.259,0.0245 0.388,0.0367 0.129,0.0122 0.258,0.0244 0.388,0.0365 0.129,0.0121 0.258,0.0242 0.387,0.0362 0.129,0.0121 0.259,0.0241 0.388,0.036 0.129,0.012 0.258,0.0239 0.388,0.0358 0.129,0.0119 0.258,0.0238 0.387,0.0356 0.129,0.0119 0.259,0.0237 0.388,0.0354 0.129,0.0118 0.258,0.0235 0.387,0.0352 0.13,0.0117 0.259,0.0233 0.388,0.0349 0.129,0.0117 0.259,0.0232 0.388,0.0348 0.129,0.0115 0.258,0.0231 0.387,0.0345 0.13,0.0115 0.259,0.023 0.388,0.0344 0.129,0.0114 0.258,0.0228 0.388,0.0341"
         style="fill:none;stroke:#000000;stroke-width:0.301613;stroke-miterlimit:4;stroke-dasharray:none"
         sodipodi:nodetypes="cscsscsscsscsccsccsccccccccccsccscssccscssccsccccsccccscccccssccccccsscsscscccccscccccsccscsccsscsccccccccsccscssccccccccccccscccccsccccssccscssccsccccscscccccsccsscscccccsccscscccsccccccsscssccccccccccsccscccccccsccsccscscccsccsssscscccssscccsccccccccscsccsccscscsscscccccsccccssccscscsscccccccccssc" />
      <path
         style="fill:none;stroke:#000000;stroke-width:0.264583;stroke-linecap:butt;stroke-linejoin:miter;stroke-miterlimit:4;stroke-dasharray:none;stroke-opacity:1;marker-end:url(#Arrow1Lend)"
         d="M 151.55249,93.547793 H 279.79298"
         id="path3898" />
      <path
         id="path3898-3"
         d="M 154.96662,97.806145 155.17391,-5.310277"
         style="fill:none;stroke:#000000;stroke-width:0.264583;stroke-linecap:butt;stroke-linejoin:miter;stroke-miterlimit:4;stroke-dasharray:none;stroke-opacity:1;marker-end:url(#Arrow1Lend-7)" />
      <text
         xml:space="preserve"
         style="font-style:normal;font-weight:normal;font-size:10.5833px;line-height:1.25;font-family:sans-serif;fill:#000000;fill-opacity:1;stroke:none;stroke-width:0.264583"
         x="199.96198"
         y="101.30029"
         id="text4207"><tspan
           sodipodi:role="line"
           id="tspan4205"
           x="199.96198"
           y="101.30029"
           style="font-style:italic;font-variant:normal;font-weight:normal;font-stretch:normal;font-size:7.76111px;font-family:sans-serif;-inkscape-font-specification:'sans-serif Italic';stroke-width:0.264583">distance</tspan></text>
      <text
         id="text4207-0"
         y="151.56676"
         x="-64.642128"
         style="font-style:normal;font-weight:normal;font-size:10.5833px;line-height:1.25;font-family:sans-serif;fill:#000000;fill-opacity:1;stroke:none;stroke-width:0.264583"
         xml:space="preserve"
         transform="rotate(-91.62386)"><tspan
           style="font-style:italic;font-variant:normal;font-weight:normal;font-stretch:normal;font-size:7.7611px;font-family:sans-serif;-inkscape-font-specification:'sans-serif Italic';stroke-width:0.264583"
           y="151.56676"
           x="-64.642128"
           id="tspan4205-5"
           sodipodi:role="line">reading</tspan></text>
    </g>
  </g>
</svg>
