<?xml version="1.0" encoding="UTF-8" standalone="no"?>
<svg
   xmlns:dc="http://purl.org/dc/elements/1.1/"
   xmlns:cc="http://creativecommons.org/ns#"
   xmlns:rdf="http://www.w3.org/1999/02/22-rdf-syntax-ns#"
   xmlns:svg="http://www.w3.org/2000/svg"
   xmlns="http://www.w3.org/2000/svg"
   xmlns:sodipodi="http://sodipodi.sourceforge.net/DTD/sodipodi-0.dtd"
   xmlns:inkscape="http://www.inkscape.org/namespaces/inkscape"
   sodipodi:docname="gripper-1-dof.svg"
   inkscape:version="1.0.2 (e86c870879, 2021-01-15, custom)"
   id="svg924"
   version="1.1"
   viewBox="0 0 183.40509 67.155792"
   height="67.155792mm"
   width="183.40509mm">
  <defs
     id="defs918" />
  <sodipodi:namedview
     inkscape:window-maximized="0"
     inkscape:window-y="23"
     inkscape:window-x="0"
     inkscape:window-height="827"
     inkscape:window-width="1440"
     showgrid="false"
     inkscape:document-rotation="0"
     inkscape:current-layer="layer1"
     inkscape:document-units="mm"
     inkscape:cy="363.98313"
     inkscape:cx="318.19264"
     inkscape:zoom="0.69241169"
     inkscape:pageshadow="2"
     inkscape:pageopacity="0.0"
     borderopacity="1.0"
     bordercolor="#666666"
     pagecolor="#ffffff"
     id="base" />
  <metadata
     id="metadata921">
    <rdf:RDF>
      <cc:Work
         rdf:about="">
        <dc:format>image/svg+xml</dc:format>
        <dc:type
           rdf:resource="http://purl.org/dc/dcmitype/StillImage" />
        <dc:title></dc:title>
      </cc:Work>
    </rdf:RDF>
  </metadata>
  <g
     id="layer1"
     inkscape:groupmode="layer"
     inkscape:label="Layer 1"
     transform="translate(-14.17581,-10.76981)">
    <rect
       style="fill:none;stroke:#000000;stroke-width:0.35036;stroke-miterlimit:4;stroke-dasharray:none"
       id="rect1487"
       width="5.5058532"
       height="54.306309"
       x="19.012918"
       y="11.51096"
       ry="2.7153153" />
    <rect
       style="fill:#ffffff;stroke:#000000;stroke-width:0.352777;stroke-miterlimit:4;stroke-dasharray:none"
       id="rect1593"
       width="5.4305682"
       height="41.955517"
       x="51.616886"
       y="-34.956577"
       ry="2.7152841"
       transform="rotate(62.251155)" />
    <ellipse
       style="fill:#ffffff;stroke:#000000;stroke-width:0.176389"
       id="path1491"
       cx="21.934053"
       cy="50.02404"
       rx="0.27384374"
       ry="0.29992411" />
    <path
       id="rect1575"
       style="fill:#ffffff;stroke:#000000;stroke-width:0.352778;stroke-miterlimit:4;stroke-dasharray:none"
       d="m 16.493861,62.976378 h 2.554512 m 5.418663,0 h 2.657726 m 0,0 c 1.18648,0 2.141662,3.294343 2.141662,7.386417 0,4.092074 -0.955182,7.386416 -2.141662,7.386416 H 16.493861 c -1.18648,0 -2.141662,-3.294342 -2.141662,-7.386416 0,-4.092074 0.955182,-7.386417 2.141662,-7.386417"
       inkscape:connector-curvature="0"
       sodipodi:nodetypes="cccccssssc" />
    <path
       style="fill:none;stroke:#000000;stroke-width:0.353636;stroke-miterlimit:4;stroke-dasharray:0.353636, 0.353636;stroke-dashoffset:0"
       id="path1595"
       sodipodi:type="arc"
       sodipodi:cx="22.097322"
       sodipodi:cy="49.859291"
       sodipodi:rx="38.646893"
       sodipodi:ry="38.269581"
       sodipodi:start="4.7017218"
       sodipodi:end="0.5234321"
       sodipodi:open="true"
       sodipodi:arc-type="arc"
       d="m 21.685077,11.591888 a 38.646893,38.269581 0 0 1 33.776272,18.953364 38.646893,38.269581 0 0 1 0.108384,38.443305" />
    <rect
       inkscape:export-ydpi="96"
       inkscape:export-xdpi="96"
       style="fill:none;stroke:#000000;stroke-width:0.35036;stroke-miterlimit:4;stroke-dasharray:none"
       id="rect1607"
       width="5.5058532"
       height="54.306309"
       x="71.643356"
       y="11.51096"
       ry="2.7153153" />
    <rect
       inkscape:export-ydpi="96"
       inkscape:export-xdpi="96"
       style="fill:#ffffff;stroke:#000000;stroke-width:0.352777;stroke-miterlimit:4;stroke-dasharray:none"
       id="rect1609"
       width="5.4305682"
       height="41.955517"
       x="82.357254"
       y="-11.255799"
       ry="2.7152841"
       transform="rotate(15.84434)" />
    <ellipse
       inkscape:export-ydpi="96"
       inkscape:export-xdpi="96"
       style="fill:#ffffff;stroke:#000000;stroke-width:0.176389"
       id="ellipse1611"
       cx="74.564491"
       cy="50.02404"
       rx="0.27384374"
       ry="0.29992411" />
    <path
       inkscape:export-ydpi="96"
       inkscape:export-xdpi="96"
       id="path1613"
       style="fill:#ffffff;stroke:#000000;stroke-width:0.352778;stroke-miterlimit:4;stroke-dasharray:none"
       d="m 69.124297,62.976378 h 2.554512 m 5.418663,0 h 2.657725 m 0,0 c 1.18648,0 2.141662,3.294343 2.141662,7.386417 0,4.092074 -0.955182,7.386416 -2.141662,7.386416 h -10.6309 c -1.18648,0 -2.141662,-3.294342 -2.141662,-7.386416 0,-4.092074 0.955182,-7.386417 2.141662,-7.386417"
       inkscape:connector-curvature="0"
       sodipodi:nodetypes="cccccssssc" />
    <ellipse
       inkscape:export-ydpi="96"
       inkscape:export-xdpi="96"
       ry="1.9808903"
       rx="1.8865621"
       cy="15.40299"
       cx="79.134491"
       id="path1643"
       style="fill:none;stroke:#000000;stroke-width:0.353637;stroke-miterlimit:4;stroke-dasharray:none;stroke-dashoffset:0" />
    <rect
       inkscape:export-ydpi="96"
       inkscape:export-xdpi="96"
       ry="2.7153153"
       y="10.94499"
       x="159.87053"
       height="54.306309"
       width="5.5058532"
       id="rect1625"
       style="fill:none;stroke:#000000;stroke-width:0.35036;stroke-miterlimit:4;stroke-dasharray:none" />
    <rect
       inkscape:export-ydpi="96"
       inkscape:export-xdpi="96"
       transform="rotate(62.251155)"
       ry="2.7152841"
       y="-159.87865"
       x="116.69884"
       height="41.955517"
       width="5.4305682"
       id="rect1627"
       style="fill:#ffffff;stroke:#000000;stroke-width:0.352777;stroke-miterlimit:4;stroke-dasharray:none" />
    <ellipse
       inkscape:export-ydpi="96"
       inkscape:export-xdpi="96"
       ry="0.29992411"
       rx="0.27384374"
       cy="49.458073"
       cx="162.79167"
       id="ellipse1629"
       style="fill:#ffffff;stroke:#000000;stroke-width:0.176389" />
    <path
       inkscape:export-ydpi="96"
       inkscape:export-xdpi="96"
       sodipodi:nodetypes="cccccssssc"
       inkscape:connector-curvature="0"
       d="m 157.35148,62.410409 h 2.55451 m 5.41867,0 h 2.65772 m 0,0 c 1.18648,0 2.14166,3.294343 2.14166,7.386417 0,4.092074 -0.95518,7.386416 -2.14166,7.386416 h -10.6309 c -1.18648,0 -2.14166,-3.294342 -2.14166,-7.386416 0,-4.092074 0.95518,-7.386417 2.14166,-7.386417"
       style="fill:#ffffff;stroke:#000000;stroke-width:0.352778;stroke-miterlimit:4;stroke-dasharray:none"
       id="path1631" />
    <path
       inkscape:export-ydpi="96"
       inkscape:export-xdpi="96"
       inkscape:connector-curvature="0"
       id="path1653"
       d="m 168.6536,33.231001 c -0.006,1.383724 2.80627,3.487881 2.80627,4.150437 0,1.485789 -0.32211,0.513458 -1.3096,1.50925 -0.0882,0.08893 0.24945,0 0.37418,0 1.29819,0 1.6605,-0.809697 2.61917,-1.131938 1.86721,-0.627634 2.71743,1.742694 3.92877,1.131938 1.45476,-0.733494 1.45929,-3.471291 3.18043,-4.339093 4.29373,-2.164908 6.76426,0.430313 7.29628,-5.47103 0.0979,-1.085469 0.34735,-3.55768 -0.18709,-4.527749 -0.56784,-1.03071 -1.41019,-1.285258 -2.245,-1.886563 -4.52115,-3.256528 -2.03525,1.607388 -4.86419,1.131937 -3.19893,-0.537636 -0.83774,-3.485962 -2.05793,-4.716405 -0.28954,-0.291984 -2.05483,-0.188656 -2.43209,-0.188656 -3.16337,0 -4.03361,-0.06015 -5.05128,3.0185 -0.2487,0.752375 -3.15119,0.507008 -3.74167,1.697905 -0.52446,1.057707 -2.9541,3.887243 -0.56126,5.093719 0.54352,0.274047 1.32916,0.416782 1.68375,1.131935 0.4675,0.942859 0.28758,2.291874 0.56126,3.395813 z"
       style="fill:none;stroke:#000000;stroke-width:0.263478px;stroke-linecap:butt;stroke-linejoin:miter;stroke-opacity:1" />
    <rect
       inkscape:export-ydpi="96"
       inkscape:export-xdpi="96"
       ry="2.7153153"
       y="11.510962"
       x="115.24619"
       height="54.306309"
       width="5.5058532"
       id="rect1683"
       style="fill:none;stroke:#000000;stroke-width:0.35036;stroke-miterlimit:4;stroke-dasharray:none" />
    <rect
       inkscape:export-ydpi="96"
       inkscape:export-xdpi="96"
       transform="rotate(55.713377)"
       ry="2.7152841"
       y="-108.56126"
       x="104.8801"
       height="41.955517"
       width="5.4305682"
       id="rect1685"
       style="fill:#ffffff;stroke:#000000;stroke-width:0.352777;stroke-miterlimit:4;stroke-dasharray:none" />
    <ellipse
       inkscape:export-ydpi="96"
       inkscape:export-xdpi="96"
       ry="0.29992411"
       rx="0.27384374"
       cy="50.024036"
       cx="118.16727"
       id="ellipse1687"
       style="fill:#ffffff;stroke:#000000;stroke-width:0.176389" />
    <path
       inkscape:export-ydpi="96"
       inkscape:export-xdpi="96"
       sodipodi:nodetypes="cccccssssc"
       inkscape:connector-curvature="0"
       d="m 112.7272,62.976375 h 2.55452 m 5.4187,0 h 2.65772 m 0,0 c 1.18648,0 2.14166,3.294343 2.14166,7.386417 0,4.092074 -0.95518,7.386416 -2.14166,7.386416 H 112.7272 c -1.18649,0 -2.14168,-3.294342 -2.14168,-7.386416 0,-4.092074 0.95519,-7.386417 2.14168,-7.386417"
       style="fill:#ffffff;stroke:#000000;stroke-width:0.352778;stroke-miterlimit:4;stroke-dasharray:none"
       id="path1689" />
    <ellipse
       inkscape:export-ydpi="96"
       inkscape:export-xdpi="96"
       style="fill:none;stroke:#000000;stroke-width:0.353637;stroke-miterlimit:4;stroke-dasharray:none;stroke-dashoffset:0"
       id="ellipse1697"
       cx="122.54858"
       cy="40.682915"
       rx="1.8865621"
       ry="1.9808903" />
  </g>
</svg>
