<?xml version="1.0" encoding="UTF-8" standalone="no"?>
<svg
   xmlns:dc="http://purl.org/dc/elements/1.1/"
   xmlns:cc="http://creativecommons.org/ns#"
   xmlns:rdf="http://www.w3.org/1999/02/22-rdf-syntax-ns#"
   xmlns:svg="http://www.w3.org/2000/svg"
   xmlns="http://www.w3.org/2000/svg"
   xmlns:sodipodi="http://sodipodi.sourceforge.net/DTD/sodipodi-0.dtd"
   xmlns:inkscape="http://www.inkscape.org/namespaces/inkscape"
   width="210mm"
   height="297mm"
   viewBox="0 0 210 297"
   version="1.1"
   id="svg1731"
   inkscape:version="1.0beta2 (2b71d25, 2019-12-03)"
   sodipodi:docname="gripper-2-dof.svg">
  <defs
     id="defs1725">
    <marker
       inkscape:isstock="true"
       style="overflow:visible;"
       id="marker2994"
       refX="0.0"
       refY="0.0"
       orient="auto"
       inkscape:stockid="Arrow1Lend">
      <path
         transform="scale(0.8) rotate(180) translate(12.5,0)"
         style="fill-rule:evenodd;stroke:#000000;stroke-width:1pt;stroke-opacity:1;fill:#000000;fill-opacity:1"
         d="M 0.0,0.0 L 5.0,-5.0 L -12.5,0.0 L 5.0,5.0 L 0.0,0.0 z "
         id="path2992" />
    </marker>
    <marker
       inkscape:collect="always"
       inkscape:stockid="Arrow1Lend"
       orient="auto"
       refY="0.0"
       refX="0.0"
       id="marker2782"
       style="overflow:visible;"
       inkscape:isstock="true">
      <path
         id="path2780"
         d="M 0.0,0.0 L 5.0,-5.0 L -12.5,0.0 L 5.0,5.0 L 0.0,0.0 z "
         style="fill-rule:evenodd;stroke:#000000;stroke-width:1pt;stroke-opacity:1;fill:#000000;fill-opacity:1"
         transform="scale(0.8) rotate(180) translate(12.5,0)" />
    </marker>
    <marker
       inkscape:stockid="Arrow1Lend"
       orient="auto"
       refY="0.0"
       refX="0.0"
       id="marker2606"
       style="overflow:visible;"
       inkscape:isstock="true">
      <path
         id="path2604"
         d="M 0.0,0.0 L 5.0,-5.0 L -12.5,0.0 L 5.0,5.0 L 0.0,0.0 z "
         style="fill-rule:evenodd;stroke:#000000;stroke-width:1pt;stroke-opacity:1;fill:#000000;fill-opacity:1"
         transform="scale(0.8) rotate(180) translate(12.5,0)" />
    </marker>
    <marker
       inkscape:collect="always"
       inkscape:isstock="true"
       style="overflow:visible;"
       id="Arrow1Lend"
       refX="0.0"
       refY="0.0"
       orient="auto"
       inkscape:stockid="Arrow1Lend">
      <path
         transform="scale(0.8) rotate(180) translate(12.5,0)"
         style="fill-rule:evenodd;stroke:#000000;stroke-width:1pt;stroke-opacity:1;fill:#000000;fill-opacity:1"
         d="M 0.0,0.0 L 5.0,-5.0 L -12.5,0.0 L 5.0,5.0 L 0.0,0.0 z "
         id="path2308" />
    </marker>
    <marker
       inkscape:isstock="true"
       style="overflow:visible"
       id="Arrow1Lstart"
       refX="0.0"
       refY="0.0"
       orient="auto"
       inkscape:stockid="Arrow1Lstart">
      <path
         transform="scale(0.8) translate(12.5,0)"
         style="fill-rule:evenodd;stroke:#000000;stroke-width:1pt;stroke-opacity:1;fill:#000000;fill-opacity:1"
         d="M 0.0,0.0 L 5.0,-5.0 L -12.5,0.0 L 5.0,5.0 L 0.0,0.0 z "
         id="path2305" />
    </marker>
  </defs>
  <sodipodi:namedview
     inkscape:window-maximized="0"
     inkscape:window-y="23"
     inkscape:window-x="15"
     inkscape:window-height="827"
     inkscape:window-width="1440"
     inkscape:guide-bbox="true"
     showguides="true"
     showgrid="false"
     inkscape:document-rotation="0"
     inkscape:current-layer="layer1"
     inkscape:document-units="mm"
     inkscape:cy="275.18349"
     inkscape:cx="421.77613"
     inkscape:zoom="0.5"
     inkscape:pageshadow="2"
     inkscape:pageopacity="0.0"
     borderopacity="1.0"
     bordercolor="#666666"
     pagecolor="#ffffff"
     id="base">
    <sodipodi:guide
       id="guide968"
       orientation="1,0"
       position="99.573487,230.27194" />
    <sodipodi:guide
       id="guide894"
       orientation="0,-1"
       position="97.008738,231.96783" />
    <sodipodi:guide
       id="guide922"
       orientation="0,-1"
       position="25.707018,265.13024" />
  </sodipodi:namedview>
  <metadata
     id="metadata1728">
    <rdf:RDF>
      <cc:Work
         rdf:about="">
        <dc:format>image/svg+xml</dc:format>
        <dc:type
           rdf:resource="http://purl.org/dc/dcmitype/StillImage" />
        <dc:title></dc:title>
      </cc:Work>
    </rdf:RDF>
  </metadata>
  <g
     id="layer1"
     inkscape:groupmode="layer"
     inkscape:label="Layer 1">
    <rect
       inkscape:export-ydpi="96"
       inkscape:export-xdpi="96"
       inkscape:export-filename="/Users/correll/Desktop/book/Introduction-to-Autonomous-Robots/figs/gripper-2-dof.png"
       ry="2.7152863"
       y="34.725975"
       x="15.378646"
       height="18.355158"
       width="59.034157"
       id="rect2294"
       style="fill:none;stroke:#000000;stroke-width:0.353637" />
    <path
       inkscape:export-ydpi="96"
       inkscape:export-xdpi="96"
       inkscape:export-filename="/Users/correll/Desktop/book/Introduction-to-Autonomous-Robots/figs/gripper-2-dof.png"
       sodipodi:nodetypes="cssssc"
       inkscape:connector-curvature="0"
       d="M 25.168027,34.59036 V 5.6917984 c 0,-1.5042685 1.211017,-2.7152862 2.715286,-2.7152862 h 2.010708 c 1.504268,0 2.715286,1.2110177 2.715286,2.7152862 V 34.59036"
       style="fill:none;stroke:#000000;stroke-width:0.353637"
       id="rect2296" />
    <path
       inkscape:export-ydpi="96"
       inkscape:export-xdpi="96"
       inkscape:export-filename="/Users/correll/Desktop/book/Introduction-to-Autonomous-Robots/figs/gripper-2-dof.png"
       id="path2299"
       style="fill:none;stroke:#000000;stroke-width:0.353637"
       d="M 56.918047,34.59036 V 5.6917984 c 0,-1.5042685 1.211017,-2.7152862 2.715286,-2.7152862 h 2.010708 c 1.504268,0 2.715286,1.2110177 2.715286,2.7152862 V 34.59036"
       inkscape:connector-curvature="0"
       sodipodi:nodetypes="cssssc" />
    <path
       inkscape:export-ydpi="96"
       inkscape:export-xdpi="96"
       inkscape:export-filename="/Users/correll/Desktop/book/Introduction-to-Autonomous-Robots/figs/gripper-2-dof.png"
       inkscape:connector-curvature="0"
       id="path2303"
       d="M 23.162564,17.68085 H 15.564182"
       style="fill:none;stroke:#000000;stroke-width:0.265;stroke-linecap:butt;stroke-linejoin:miter;stroke-miterlimit:4;stroke-dasharray:none;stroke-opacity:1;marker-end:url(#Arrow1Lend)" />
    <path
       inkscape:export-ydpi="96"
       inkscape:export-xdpi="96"
       inkscape:export-filename="/Users/correll/Desktop/book/Introduction-to-Autonomous-Robots/figs/gripper-2-dof.png"
       style="fill:none;stroke:#000000;stroke-width:0.265;stroke-linecap:butt;stroke-linejoin:miter;stroke-miterlimit:4;stroke-dasharray:none;stroke-opacity:1;marker-end:url(#marker2606)"
       d="M 54.902448,17.625526 H 47.304066"
       id="path2602"
       inkscape:connector-curvature="0" />
    <path
       inkscape:export-ydpi="96"
       inkscape:export-xdpi="96"
       inkscape:export-filename="/Users/correll/Desktop/book/Introduction-to-Autonomous-Robots/figs/gripper-2-dof.png"
       style="fill:none;stroke:#000000;stroke-width:0.265;stroke-linecap:butt;stroke-linejoin:miter;stroke-miterlimit:4;stroke-dasharray:none;stroke-opacity:1;marker-end:url(#marker2782)"
       d="m 34.137394,17.680841 h 7.598382"
       id="path2778"
       inkscape:connector-curvature="0" />
    <path
       inkscape:export-ydpi="96"
       inkscape:export-xdpi="96"
       inkscape:export-filename="/Users/correll/Desktop/book/Introduction-to-Autonomous-Robots/figs/gripper-2-dof.png"
       inkscape:connector-curvature="0"
       id="path2990"
       d="m 65.585033,17.680841 h 7.598382"
       style="fill:none;stroke:#000000;stroke-width:0.265;stroke-linecap:butt;stroke-linejoin:miter;stroke-miterlimit:4;stroke-dasharray:none;stroke-opacity:1;marker-end:url(#marker2994)" />
    <g
       inkscape:export-ydpi="96"
       inkscape:export-xdpi="96"
       inkscape:export-filename="/Users/correll/Desktop/book/Introduction-to-Autonomous-Robots/figs/gripper-2-dof.png"
       transform="translate(-55.200847,-29.599949)"
       id="g916">
      <g
         id="g891"
         transform="matrix(0.31104721,0,0,0.31104721,92.934967,74.15622)"
         inkscape:label="Rendered Gears">
        <path
           id="path887"
           d="m 19.31199,-1.50427 0.41337,-0.0322 1.28797,0.21442 1.71785,0.71589 v 1.21232 l -1.71785,0.71589 -1.28797,0.21442 -0.41337,-0.0322 -0.23263,1.84141 0.4084,0.07162 1.19417,0.52799 1.48586,1.12061 -0.30149,1.17423 -1.84193,0.26618 -1.30082,-0.11261 -0.39238,-0.13399 -0.68326,1.72571 0.37775,0.17092 1.02536,0.80839 1.16048,1.45492 -0.58403,1.06236 -1.85025,-0.20025 -1.23196,-0.43258 -0.34673,-0.22736 -1.09095,1.50158 0.32337,0.2595 0.79211,1.03798 0.7622,1.69782 -0.82988,0.88373 -1.74233,-0.65409 -1.08567,-0.72536 -0.27929,-0.30645 -1.43011,1.18309 0.24868,0.33177 0.50908,1.20236 0.31603,1.83403 -1.02359,0.64959 -1.52492,-1.06684 -0.87117,-0.97258 -0.19431,-0.36627 -1.6794,0.79026 0.15836,0.3832 0.19408,1.29119 -0.15001,1.855 L 6.44783,21.80595 5.23613,20.3934 4.6342,19.23473 4.53708,18.83164 2.71391,19.17942 2.772,19.58996 2.63888,20.88885 2.03226,22.64827 0.82234,22.72439 0,21.05487 l -0.29487,-1.27196 0.00618,-0.41458 -1.85239,-0.11654 -0.04583,0.41208 -0.45197,1.22498 -1.0251,1.55328 -1.19084,-0.22716 -0.38131,-1.82157 0.03071,-1.30534 0.10909,-0.40002 -1.76521,-0.57355 -0.14687,0.38775 -0.74241,1.07409 -1.37918,1.24955 -1.09693,-0.51618 0.08367,-1.85917 0.35437,-1.25669 0.20514,-0.36032 -1.56711,-0.99452 -0.23869,0.33903 -0.98619,0.85572 -1.64661,0.86731 -0.9341,-0.77276 0.5434,-1.77996 0.65576,-1.12907 0.28831,-0.29799 -1.27056,-1.353 -0.3155,0.26903 -1.16802,0.58357 -1.81056,0.43056 -0.71258,-0.98078 0.96898,-1.5889 0.91595,-0.93052 0.35336,-0.21692 -0.89416,-1.62647 -0.37249,0.18211 -1.27646,0.27477 -1.86076,-0.03323 -0.44628,-1.12718 1.33369,-1.29801 1.11858,-0.6735 0.3962,-0.12223 -0.46158,-1.79774 -0.40608,0.08376 -1.30468,-0.05131 -1.79404,-0.49494 -0.15194,-1.20275 1.61458,-0.92555 1.25094,-0.37416 0.41415,-0.01987 v -1.85604 l -0.41415,-0.01987 -1.25094,-0.37416 -1.61458,-0.92555 0.15194,-1.20275 1.79404,-0.49494 1.30468,-0.05131 0.40608,0.08376 0.46158,-1.79774 -0.3962,-0.12223 -1.11858,-0.6735 -1.33369,-1.29801 0.44628,-1.12718 1.86076,-0.03323 1.27646,0.27477 0.37249,0.18211 0.89416,-1.62647 -0.35336,-0.21692 -0.91595,-0.93052 -0.96898,-1.5889 0.71258,-0.98078 1.81056,0.43056 1.16802,0.58357 0.3155,0.26903 1.27056,-1.353 -0.28831,-0.29799 -0.65576,-1.12907 -0.5434,-1.77996 0.9341,-0.77276 1.64661,0.86731 0.98619,0.85572 0.23869,0.33903 1.56711,-0.99452 -0.20514,-0.36032 -0.35437,-1.25669 -0.08367,-1.85917 1.09693,-0.51618 1.37918,1.24955 0.74241,1.07409 0.14687,0.38775 1.76521,-0.57355 -0.10909,-0.40002 -0.03071,-1.30534 0.38131,-1.82157 1.19084,-0.22716 1.0251,1.55328 0.45197,1.22498 0.04583,0.41208 1.85239,-0.11654 -0.00618,-0.41458 L 0,-21.05487 l 0.82234,-1.66952 1.20992,0.07612 0.60662,1.75942 0.13312,1.29889 -0.05809,0.41054 1.82317,0.34778 0.09712,-0.40309 0.60193,-1.15867 1.2117,-1.41255 1.15298,0.37462 0.15001,1.855 -0.19408,1.29119 -0.15836,0.3832 1.6794,0.79026 0.19431,-0.36627 0.87117,-0.97258 1.52492,-1.06684 1.02359,0.64959 -0.31603,1.83403 -0.50908,1.20236 -0.24868,0.33177 1.43011,1.18309 0.27929,-0.30645 1.08567,-0.72536 1.74233,-0.65409 0.82988,0.88373 -0.7622,1.69782 -0.79211,1.03798 -0.32337,0.2595 1.09095,1.50158 0.34673,-0.22736 1.23196,-0.43258 1.85025,-0.20025 0.58403,1.06236 -1.16048,1.45492 -1.02536,0.80839 -0.37775,0.17092 0.68326,1.72571 0.39238,-0.13399 1.30082,-0.11261 1.84193,0.26618 0.30149,1.17423 -1.48586,1.12061 -1.19417,0.52799 -0.4084,0.07162 z"
           style="fill:none;stroke:#000000;stroke-width:0.264583"
           inkscape:connector-curvature="0" />
        <circle
           id="path889"
           style="fill:none;stroke:#000000;stroke-width:0.264583"
           cx="0"
           cy="0"
           r="2.6458333" />
      </g>
      <g
         inkscape:label="Rendered Gears"
         transform="matrix(0.31104721,0,0,0.31104721,106.26053,74.130186)"
         id="g966">
        <path
           inkscape:connector-curvature="0"
           style="fill:none;stroke:#000000;stroke-width:0.264583"
           d="m 19.31199,-1.50427 0.41337,-0.0322 1.28797,0.21442 1.71785,0.71589 v 1.21232 l -1.71785,0.71589 -1.28797,0.21442 -0.41337,-0.0322 -0.23263,1.84141 0.4084,0.07162 1.19417,0.52799 1.48586,1.12061 -0.30149,1.17423 -1.84193,0.26618 -1.30082,-0.11261 -0.39238,-0.13399 -0.68326,1.72571 0.37775,0.17092 1.02536,0.80839 1.16048,1.45492 -0.58403,1.06236 -1.85025,-0.20025 -1.23196,-0.43258 -0.34673,-0.22736 -1.09095,1.50158 0.32337,0.2595 0.79211,1.03798 0.7622,1.69782 -0.82988,0.88373 -1.74233,-0.65409 -1.08567,-0.72536 -0.27929,-0.30645 -1.43011,1.18309 0.24868,0.33177 0.50908,1.20236 0.31603,1.83403 -1.02359,0.64959 -1.52492,-1.06684 -0.87117,-0.97258 -0.19431,-0.36627 -1.6794,0.79026 0.15836,0.3832 0.19408,1.29119 -0.15001,1.855 L 6.44783,21.80595 5.23613,20.3934 4.6342,19.23473 4.53708,18.83164 2.71391,19.17942 2.772,19.58996 2.63888,20.88885 2.03226,22.64827 0.82234,22.72439 0,21.05487 l -0.29487,-1.27196 0.00618,-0.41458 -1.85239,-0.11654 -0.04583,0.41208 -0.45197,1.22498 -1.0251,1.55328 -1.19084,-0.22716 -0.38131,-1.82157 0.03071,-1.30534 0.10909,-0.40002 -1.76521,-0.57355 -0.14687,0.38775 -0.74241,1.07409 -1.37918,1.24955 -1.09693,-0.51618 0.08367,-1.85917 0.35437,-1.25669 0.20514,-0.36032 -1.56711,-0.99452 -0.23869,0.33903 -0.98619,0.85572 -1.64661,0.86731 -0.9341,-0.77276 0.5434,-1.77996 0.65576,-1.12907 0.28831,-0.29799 -1.27056,-1.353 -0.3155,0.26903 -1.16802,0.58357 -1.81056,0.43056 -0.71258,-0.98078 0.96898,-1.5889 0.91595,-0.93052 0.35336,-0.21692 -0.89416,-1.62647 -0.37249,0.18211 -1.27646,0.27477 -1.86076,-0.03323 -0.44628,-1.12718 1.33369,-1.29801 1.11858,-0.6735 0.3962,-0.12223 -0.46158,-1.79774 -0.40608,0.08376 -1.30468,-0.05131 -1.79404,-0.49494 -0.15194,-1.20275 1.61458,-0.92555 1.25094,-0.37416 0.41415,-0.01987 v -1.85604 l -0.41415,-0.01987 -1.25094,-0.37416 -1.61458,-0.92555 0.15194,-1.20275 1.79404,-0.49494 1.30468,-0.05131 0.40608,0.08376 0.46158,-1.79774 -0.3962,-0.12223 -1.11858,-0.6735 -1.33369,-1.29801 0.44628,-1.12718 1.86076,-0.03323 1.27646,0.27477 0.37249,0.18211 0.89416,-1.62647 -0.35336,-0.21692 -0.91595,-0.93052 -0.96898,-1.5889 0.71258,-0.98078 1.81056,0.43056 1.16802,0.58357 0.3155,0.26903 1.27056,-1.353 -0.28831,-0.29799 -0.65576,-1.12907 -0.5434,-1.77996 0.9341,-0.77276 1.64661,0.86731 0.98619,0.85572 0.23869,0.33903 1.56711,-0.99452 -0.20514,-0.36032 -0.35437,-1.25669 -0.08367,-1.85917 1.09693,-0.51618 1.37918,1.24955 0.74241,1.07409 0.14687,0.38775 1.76521,-0.57355 -0.10909,-0.40002 -0.03071,-1.30534 0.38131,-1.82157 1.19084,-0.22716 1.0251,1.55328 0.45197,1.22498 0.04583,0.41208 1.85239,-0.11654 -0.00618,-0.41458 L 0,-21.05487 l 0.82234,-1.66952 1.20992,0.07612 0.60662,1.75942 0.13312,1.29889 -0.05809,0.41054 1.82317,0.34778 0.09712,-0.40309 0.60193,-1.15867 1.2117,-1.41255 1.15298,0.37462 0.15001,1.855 -0.19408,1.29119 -0.15836,0.3832 1.6794,0.79026 0.19431,-0.36627 0.87117,-0.97258 1.52492,-1.06684 1.02359,0.64959 -0.31603,1.83403 -0.50908,1.20236 -0.24868,0.33177 1.43011,1.18309 0.27929,-0.30645 1.08567,-0.72536 1.74233,-0.65409 0.82988,0.88373 -0.7622,1.69782 -0.79211,1.03798 -0.32337,0.2595 1.09095,1.50158 0.34673,-0.22736 1.23196,-0.43258 1.85025,-0.20025 0.58403,1.06236 -1.16048,1.45492 -1.02536,0.80839 -0.37775,0.17092 0.68326,1.72571 0.39238,-0.13399 1.30082,-0.11261 1.84193,0.26618 0.30149,1.17423 -1.48586,1.12061 -1.19417,0.52799 -0.4084,0.07162 z"
           id="path962" />
        <circle
           r="2.6458333"
           cy="0"
           cx="0"
           style="fill:none;stroke:#000000;stroke-width:0.264583"
           id="circle964" />
      </g>
      <g
         id="g877"
         transform="translate(-11.58793,0.57699217)">
        <g
           inkscape:label="Rendered Gear Rack"
           transform="matrix(-0.32186187,0,0,-0.32186187,112.33114,67.490065)"
           id="g956">
          <path
             sodipodi:nodetypes="ccccccccccccccccccccccccccccccccccccccccccc"
             inkscape:connector-curvature="0"
             style="fill:none;stroke:#000000;stroke-width:0.264583"
             d="m 11.546,2.646 h 1.683 L 14.192,0 h 1.683 l 0.963,2.646 h 1.683 L 19.484,0 h 1.683 l 0.963,2.646 h 1.682 L 24.776,0 h 1.682 l 0.963,2.646 h 1.683 L 30.067,0 h 1.683 l 0.963,2.646 h 1.683 L 35.359,0 h 1.683 l 0.963,2.646 h 1.683 L 40.651,0 h 1.682 l 0.963,2.646 h 1.683 L 45.942,0 h 1.683 l 0.963,2.646 h 1.683 L 51.234,0 h 1.683 l 0.963,2.646 h 1.682 L 56.526,0 h 1.682 l 0.963,2.646 h 1.683 L 61.817,0 H 63.5 l 0.963,2.646 h 1.683 L 67.109,0"
             id="path954" />
        </g>
        <path
           inkscape:connector-curvature="0"
           id="path970"
           d="M 90.73131,67.490064 V 64.432483"
           style="fill:none;stroke:#000000;stroke-width:0.105833;stroke-linecap:butt;stroke-linejoin:miter;stroke-miterlimit:4;stroke-dasharray:none;stroke-opacity:1" />
        <path
           sodipodi:nodetypes="cccc"
           style="fill:none;stroke:#000000;stroke-width:0.105833;stroke-linecap:butt;stroke-linejoin:miter;stroke-miterlimit:4;stroke-dasharray:none;stroke-opacity:1"
           d="m 92.495796,60.892726 4.712326,-9.589444 h 2.365365 v 13.1519"
           id="path866"
           inkscape:connector-curvature="0" />
        <path
           sodipodi:nodetypes="cc"
           inkscape:connector-curvature="0"
           id="path867"
           d="m 108.61492,66.638418 -0.0182,-2.183236"
           style="fill:none;stroke:#000000;stroke-width:0.105833;stroke-linecap:butt;stroke-linejoin:miter;stroke-miterlimit:4;stroke-dasharray:none;stroke-opacity:1" />
        <path
           inkscape:connector-curvature="0"
           id="path869"
           d="m 99.573486,64.455182 h 9.023184"
           style="fill:none;stroke:#000000;stroke-width:0.105833;stroke-linecap:butt;stroke-linejoin:miter;stroke-miterlimit:4;stroke-dasharray:none;stroke-opacity:1" />
      </g>
      <g
         transform="matrix(-1,0,0,1,211.67283,0.56929751)"
         id="g892">
        <g
           id="g881"
           transform="matrix(-0.32186187,0,0,-0.32186187,112.33114,67.490065)"
           inkscape:label="Rendered Gear Rack">
          <path
             id="path879"
             d="m 11.546,2.646 h 1.683 L 14.192,0 h 1.683 l 0.963,2.646 h 1.683 L 19.484,0 h 1.683 l 0.963,2.646 h 1.682 L 24.776,0 h 1.682 l 0.963,2.646 h 1.683 L 30.067,0 h 1.683 l 0.963,2.646 h 1.683 L 35.359,0 h 1.683 l 0.963,2.646 h 1.683 L 40.651,0 h 1.682 l 0.963,2.646 h 1.683 L 45.942,0 h 1.683 l 0.963,2.646 h 1.683 L 51.234,0 h 1.683 l 0.963,2.646 h 1.682 L 56.526,0 h 1.682 l 0.963,2.646 h 1.683 L 61.817,0 H 63.5 l 0.963,2.646 h 1.683 L 67.109,0"
             style="fill:none;stroke:#000000;stroke-width:0.264583"
             inkscape:connector-curvature="0"
             sodipodi:nodetypes="ccccccccccccccccccccccccccccccccccccccccccc" />
        </g>
        <path
           style="fill:none;stroke:#000000;stroke-width:0.105833;stroke-linecap:butt;stroke-linejoin:miter;stroke-miterlimit:4;stroke-dasharray:none;stroke-opacity:1"
           d="M 90.73131,67.490064 V 64.432483"
           id="path883"
           inkscape:connector-curvature="0" />
        <path
           sodipodi:nodetypes="cccc"
           inkscape:connector-curvature="0"
           id="path885"
           d="m 92.488124,60.900412 4.719998,-9.59713 h 2.365365 v 13.1519"
           style="fill:none;stroke:#000000;stroke-width:0.105833;stroke-linecap:butt;stroke-linejoin:miter;stroke-miterlimit:4;stroke-dasharray:none;stroke-opacity:1" />
        <path
           style="fill:none;stroke:#000000;stroke-width:0.105833;stroke-linecap:butt;stroke-linejoin:miter;stroke-miterlimit:4;stroke-dasharray:none;stroke-opacity:1"
           d="m 108.61492,66.638418 -0.0182,-2.183236"
           id="path888"
           inkscape:connector-curvature="0"
           sodipodi:nodetypes="cc" />
        <path
           style="fill:none;stroke:#000000;stroke-width:0.105833;stroke-linecap:butt;stroke-linejoin:miter;stroke-miterlimit:4;stroke-dasharray:none;stroke-opacity:1"
           d="m 99.573486,64.455182 h 9.023184"
           id="path890"
           inkscape:connector-curvature="0" />
      </g>
    </g>
    <path
       inkscape:export-ydpi="96"
       inkscape:export-xdpi="96"
       inkscape:export-filename="/Users/correll/Desktop/book/Introduction-to-Autonomous-Robots/figs/gripper-2-dof.png"
       inkscape:connector-curvature="0"
       id="path918"
       d="m 25.707019,31.869769 v 2.805549"
       style="fill:none;stroke:#000000;stroke-width:0.10583333;stroke-linecap:butt;stroke-linejoin:miter;stroke-opacity:1;stroke-miterlimit:4;stroke-dasharray:none" />
    <path
       inkscape:export-ydpi="96"
       inkscape:export-xdpi="96"
       inkscape:export-filename="/Users/correll/Desktop/book/Introduction-to-Autonomous-Robots/figs/gripper-2-dof.png"
       inkscape:connector-curvature="0"
       id="path920"
       d="m 23.942533,35.409526 1.764486,-0.734208"
       style="fill:none;stroke:#000000;stroke-width:0.10583333;stroke-linecap:butt;stroke-linejoin:miter;stroke-opacity:1;stroke-miterlimit:4;stroke-dasharray:none" />
    <path
       inkscape:export-ydpi="96"
       inkscape:export-xdpi="96"
       inkscape:export-filename="/Users/correll/Desktop/book/Introduction-to-Autonomous-Robots/figs/gripper-2-dof.png"
       inkscape:connector-curvature="0"
       id="path924"
       d="m 63.983859,31.869761 v 2.790502"
       style="fill:none;stroke:#000000;stroke-width:0.10583333;stroke-linecap:butt;stroke-linejoin:miter;stroke-opacity:1;stroke-miterlimit:4;stroke-dasharray:none" />
    <path
       inkscape:export-ydpi="96"
       inkscape:export-xdpi="96"
       inkscape:export-filename="/Users/correll/Desktop/book/Introduction-to-Autonomous-Robots/figs/gripper-2-dof.png"
       inkscape:connector-curvature="0"
       id="path926"
       d="M 65.740673,35.401832 63.983859,34.660263"
       style="fill:none;stroke:#000000;stroke-width:0.10583333;stroke-linecap:butt;stroke-linejoin:miter;stroke-opacity:1;stroke-miterlimit:4;stroke-dasharray:none" />
  </g>
</svg>
