<?xml version="1.0" encoding="UTF-8" standalone="no"?>
<svg
   xmlns:dc="http://purl.org/dc/elements/1.1/"
   xmlns:cc="http://creativecommons.org/ns#"
   xmlns:rdf="http://www.w3.org/1999/02/22-rdf-syntax-ns#"
   xmlns:svg="http://www.w3.org/2000/svg"
   xmlns="http://www.w3.org/2000/svg"
   xmlns:xlink="http://www.w3.org/1999/xlink"
   xmlns:sodipodi="http://sodipodi.sourceforge.net/DTD/sodipodi-0.dtd"
   xmlns:inkscape="http://www.inkscape.org/namespaces/inkscape"
   width="72.460701mm"
   height="52.824017mm"
   viewBox="0 0 72.460701 52.824017"
   version="1.1"
   id="svg1049"
   inkscape:version="1.0.1 (3bc2e813f5, 2020-09-07)"
   sodipodi:docname="linearlyseparable.svg">
  <defs
     id="defs1043">
    <marker
       inkscape:collect="always"
       inkscape:isstock="true"
       style="overflow:visible"
       id="Arrow1Lend"
       refX="0"
       refY="0"
       orient="auto"
       inkscape:stockid="Arrow1Lend">
      <path
         inkscape:connector-curvature="0"
         transform="matrix(-0.8,0,0,-0.8,-10,0)"
         style="fill:#000000;fill-opacity:1;fill-rule:evenodd;stroke:#000000;stroke-width:1pt;stroke-opacity:1"
         d="M 0,0 5,-5 -12.5,0 5,5 Z"
         id="path2362" />
    </marker>
    <marker
       inkscape:stockid="Arrow1Lend"
       orient="auto"
       refY="0"
       refX="0"
       id="marker20695"
       style="overflow:visible"
       inkscape:isstock="true">
      <path
         inkscape:connector-curvature="0"
         id="path20693"
         d="M 0,0 5,-5 -12.5,0 5,5 Z"
         style="fill:#000000;fill-opacity:1;fill-rule:evenodd;stroke:#000000;stroke-width:1pt;stroke-opacity:1"
         transform="matrix(-0.8,0,0,-0.8,-10,0)" />
    </marker>
    <g
       id="g5364">
      <symbol
         overflow="visible"
         id="symbol9779">
        <path
           style="stroke:none;"
           d=""
           id="path3031" />
      </symbol>
      <symbol
         overflow="visible"
         id="symbol1145">
        <path
           style="stroke:none;"
           d="M 2.640625 -3.71875 L 3.765625 -3.71875 C 3.4375 -2.25 3.34375 -1.8125 3.34375 -1.140625 C 3.34375 -1 3.34375 -0.734375 3.421875 -0.390625 C 3.53125 0.046875 3.640625 0.109375 3.78125 0.109375 C 3.984375 0.109375 4.203125 -0.0625 4.203125 -0.265625 C 4.203125 -0.328125 4.203125 -0.34375 4.140625 -0.484375 C 3.84375 -1.203125 3.84375 -1.859375 3.84375 -2.140625 C 3.84375 -2.65625 3.921875 -3.203125 4.03125 -3.71875 L 5.15625 -3.71875 C 5.296875 -3.71875 5.65625 -3.71875 5.65625 -4.0625 C 5.65625 -4.296875 5.4375 -4.296875 5.25 -4.296875 L 1.90625 -4.296875 C 1.6875 -4.296875 1.3125 -4.296875 0.875 -3.828125 C 0.53125 -3.4375 0.265625 -2.984375 0.265625 -2.9375 C 0.265625 -2.921875 0.265625 -2.828125 0.390625 -2.828125 C 0.46875 -2.828125 0.484375 -2.875 0.546875 -2.953125 C 1.03125 -3.71875 1.609375 -3.71875 1.8125 -3.71875 L 2.375 -3.71875 C 2.0625 -2.515625 1.53125 -1.3125 1.109375 -0.40625 C 1.03125 -0.25 1.03125 -0.234375 1.03125 -0.15625 C 1.03125 0.03125 1.1875 0.109375 1.3125 0.109375 C 1.609375 0.109375 1.6875 -0.171875 1.8125 -0.53125 C 1.953125 -1 1.953125 -1.015625 2.078125 -1.515625 Z M 2.640625 -3.71875 "
           id="path5171" />
      </symbol>
      <symbol
         overflow="visible"
         id="symbol7794">
        <path
           style="stroke:none;"
           d="M 2.859375 -6.8125 C 2.859375 -6.8125 2.859375 -6.921875 2.734375 -6.921875 C 2.5 -6.921875 1.78125 -6.84375 1.515625 -6.8125 C 1.4375 -6.8125 1.328125 -6.796875 1.328125 -6.625 C 1.328125 -6.5 1.421875 -6.5 1.5625 -6.5 C 2.046875 -6.5 2.0625 -6.4375 2.0625 -6.328125 L 2.03125 -6.125 L 0.59375 -0.390625 C 0.546875 -0.25 0.546875 -0.234375 0.546875 -0.171875 C 0.546875 0.0625 0.75 0.109375 0.84375 0.109375 C 0.96875 0.109375 1.109375 0.015625 1.171875 -0.09375 C 1.21875 -0.1875 1.671875 -2.03125 1.734375 -2.28125 C 2.078125 -2.25 2.890625 -2.09375 2.890625 -1.4375 C 2.890625 -1.359375 2.890625 -1.328125 2.859375 -1.21875 C 2.84375 -1.109375 2.828125 -0.984375 2.828125 -0.875 C 2.828125 -0.296875 3.21875 0.109375 3.734375 0.109375 C 4.03125 0.109375 4.3125 -0.046875 4.53125 -0.421875 C 4.78125 -0.859375 4.890625 -1.40625 4.890625 -1.421875 C 4.890625 -1.53125 4.796875 -1.53125 4.765625 -1.53125 C 4.671875 -1.53125 4.65625 -1.484375 4.625 -1.34375 C 4.421875 -0.625 4.203125 -0.109375 3.765625 -0.109375 C 3.5625 -0.109375 3.4375 -0.21875 3.4375 -0.578125 C 3.4375 -0.75 3.484375 -0.984375 3.515625 -1.140625 C 3.5625 -1.3125 3.5625 -1.34375 3.5625 -1.453125 C 3.5625 -2.09375 2.9375 -2.375 2.078125 -2.5 C 2.390625 -2.671875 2.71875 -2.984375 2.9375 -3.234375 C 3.421875 -3.765625 3.875 -4.1875 4.359375 -4.1875 C 4.421875 -4.1875 4.4375 -4.1875 4.453125 -4.171875 C 4.578125 -4.15625 4.578125 -4.15625 4.671875 -4.09375 C 4.6875 -4.09375 4.6875 -4.078125 4.703125 -4.0625 C 4.234375 -4.03125 4.140625 -3.640625 4.140625 -3.515625 C 4.140625 -3.359375 4.25 -3.171875 4.515625 -3.171875 C 4.78125 -3.171875 5.0625 -3.390625 5.0625 -3.78125 C 5.0625 -4.078125 4.828125 -4.40625 4.390625 -4.40625 C 4.109375 -4.40625 3.65625 -4.328125 2.9375 -3.53125 C 2.59375 -3.15625 2.203125 -2.75 1.828125 -2.609375 Z M 2.859375 -6.8125 "
           id="path548" />
      </symbol>
      <symbol
         overflow="visible"
         id="symbol4305">
        <path
           style="stroke:none;"
           d=""
           id="path5228" />
      </symbol>
      <symbol
         overflow="visible"
         id="symbol1243">
        <path
           style="stroke:none;"
           d="M 3.515625 -1.265625 L 3.28125 -1.265625 C 3.265625 -1.109375 3.1875 -0.703125 3.09375 -0.640625 C 3.046875 -0.59375 2.515625 -0.59375 2.40625 -0.59375 L 1.125 -0.59375 C 1.859375 -1.234375 2.109375 -1.4375 2.515625 -1.765625 C 3.03125 -2.171875 3.515625 -2.609375 3.515625 -3.265625 C 3.515625 -4.109375 2.78125 -4.625 1.890625 -4.625 C 1.03125 -4.625 0.4375 -4.015625 0.4375 -3.375 C 0.4375 -3.03125 0.734375 -2.984375 0.8125 -2.984375 C 0.96875 -2.984375 1.171875 -3.109375 1.171875 -3.359375 C 1.171875 -3.484375 1.125 -3.734375 0.765625 -3.734375 C 0.984375 -4.21875 1.453125 -4.375 1.78125 -4.375 C 2.484375 -4.375 2.84375 -3.828125 2.84375 -3.265625 C 2.84375 -2.65625 2.40625 -2.1875 2.1875 -1.9375 L 0.515625 -0.265625 C 0.4375 -0.203125 0.4375 -0.1875 0.4375 0 L 3.3125 0 Z M 3.515625 -1.265625 "
           id="path6102" />
      </symbol>
      <symbol
         overflow="visible"
         id="symbol4241">
        <path
           style="stroke:none;"
           d="M 5.359375 -2.34375 C 5.453125 -2.34375 5.609375 -2.34375 5.609375 -2.515625 C 5.609375 -2.6875 5.453125 -2.6875 5.359375 -2.6875 L 0.75 -2.6875 C 0.65625 -2.6875 0.484375 -2.6875 0.484375 -2.515625 C 0.484375 -2.34375 0.640625 -2.34375 0.75 -2.34375 Z M 5.359375 -0.8125 C 5.453125 -0.8125 5.609375 -0.8125 5.609375 -0.96875 C 5.609375 -1.15625 5.453125 -1.15625 5.359375 -1.15625 L 0.75 -1.15625 C 0.640625 -1.15625 0.484375 -1.15625 0.484375 -0.96875 C 0.484375 -0.8125 0.65625 -0.8125 0.75 -0.8125 Z M 5.359375 -0.8125 "
           id="path1883" />
      </symbol>
      <symbol
         overflow="visible"
         id="symbol256">
        <path
           style="stroke:none;"
           d="M 2.328125 -4.4375 C 2.328125 -4.625 2.328125 -4.625 2.125 -4.625 C 1.671875 -4.1875 1.046875 -4.1875 0.765625 -4.1875 L 0.765625 -3.9375 C 0.921875 -3.9375 1.390625 -3.9375 1.765625 -4.125 L 1.765625 -0.578125 C 1.765625 -0.34375 1.765625 -0.25 1.078125 -0.25 L 0.8125 -0.25 L 0.8125 0 C 0.9375 0 1.796875 -0.03125 2.046875 -0.03125 C 2.265625 -0.03125 3.140625 0 3.296875 0 L 3.296875 -0.25 L 3.03125 -0.25 C 2.328125 -0.25 2.328125 -0.34375 2.328125 -0.578125 Z M 2.328125 -4.4375 "
           id="path7587" />
      </symbol>
      <symbol
         overflow="visible"
         id="symbol5389">
        <path
           style="stroke:none;"
           d=""
           id="path145" />
      </symbol>
      <symbol
         overflow="visible"
         id="symbol2734">
        <path
           style="stroke:none;"
           d="M 1.3125 -3.265625 L 1.3125 -3.515625 C 1.3125 -6.03125 2.546875 -6.390625 3.0625 -6.390625 C 3.296875 -6.390625 3.71875 -6.328125 3.9375 -5.984375 C 3.78125 -5.984375 3.390625 -5.984375 3.390625 -5.546875 C 3.390625 -5.234375 3.625 -5.078125 3.84375 -5.078125 C 4 -5.078125 4.3125 -5.171875 4.3125 -5.5625 C 4.3125 -6.15625 3.875 -6.640625 3.046875 -6.640625 C 1.765625 -6.640625 0.421875 -5.359375 0.421875 -3.15625 C 0.421875 -0.484375 1.578125 0.21875 2.5 0.21875 C 3.609375 0.21875 4.5625 -0.71875 4.5625 -2.03125 C 4.5625 -3.296875 3.671875 -4.25 2.5625 -4.25 C 1.890625 -4.25 1.515625 -3.75 1.3125 -3.265625 Z M 2.5 -0.0625 C 1.875 -0.0625 1.578125 -0.65625 1.515625 -0.8125 C 1.328125 -1.28125 1.328125 -2.078125 1.328125 -2.25 C 1.328125 -3.03125 1.65625 -4.03125 2.546875 -4.03125 C 2.71875 -4.03125 3.171875 -4.03125 3.484375 -3.40625 C 3.65625 -3.046875 3.65625 -2.53125 3.65625 -2.046875 C 3.65625 -1.5625 3.65625 -1.0625 3.484375 -0.703125 C 3.1875 -0.109375 2.734375 -0.0625 2.5 -0.0625 Z M 2.5 -0.0625 "
           id="path8298" />
      </symbol>
      <symbol
         overflow="visible"
         id="symbol7072">
        <path
           style="stroke:none;"
           d="M 6.84375 -3.265625 C 7 -3.265625 7.1875 -3.265625 7.1875 -3.453125 C 7.1875 -3.65625 7 -3.65625 6.859375 -3.65625 L 0.890625 -3.65625 C 0.75 -3.65625 0.5625 -3.65625 0.5625 -3.453125 C 0.5625 -3.265625 0.75 -3.265625 0.890625 -3.265625 Z M 6.859375 -1.328125 C 7 -1.328125 7.1875 -1.328125 7.1875 -1.53125 C 7.1875 -1.71875 7 -1.71875 6.84375 -1.71875 L 0.890625 -1.71875 C 0.75 -1.71875 0.5625 -1.71875 0.5625 -1.53125 C 0.5625 -1.328125 0.75 -1.328125 0.890625 -1.328125 Z M 6.859375 -1.328125 "
           id="path5005" />
      </symbol>
      <symbol
         overflow="visible"
         id="symbol9035">
        <path
           style="stroke:none;"
           d="M 1.765625 -6.921875 L 0.328125 -6.8125 L 0.328125 -6.5 C 1.03125 -6.5 1.109375 -6.4375 1.109375 -5.9375 L 1.109375 -0.75 C 1.109375 -0.3125 1 -0.3125 0.328125 -0.3125 L 0.328125 0 C 0.65625 -0.015625 1.1875 -0.03125 1.4375 -0.03125 C 1.6875 -0.03125 2.171875 -0.015625 2.546875 0 L 2.546875 -0.3125 C 1.875 -0.3125 1.765625 -0.3125 1.765625 -0.75 Z M 1.765625 -6.921875 "
           id="path2776" />
      </symbol>
      <symbol
         overflow="visible"
         id="symbol9630">
        <path
           style="stroke:none;"
           d="M 1.765625 -4.40625 L 0.375 -4.296875 L 0.375 -3.984375 C 1.015625 -3.984375 1.109375 -3.921875 1.109375 -3.4375 L 1.109375 -0.75 C 1.109375 -0.3125 1 -0.3125 0.328125 -0.3125 L 0.328125 0 C 0.640625 -0.015625 1.1875 -0.03125 1.421875 -0.03125 C 1.78125 -0.03125 2.125 -0.015625 2.46875 0 L 2.46875 -0.3125 C 1.796875 -0.3125 1.765625 -0.359375 1.765625 -0.75 Z M 1.796875 -6.140625 C 1.796875 -6.453125 1.5625 -6.671875 1.28125 -6.671875 C 0.96875 -6.671875 0.75 -6.40625 0.75 -6.140625 C 0.75 -5.875 0.96875 -5.609375 1.28125 -5.609375 C 1.5625 -5.609375 1.796875 -5.828125 1.796875 -6.140625 Z M 1.796875 -6.140625 "
           id="path9910" />
      </symbol>
      <symbol
         overflow="visible"
         id="symbol3696">
        <path
           style="stroke:none;"
           d="M 1.09375 -3.421875 L 1.09375 -0.75 C 1.09375 -0.3125 0.984375 -0.3125 0.3125 -0.3125 L 0.3125 0 C 0.671875 -0.015625 1.171875 -0.03125 1.453125 -0.03125 C 1.703125 -0.03125 2.21875 -0.015625 2.5625 0 L 2.5625 -0.3125 C 1.890625 -0.3125 1.78125 -0.3125 1.78125 -0.75 L 1.78125 -2.59375 C 1.78125 -3.625 2.5 -4.1875 3.125 -4.1875 C 3.765625 -4.1875 3.875 -3.65625 3.875 -3.078125 L 3.875 -0.75 C 3.875 -0.3125 3.765625 -0.3125 3.09375 -0.3125 L 3.09375 0 C 3.4375 -0.015625 3.953125 -0.03125 4.21875 -0.03125 C 4.46875 -0.03125 5 -0.015625 5.328125 0 L 5.328125 -0.3125 C 4.671875 -0.3125 4.5625 -0.3125 4.5625 -0.75 L 4.5625 -2.59375 C 4.5625 -3.625 5.265625 -4.1875 5.90625 -4.1875 C 6.53125 -4.1875 6.640625 -3.65625 6.640625 -3.078125 L 6.640625 -0.75 C 6.640625 -0.3125 6.53125 -0.3125 5.859375 -0.3125 L 5.859375 0 C 6.203125 -0.015625 6.71875 -0.03125 6.984375 -0.03125 C 7.25 -0.03125 7.765625 -0.015625 8.109375 0 L 8.109375 -0.3125 C 7.59375 -0.3125 7.34375 -0.3125 7.328125 -0.609375 L 7.328125 -2.515625 C 7.328125 -3.375 7.328125 -3.671875 7.015625 -4.03125 C 6.875 -4.203125 6.546875 -4.40625 5.96875 -4.40625 C 5.140625 -4.40625 4.6875 -3.8125 4.53125 -3.421875 C 4.390625 -4.296875 3.65625 -4.40625 3.203125 -4.40625 C 2.46875 -4.40625 2 -3.984375 1.71875 -3.359375 L 1.71875 -4.40625 L 0.3125 -4.296875 L 0.3125 -3.984375 C 1.015625 -3.984375 1.09375 -3.921875 1.09375 -3.421875 Z M 1.09375 -3.421875 "
           id="path1780" />
      </symbol>
      <symbol
         overflow="visible"
         id="symbol2544">
        <path
           style="stroke:none;"
           d="M 2.9375 -6.375 C 2.9375 -6.625 2.9375 -6.640625 2.703125 -6.640625 C 2.078125 -6 1.203125 -6 0.890625 -6 L 0.890625 -5.6875 C 1.09375 -5.6875 1.671875 -5.6875 2.1875 -5.953125 L 2.1875 -0.78125 C 2.1875 -0.421875 2.15625 -0.3125 1.265625 -0.3125 L 0.953125 -0.3125 L 0.953125 0 C 1.296875 -0.03125 2.15625 -0.03125 2.5625 -0.03125 C 2.953125 -0.03125 3.828125 -0.03125 4.171875 0 L 4.171875 -0.3125 L 3.859375 -0.3125 C 2.953125 -0.3125 2.9375 -0.421875 2.9375 -0.78125 Z M 2.9375 -6.375 "
           id="path4452" />
      </symbol>
      <symbol
         overflow="visible"
         id="symbol9447">
        <path
           style="stroke:none;"
           d=""
           id="path5015" />
      </symbol>
      <symbol
         overflow="visible"
         id="symbol8035">
        <path
           style="stroke:none;"
           d="M 0.84375 -0.4375 C 0.828125 -0.34375 0.78125 -0.171875 0.78125 -0.15625 C 0.78125 0 0.90625 0.0625 1.015625 0.0625 C 1.140625 0.0625 1.25 -0.015625 1.296875 -0.078125 C 1.328125 -0.140625 1.375 -0.375 1.421875 -0.515625 C 1.453125 -0.640625 1.53125 -0.96875 1.5625 -1.140625 C 1.609375 -1.296875 1.65625 -1.453125 1.6875 -1.609375 C 1.765625 -1.890625 1.78125 -1.953125 1.984375 -2.234375 C 2.171875 -2.515625 2.5 -2.875 3.03125 -2.875 C 3.421875 -2.875 3.4375 -2.515625 3.4375 -2.390625 C 3.4375 -1.96875 3.140625 -1.203125 3.03125 -0.90625 C 2.953125 -0.703125 2.921875 -0.640625 2.921875 -0.53125 C 2.921875 -0.15625 3.21875 0.0625 3.578125 0.0625 C 4.28125 0.0625 4.578125 -0.890625 4.578125 -1 C 4.578125 -1.09375 4.5 -1.09375 4.46875 -1.09375 C 4.375 -1.09375 4.375 -1.046875 4.34375 -0.96875 C 4.1875 -0.40625 3.875 -0.125 3.609375 -0.125 C 3.453125 -0.125 3.421875 -0.21875 3.421875 -0.375 C 3.421875 -0.53125 3.46875 -0.625 3.59375 -0.9375 C 3.671875 -1.15625 3.953125 -1.890625 3.953125 -2.28125 C 3.953125 -2.953125 3.421875 -3.078125 3.046875 -3.078125 C 2.46875 -3.078125 2.078125 -2.71875 1.875 -2.4375 C 1.828125 -2.921875 1.421875 -3.078125 1.125 -3.078125 C 0.828125 -3.078125 0.671875 -2.859375 0.578125 -2.703125 C 0.421875 -2.4375 0.328125 -2.046875 0.328125 -2 C 0.328125 -1.921875 0.421875 -1.921875 0.453125 -1.921875 C 0.546875 -1.921875 0.546875 -1.9375 0.59375 -2.125 C 0.703125 -2.53125 0.84375 -2.875 1.109375 -2.875 C 1.296875 -2.875 1.34375 -2.71875 1.34375 -2.53125 C 1.34375 -2.40625 1.28125 -2.140625 1.21875 -1.953125 C 1.171875 -1.765625 1.109375 -1.484375 1.078125 -1.328125 Z M 0.84375 -0.4375 "
           id="path9942" />
      </symbol>
      <symbol
         overflow="visible"
         id="symbol5893">
        <path
           style="stroke:none;"
           d="M 2.1875 -4.625 C 2.1875 -4.640625 2.203125 -4.734375 2.203125 -4.734375 C 2.203125 -4.78125 2.1875 -4.84375 2.09375 -4.84375 C 1.953125 -4.84375 1.375 -4.78125 1.203125 -4.765625 C 1.15625 -4.765625 1.046875 -4.75 1.046875 -4.609375 C 1.046875 -4.515625 1.15625 -4.515625 1.234375 -4.515625 C 1.5625 -4.515625 1.5625 -4.453125 1.5625 -4.40625 C 1.5625 -4.359375 1.546875 -4.3125 1.546875 -4.25 L 0.5625 -0.3125 C 0.515625 -0.1875 0.515625 -0.171875 0.515625 -0.15625 C 0.515625 -0.046875 0.609375 0.0625 0.765625 0.0625 C 0.953125 0.0625 1.03125 -0.0625 1.078125 -0.21875 C 1.09375 -0.25 1.390625 -1.484375 1.421875 -1.578125 C 1.921875 -1.53125 2.3125 -1.359375 2.3125 -1 C 2.3125 -0.96875 2.3125 -0.9375 2.296875 -0.859375 C 2.265625 -0.765625 2.265625 -0.71875 2.265625 -0.640625 C 2.265625 -0.15625 2.671875 0.0625 3.015625 0.0625 C 3.6875 0.0625 3.890625 -0.984375 3.890625 -1 C 3.890625 -1.09375 3.8125 -1.09375 3.78125 -1.09375 C 3.6875 -1.09375 3.671875 -1.046875 3.640625 -0.921875 C 3.5625 -0.625 3.375 -0.125 3.03125 -0.125 C 2.84375 -0.125 2.78125 -0.296875 2.78125 -0.484375 C 2.78125 -0.609375 2.78125 -0.625 2.828125 -0.796875 C 2.84375 -0.828125 2.859375 -0.9375 2.859375 -1.015625 C 2.859375 -1.640625 2.03125 -1.734375 1.734375 -1.75 C 1.9375 -1.875 2.1875 -2.109375 2.3125 -2.21875 C 2.671875 -2.546875 3.015625 -2.875 3.40625 -2.875 C 3.484375 -2.875 3.578125 -2.859375 3.640625 -2.78125 C 3.34375 -2.734375 3.28125 -2.5 3.28125 -2.390625 C 3.28125 -2.25 3.390625 -2.140625 3.546875 -2.140625 C 3.75 -2.140625 3.953125 -2.296875 3.953125 -2.578125 C 3.953125 -2.8125 3.78125 -3.078125 3.421875 -3.078125 C 3.015625 -3.078125 2.65625 -2.78125 2.296875 -2.453125 C 2 -2.1875 1.78125 -1.96875 1.484375 -1.84375 Z M 2.1875 -4.625 "
           id="path4582" />
      </symbol>
      <symbol
         overflow="visible"
         id="symbol4390">
        <path
           style="stroke:none;"
           d=""
           id="path8175" />
      </symbol>
      <symbol
         overflow="visible"
         id="symbol3376">
        <path
           style="stroke:none;"
           d="M 6.40625 -1.578125 C 5.53125 -0.9375 5.421875 -0.015625 5.421875 -0.015625 C 5.421875 0.09375 5.484375 0.09375 5.578125 0.09375 C 5.703125 0.09375 5.734375 0.09375 5.765625 -0.03125 C 5.8125 -0.203125 5.921875 -0.640625 6.28125 -1.03125 C 6.6875 -1.453125 7.03125 -1.5625 7.328125 -1.65625 C 7.359375 -1.671875 7.390625 -1.703125 7.390625 -1.734375 C 7.390625 -1.8125 7.359375 -1.828125 7.265625 -1.859375 C 6.265625 -2.171875 5.90625 -2.890625 5.75 -3.5 C 5.734375 -3.578125 5.671875 -3.578125 5.578125 -3.578125 C 5.484375 -3.578125 5.421875 -3.578125 5.421875 -3.484375 C 5.421875 -3.46875 5.484375 -3 5.828125 -2.515625 C 5.984375 -2.28125 6.1875 -2.078125 6.40625 -1.921875 L 0.8125 -1.921875 C 0.703125 -1.921875 0.53125 -1.921875 0.53125 -1.75 C 0.53125 -1.578125 0.703125 -1.578125 0.8125 -1.578125 Z M 6.40625 -1.578125 "
           id="path7486" />
      </symbol>
      <symbol
         overflow="visible"
         id="symbol4447">
        <path
           style="stroke:none;"
           d="M 4.03125 -1.90625 C 3.65625 -2.34375 3.546875 -2.453125 3.28125 -2.640625 C 2.859375 -2.953125 2.40625 -3.078125 2.03125 -3.078125 C 1.15625 -3.078125 0.53125 -2.328125 0.53125 -1.5 C 0.53125 -0.6875 1.140625 0.0625 2 0.0625 C 2.96875 0.0625 3.65625 -0.71875 3.90625 -1.09375 C 4.265625 -0.65625 4.390625 -0.546875 4.640625 -0.359375 C 5.078125 -0.046875 5.515625 0.0625 5.90625 0.0625 C 6.765625 0.0625 7.390625 -0.671875 7.390625 -1.5 C 7.390625 -2.328125 6.796875 -3.078125 5.921875 -3.078125 C 4.953125 -3.078125 4.28125 -2.28125 4.03125 -1.90625 Z M 4.25 -1.65625 C 4.53125 -2.109375 5.140625 -2.8125 5.984375 -2.8125 C 6.703125 -2.8125 7.203125 -2.171875 7.203125 -1.5 C 7.203125 -0.84375 6.65625 -0.3125 6.015625 -0.3125 C 5.359375 -0.3125 4.921875 -0.84375 4.25 -1.65625 Z M 3.671875 -1.359375 C 3.40625 -0.90625 2.796875 -0.1875 1.9375 -0.1875 C 1.21875 -0.1875 0.734375 -0.828125 0.734375 -1.5 C 0.734375 -2.171875 1.28125 -2.6875 1.921875 -2.6875 C 2.5625 -2.6875 3.015625 -2.15625 3.671875 -1.359375 Z M 3.671875 -1.359375 "
           id="path7527" />
      </symbol>
      <symbol
         overflow="visible"
         id="symbol628">
        <path
           style="stroke:none;"
           d=""
           id="path2122" />
      </symbol>
      <symbol
         overflow="visible"
         id="symbol6162">
        <path
           style="stroke:none;"
           d="M 12.625 13.953125 L 13.828125 10.765625 L 13.578125 10.765625 C 13.1875 11.796875 12.125 12.484375 10.984375 12.78125 C 10.78125 12.828125 9.796875 13.09375 7.890625 13.09375 L 1.875 13.09375 L 6.953125 7.140625 C 7.015625 7.0625 7.03125 7.03125 7.03125 6.984375 C 7.03125 6.953125 7.03125 6.921875 6.96875 6.828125 L 2.328125 0.484375 L 7.78125 0.484375 C 9.125 0.484375 10.03125 0.625 10.125 0.640625 C 10.65625 0.71875 11.53125 0.890625 12.3125 1.390625 C 12.5625 1.546875 13.234375 2 13.578125 2.796875 L 13.828125 2.796875 L 12.625 0 L 0.84375 0 C 0.609375 0 0.59375 0.015625 0.5625 0.0625 C 0.5625 0.09375 0.5625 0.296875 0.5625 0.40625 L 5.828125 7.609375 L 0.671875 13.671875 C 0.5625 13.78125 0.5625 13.84375 0.5625 13.84375 C 0.5625 13.953125 0.65625 13.953125 0.84375 13.953125 Z M 12.625 13.953125 "
           id="path2652" />
      </symbol>
    </g>
  </defs>
  <sodipodi:namedview
     inkscape:window-maximized="1"
     inkscape:window-y="-11"
     inkscape:window-x="-11"
     inkscape:window-height="2126"
     inkscape:window-width="3840"
     showgrid="false"
     inkscape:document-rotation="0"
     inkscape:current-layer="layer1"
     inkscape:document-units="mm"
     inkscape:cy="89.463268"
     inkscape:cx="63.106701"
     inkscape:zoom="7.7079085"
     inkscape:pageshadow="2"
     inkscape:pageopacity="0.0"
     borderopacity="1.0"
     bordercolor="#666666"
     pagecolor="#ffffff"
     id="base" />
  <metadata
     id="metadata1046">
    <rdf:RDF>
      <cc:Work
         rdf:about="">
        <dc:format>image/svg+xml</dc:format>
        <dc:type
           rdf:resource="http://purl.org/dc/dcmitype/StillImage" />
        <dc:title />
      </cc:Work>
    </rdf:RDF>
  </metadata>
  <g
     id="layer1"
     inkscape:groupmode="layer"
     inkscape:label="Layer 1"
     transform="translate(-6.1248469,-8.2727452)">
    <path
       inkscape:export-ydpi="300"
       inkscape:export-xdpi="300"
       inkscape:connector-curvature="0"
       id="path20675"
       d="M 12.401733,55.033808 H 64.022666"
       style="fill:none;stroke:#000000;stroke-width:0.264999;stroke-linecap:butt;stroke-linejoin:miter;stroke-miterlimit:4;stroke-dasharray:none;stroke-opacity:1;marker-end:url(#Arrow1Lend)" />
    <path
       inkscape:export-ydpi="300"
       inkscape:export-xdpi="300"
       inkscape:connector-curvature="0"
       id="path20691"
       d="M 12.401733,55.033808 V 10.657928"
       style="fill:none;stroke:#000000;stroke-width:0.264583px;stroke-linecap:butt;stroke-linejoin:miter;stroke-opacity:1;marker-end:url(#marker20695)" />
    <circle
       inkscape:export-ydpi="300"
       inkscape:export-xdpi="300"
       r="1.8112606"
       cy="42.824295"
       cx="34.951855"
       id="path20721-3-19"
       style="fill:#0000ff;stroke:none;stroke-width:0.264999;stroke-miterlimit:4;stroke-dasharray:none" />
    <circle
       inkscape:export-ydpi="300"
       inkscape:export-xdpi="300"
       style="fill:#0000ff;stroke:none;stroke-width:0.264999;stroke-miterlimit:4;stroke-dasharray:none"
       id="path20721-3-19-9"
       cx="44.496815"
       cy="37.710922"
       r="1.8112606" />
    <circle
       inkscape:export-ydpi="300"
       inkscape:export-xdpi="300"
       style="fill:#0000ff;stroke:none;stroke-width:0.264999;stroke-miterlimit:4;stroke-dasharray:none"
       id="path20721-3-19-8"
       cx="41.542423"
       cy="46.687729"
       r="1.8112606" />
    <circle
       inkscape:export-ydpi="300"
       inkscape:export-xdpi="300"
       style="fill:#0000ff;stroke:none;stroke-width:0.264999;stroke-miterlimit:4;stroke-dasharray:none"
       id="path20721-3-19-0"
       cx="32.906502"
       cy="51.573853"
       r="1.8112606" />
    <circle
       inkscape:export-ydpi="300"
       inkscape:export-xdpi="300"
       style="fill:#0000ff;stroke:none;stroke-width:0.264999;stroke-miterlimit:4;stroke-dasharray:none"
       id="path20721-3-19-7"
       cx="24.952379"
       cy="50.551178"
       r="1.8112606" />
    <circle
       inkscape:export-ydpi="300"
       inkscape:export-xdpi="300"
       style="fill:#0000ff;stroke:none;stroke-width:0.264999;stroke-miterlimit:4;stroke-dasharray:none"
       id="path20721-3-19-5"
       cx="53.587254"
       cy="37.370026"
       r="1.8112606" />
    <circle
       inkscape:export-ydpi="300"
       inkscape:export-xdpi="300"
       style="fill:#0000ff;stroke:none;stroke-width:0.264999;stroke-miterlimit:4;stroke-dasharray:none"
       id="path20721-3-19-84"
       cx="51.541904"
       cy="31.34761"
       r="1.8112606" />
    <path
       inkscape:export-ydpi="300"
       inkscape:export-xdpi="300"
       inkscape:connector-curvature="0"
       id="path20849"
       d="M 18.020909,49.187607 51.428275,22.825327"
       style="fill:none;stroke:#000000;stroke-width:0.264583px;stroke-linecap:butt;stroke-linejoin:miter;stroke-opacity:1" />
    <text
       inkscape:export-ydpi="300"
       inkscape:export-xdpi="300"
       id="text21642"
       y="60.164001"
       x="62.364307"
       style="font-style:normal;font-weight:normal;font-size:10.5833px;line-height:1.25;font-family:sans-serif;fill:#000000;fill-opacity:1;stroke:none;stroke-width:0.264583"
       xml:space="preserve"><tspan
         style="font-size:5.29167px;stroke-width:0.264583"
         y="60.164001"
         x="62.364307"
         id="tspan21640"
         sodipodi:role="line">$x_1$</tspan></text>
    <text
       inkscape:export-ydpi="300"
       inkscape:export-xdpi="300"
       xml:space="preserve"
       style="font-style:normal;font-weight:normal;font-size:10.5833px;line-height:1.25;font-family:sans-serif;fill:#000000;fill-opacity:1;stroke:none;stroke-width:0.264583"
       x="5.7243543"
       y="12.344851"
       id="text21642-6"><tspan
         sodipodi:role="line"
         id="tspan21640-4"
         x="5.7243543"
         y="12.344851"
         style="font-size:5.29167px;stroke-width:0.264583">$x_2$</tspan></text>
    <rect
       style="fill:#ff0000;fill-rule:evenodd;stroke-width:0.264583"
       id="rect40"
       width="3.0340374"
       height="3.0340374"
       x="43.649822"
       y="18.418566" />
    <rect
       style="fill:#ff0000;fill-rule:evenodd;stroke-width:0.264583"
       id="rect40-9"
       width="3.0340374"
       height="3.0340374"
       x="16.646891"
       y="40.300045" />
    <rect
       style="fill:#ff0000;fill-rule:evenodd;stroke-width:0.264583"
       id="rect40-9-4"
       width="3.0340374"
       height="3.0340374"
       x="21.574165"
       y="33.722252" />
    <rect
       style="fill:#ff0000;fill-rule:evenodd;stroke-width:0.264583"
       id="rect40-9-6"
       width="3.0340374"
       height="3.0340374"
       x="38.880318"
       y="23.357981" />
    <rect
       style="fill:#ff0000;fill-rule:evenodd;stroke-width:0.264583"
       id="rect40-9-7"
       width="3.0340374"
       height="3.0340374"
       x="33.297688"
       y="18.600609" />
    <rect
       style="fill:#ff0000;fill-rule:evenodd;stroke-width:0.264583"
       id="rect40-9-2"
       width="3.0340374"
       height="3.0340374"
       x="29.826746"
       y="26.319201" />
    <rect
       style="fill:#ff0000;fill-rule:evenodd;stroke-width:0.264583"
       id="rect40-9-0"
       width="3.0340374"
       height="3.0340374"
       x="21.18581"
       y="21.391924" />
    <g
       inkscape:label=""
       transform="translate(16.697,23.6705)"
       id="g2111">
      <g
         id="g31">
        <g
           style="fill:#000000;fill-opacity:1"
           id="g8301">
          <use
             xlink:href="#symbol1145"
             x="93.121002"
             y="81.711998"
             id="use1004"
             width="100%"
             height="100%" />
        </g>
        <g
           style="fill:#000000;fill-opacity:1"
           id="g2246">
          <use
             xlink:href="#symbol1243"
             x="99.156998"
             y="78.097"
             id="use2598"
             width="100%"
             height="100%" />
        </g>
        <path
           style="fill:none;stroke:#000000;stroke-width:0.398;stroke-linecap:butt;stroke-linejoin:miter;stroke-miterlimit:10;stroke-opacity:1"
           d="M 9.375e-5,0.0010625 H 10.507906"
           transform="matrix(1,0,0,-1,93.121,85.962)"
           id="path851" />
        <g
           style="fill:#000000;fill-opacity:1"
           id="g9745">
          <use
             xlink:href="#symbol2734"
             x="95.883003"
             y="95.286003"
             id="use9053"
             width="100%"
             height="100%" />
        </g>
        <g
           style="fill:#000000;fill-opacity:1"
           id="g4457">
          <use
             xlink:href="#symbol7072"
             x="107.589"
             y="88.452003"
             id="use4534"
             width="100%"
             height="100%" />
        </g>
        <g
           style="fill:#000000;fill-opacity:1"
           id="g1077">
          <use
             xlink:href="#symbol9035"
             x="121.59442"
             y="88.452003"
             id="use3831"
             width="100%"
             height="100%" />
          <use
             xlink:href="#symbol9630"
             x="124.36203"
             y="88.452003"
             id="use1248"
             width="100%"
             height="100%" />
          <use
             xlink:href="#symbol3696"
             x="127.12965"
             y="88.452003"
             id="use678"
             width="100%"
             height="100%" />
        </g>
        <g
           style="fill:#000000;fill-opacity:1"
           id="g8700">
          <use
             xlink:href="#symbol8035"
             x="118.105"
             y="94.43"
             id="use9891"
             width="100%"
             height="100%" />
        </g>
        <g
           style="fill:#000000;fill-opacity:1"
           id="g9516">
          <use
             xlink:href="#symbol3376"
             x="123.03"
             y="94.43"
             id="use8085"
             width="100%"
             height="100%" />
          <use
             xlink:href="#symbol4447"
             x="130.97246"
             y="94.43"
             id="use3570"
             width="100%"
             height="100%" />
        </g>
        <g
           style="fill:#000000;fill-opacity:1"
           id="g5359">
          <use
             xlink:href="#symbol8035"
             x="145.35899"
             y="75.999001"
             id="use636"
             width="100%"
             height="100%" />
        </g>
        <g
           style="fill:#000000;fill-opacity:1"
           id="g9725">
          <use
             xlink:href="#symbol6162"
             x="140.62601"
             y="78.987999"
             id="use268"
             width="100%"
             height="100%" />
        </g>
        <g
           style="fill:#000000;fill-opacity:1"
           id="g2833">
          <use
             xlink:href="#symbol5893"
             x="140.576"
             y="100.435"
             id="use3819"
             width="100%"
             height="100%" />
        </g>
        <g
           style="fill:#000000;fill-opacity:1"
           id="g4358">
          <use
             xlink:href="#symbol4241"
             x="144.979"
             y="100.435"
             id="use9799"
             width="100%"
             height="100%" />
          <use
             xlink:href="#symbol256"
             x="151.09502"
             y="100.435"
             id="use7171"
             width="100%"
             height="100%" />
        </g>
        <g
           style="fill:#000000;fill-opacity:1"
           id="g8277">
          <use
             xlink:href="#symbol2544"
             x="160.41701"
             y="81.711998"
             id="use1023"
             width="100%"
             height="100%" />
        </g>
        <path
           style="fill:none;stroke:#000000;stroke-width:0.398;stroke-linecap:butt;stroke-linejoin:miter;stroke-miterlimit:10;stroke-opacity:1"
           d="m -1.25e-4,0.0010625 h 9.96875"
           transform="matrix(1,0,0,-1,157.922,85.962)"
           id="path3807" />
        <g
           style="fill:#000000;fill-opacity:1"
           id="g4977">
          <use
             xlink:href="#symbol7794"
             x="157.922"
             y="95.286003"
             id="use9499"
             width="100%"
             height="100%" />
        </g>
        <g
           style="fill:#000000;fill-opacity:1"
           id="g3297">
          <use
             xlink:href="#symbol1243"
             x="163.423"
             y="92.407997"
             id="use7037"
             width="100%"
             height="100%" />
        </g>
      </g>
    </g>
  </g>
</svg>
