<?xml version="1.0" encoding="UTF-8" standalone="no"?>
<!-- Created with Inkscape (http://www.inkscape.org/) -->

<svg
   xmlns:dc="http://purl.org/dc/elements/1.1/"
   xmlns:cc="http://creativecommons.org/ns#"
   xmlns:rdf="http://www.w3.org/1999/02/22-rdf-syntax-ns#"
   xmlns:svg="http://www.w3.org/2000/svg"
   xmlns="http://www.w3.org/2000/svg"
   xmlns:sodipodi="http://sodipodi.sourceforge.net/DTD/sodipodi-0.dtd"
   xmlns:inkscape="http://www.inkscape.org/namespaces/inkscape"
   width="210mm"
   height="297mm"
   viewBox="0 0 744.09448819 1052.3622047"
   id="svg2"
   version="1.1"
   inkscape:version="0.91 r13725"
   sodipodi:docname="pitchyawroll.svg">
  <defs
     id="defs4">
    <marker
       inkscape:stockid="Arrow2Mend"
       orient="auto"
       refY="0.0"
       refX="0.0"
       id="Arrow2Mend"
       style="overflow:visible;"
       inkscape:isstock="true">
      <path
         id="path4821"
         style="fill-rule:evenodd;stroke-width:0.62500000;stroke-linejoin:round;"
         d="M 8.7185878,4.0337352 L -2.2072895,0.016013256 L 8.7185884,-4.0017078 C 6.9730900,-1.6296469 6.9831476,1.6157441 8.7185878,4.0337352 z "
         transform="scale(0.6) rotate(180) translate(0,0)" />
    </marker>
    <marker
       inkscape:isstock="true"
       style="overflow:visible;"
       id="marker7785"
       refX="0.0"
       refY="0.0"
       orient="auto"
       inkscape:stockid="Arrow2Send">
      <path
         transform="scale(0.3) rotate(180) translate(-2.3,0)"
         d="M 8.7185878,4.0337352 L -2.2072895,0.016013256 L 8.7185884,-4.0017078 C 6.9730900,-1.6296469 6.9831476,1.6157441 8.7185878,4.0337352 z "
         style="fill-rule:evenodd;stroke-width:0.625;stroke-linejoin:round;stroke:#000000;stroke-opacity:1;fill:#000000;fill-opacity:1"
         id="path7787" />
    </marker>
    <marker
       inkscape:stockid="Arrow1Sstart"
       orient="auto"
       refY="0.0"
       refX="0.0"
       id="Arrow1Sstart"
       style="overflow:visible"
       inkscape:isstock="true">
      <path
         id="path4806"
         d="M 0.0,0.0 L 5.0,-5.0 L -12.5,0.0 L 5.0,5.0 L 0.0,0.0 z "
         style="fill-rule:evenodd;stroke:#000000;stroke-width:1pt;stroke-opacity:1;fill:#000000;fill-opacity:1"
         transform="scale(0.2) translate(6,0)" />
    </marker>
    <marker
       inkscape:isstock="true"
       style="overflow:visible;"
       id="marker7411"
       refX="0.0"
       refY="0.0"
       orient="auto"
       inkscape:stockid="Arrow2Mend">
      <path
         transform="scale(0.6) rotate(180) translate(0,0)"
         d="M 8.7185878,4.0337352 L -2.2072895,0.016013256 L 8.7185884,-4.0017078 C 6.9730900,-1.6296469 6.9831476,1.6157441 8.7185878,4.0337352 z "
         style="fill-rule:evenodd;stroke-width:0.625;stroke-linejoin:round;stroke:#000000;stroke-opacity:1;fill:#000000;fill-opacity:1"
         id="path7413" />
    </marker>
    <marker
       inkscape:isstock="true"
       style="overflow:visible;"
       id="marker7341"
       refX="0.0"
       refY="0.0"
       orient="auto"
       inkscape:stockid="Arrow2Send">
      <path
         transform="scale(0.3) rotate(180) translate(-2.3,0)"
         d="M 8.7185878,4.0337352 L -2.2072895,0.016013256 L 8.7185884,-4.0017078 C 6.9730900,-1.6296469 6.9831476,1.6157441 8.7185878,4.0337352 z "
         style="fill-rule:evenodd;stroke-width:0.625;stroke-linejoin:round;stroke:#000000;stroke-opacity:1;fill:#000000;fill-opacity:1"
         id="path7343" />
    </marker>
    <marker
       inkscape:stockid="Arrow2Send"
       orient="auto"
       refY="0.0"
       refX="0.0"
       id="marker7275"
       style="overflow:visible;"
       inkscape:isstock="true"
       inkscape:collect="always">
      <path
         id="path7277"
         style="fill-rule:evenodd;stroke-width:0.625;stroke-linejoin:round;stroke:#000000;stroke-opacity:1;fill:#000000;fill-opacity:1"
         d="M 8.7185878,4.0337352 L -2.2072895,0.016013256 L 8.7185884,-4.0017078 C 6.9730900,-1.6296469 6.9831476,1.6157441 8.7185878,4.0337352 z "
         transform="scale(0.3) rotate(180) translate(-2.3,0)" />
    </marker>
    <marker
       inkscape:stockid="Arrow2Send"
       orient="auto"
       refY="0.0"
       refX="0.0"
       id="marker5529"
       style="overflow:visible;"
       inkscape:isstock="true">
      <path
         id="path5531"
         style="fill-rule:evenodd;stroke-width:0.625;stroke-linejoin:round;stroke:#000000;stroke-opacity:1;fill:#000000;fill-opacity:1"
         d="M 8.7185878,4.0337352 L -2.2072895,0.016013256 L 8.7185884,-4.0017078 C 6.9730900,-1.6296469 6.9831476,1.6157441 8.7185878,4.0337352 z "
         transform="scale(0.3) rotate(180) translate(-2.3,0)" />
    </marker>
    <marker
       inkscape:isstock="true"
       style="overflow:visible;"
       id="marker5198"
       refX="0.0"
       refY="0.0"
       orient="auto"
       inkscape:stockid="Arrow2Send"
       inkscape:collect="always">
      <path
         transform="scale(0.3) rotate(180) translate(-2.3,0)"
         d="M 8.7185878,4.0337352 L -2.2072895,0.016013256 L 8.7185884,-4.0017078 C 6.9730900,-1.6296469 6.9831476,1.6157441 8.7185878,4.0337352 z "
         style="fill-rule:evenodd;stroke-width:0.625;stroke-linejoin:round;stroke:#000000;stroke-opacity:1;fill:#000000;fill-opacity:1"
         id="path5200" />
    </marker>
    <marker
       inkscape:stockid="Arrow2Send"
       orient="auto"
       refY="0.0"
       refX="0.0"
       id="Arrow2Send"
       style="overflow:visible;"
       inkscape:isstock="true"
       inkscape:collect="always">
      <path
         id="path4827"
         style="fill-rule:evenodd;stroke-width:0.625;stroke-linejoin:round;stroke:#000000;stroke-opacity:1;fill:#000000;fill-opacity:1"
         d="M 8.7185878,4.0337352 L -2.2072895,0.016013256 L 8.7185884,-4.0017078 C 6.9730900,-1.6296469 6.9831476,1.6157441 8.7185878,4.0337352 z "
         transform="scale(0.3) rotate(180) translate(-2.3,0)" />
    </marker>
    <marker
       inkscape:stockid="Arrow1Lend"
       orient="auto"
       refY="0.0"
       refX="0.0"
       id="Arrow1Lend"
       style="overflow:visible;"
       inkscape:isstock="true">
      <path
         id="path4797"
         d="M 0.0,0.0 L 5.0,-5.0 L -12.5,0.0 L 5.0,5.0 L 0.0,0.0 z "
         style="fill-rule:evenodd;stroke:#000000;stroke-width:1pt;stroke-opacity:1;fill:#000000;fill-opacity:1"
         transform="scale(0.8) rotate(180) translate(12.5,0)" />
    </marker>
    <marker
       inkscape:stockid="Arrow2Lend"
       orient="auto"
       refY="0.0"
       refX="0.0"
       id="Arrow2Lend"
       style="overflow:visible;"
       inkscape:isstock="true">
      <path
         id="path4815"
         style="fill-rule:evenodd;stroke-width:0.625;stroke-linejoin:round;stroke:#000000;stroke-opacity:1;fill:#000000;fill-opacity:1"
         d="M 8.7185878,4.0337352 L -2.2072895,0.016013256 L 8.7185884,-4.0017078 C 6.9730900,-1.6296469 6.9831476,1.6157441 8.7185878,4.0337352 z "
         transform="scale(1.1) rotate(180) translate(1,0)" />
    </marker>
  </defs>
  <sodipodi:namedview
     id="base"
     pagecolor="#ffffff"
     bordercolor="#666666"
     borderopacity="1.0"
     inkscape:pageopacity="0.0"
     inkscape:pageshadow="2"
     inkscape:zoom="0.86829407"
     inkscape:cx="336.03129"
     inkscape:cy="847.40019"
     inkscape:document-units="px"
     inkscape:current-layer="layer1"
     showgrid="false"
     inkscape:window-width="1440"
     inkscape:window-height="805"
     inkscape:window-x="0"
     inkscape:window-y="0"
     inkscape:window-maximized="1" />
  <metadata
     id="metadata7">
    <rdf:RDF>
      <cc:Work
         rdf:about="">
        <dc:format>image/svg+xml</dc:format>
        <dc:type
           rdf:resource="http://purl.org/dc/dcmitype/StillImage" />
        <dc:title></dc:title>
      </cc:Work>
    </rdf:RDF>
  </metadata>
  <g
     inkscape:label="Layer 1"
     inkscape:groupmode="layer"
     id="layer1">
    <g
       id="g8133"
       transform="translate(119.77509,-3.4550507)"
       inkscape:export-xdpi="300.09723"
       inkscape:export-ydpi="300.09723">
      <path
         sodipodi:nodetypes="csssssssccsssscsssccccssssssssscccsssssssscscscsssscsssscscsssssssscssccccscsscccccscsccssssscscccsssccsscssccsscssccssssssssssssscsssccssscsssssssssssssssssssssssssssssssssssssssssssssssssssssssssssssssssscccsssssssssscssscssssssssssssssscssscsssssscssscssssssscssssssssssssssssscsssssssssscsssssssscsssssssssssssssssssssssssssssssssssscssssssssssssssssssssssscsscsssssssssssssssscsssssscsccsscccssscccscsscccsssscsscssccsccssccscsscsscsssssssccscssscssccscssssscsssssscssscscscsccscssssssssscccssssscsssccscsssccscccsscccssssssccscsccssccsssssscssscccsssscscsscccscsssscscsscsscccsssssscsssscssscsscccsscsscssscsssssccc"
         inkscape:connector-curvature="0"
         id="path3347"
         d="m 19.5004,345.69405 0,-3.4932 c 0,-9.41295 10.42728,-33.94148 18.166389,-42.73358 2.9979,-3.40579 12.90273,-9.3211 50.43693,-30.12165 41.051711,-22.74986 46.354751,-25.95596 43.801561,-26.48147 -4.28499,-0.88195 -6.67812,-2.39835 -10.55195,-6.68622 -4.51778,-5.00064 -7.66926,-11.61864 -9.03825,-18.98002 -1.37127,-7.37363 -0.0107,-10.76575 5.57436,-13.89755 l 3.88904,-2.18077 c 3.43226,-2.06443 6.78089,-3.27285 12.53598,-6.42457 5.69423,-3.10526 6.16615,-3.19616 10.53135,-2.02865 2.51349,0.67226 5.19946,0.98073 5.96882,0.6855 1.15531,-0.44333 1.51309,-8.2314 2.05513,-44.73485 0.36096,-24.30894 0.93584,-51.234191 1.27751,-59.833898 l 0.6212,-15.63583 16.42421,-8.11417 c 9.03332,-4.462793 17.2215,-8.114169 18.19596,-8.114169 1.3253,0 8.1493,12.283861 27.08186,48.749997 13.92057,26.8125 25.61047,49.0909 25.97754,49.50753 l 3.1192,5.84786 4.10394,8.27492 4.10394,8.27492 41.45453,-22.94944 c 39.64703,-21.94882 42.79039,-23.48917 72.09228,-35.32762 16.85076,-6.808 31.43441,-12.37817 32.40811,-12.37817 0.9737,0 1.77036,-0.3693 1.77036,-0.82067 0,-0.45137 -1.8,-9.757068 -4,-20.679327 -2.2,-10.922259 -4,-20.648085 -4,-21.612945 0,-1.232598 4.08899,-3.930045 13.75,-9.070673 7.5625,-4.02401 14.2,-7.419585 14.75,-7.545721 0.55,-0.126137 4.66181,4.724984 9.13736,10.780268 l 8.13736,11.009608 13.65273,-25.280269 13.65274,-25.280268 7.87797,-4.25 c 8.98625,-4.847892 10.04184,-5.071613 10.04184,-2.12826 0,1.166957 -4.725,19.903901 -10.5,41.637654 -5.775,21.733753 -10.5,39.718524 -10.5,39.966158 0,0.247634 1.8,0.146136 4,-0.225552 4.63199,-0.78257 5.25078,0.539704 1.91449,4.091021 -1.97689,2.1043 -1.98991,2.24885 -0.25,2.775286 1.9599,0.593 90.22487,19.63369 91.01388,19.63369 0.25755,0 0.32278,0.67907 0.14495,1.50904 -0.17782,0.82997 -6.17332,5.10484 -13.32332,9.49972 -11.70006,7.19165 -13.49998,7.99046 -18,7.98844 -2.75,-10e-4 -24.35,-1.35444 -48,-3.00713 l -43,-3.00487 -3.5,3.78695 c -1.925,2.08283 -5.504,6.00038 -7.95334,8.70567 -2.44934,2.70529 -16.17434,13.95256 -30.5,24.99394 -22.26317,17.15914 -29.73417,22.24577 -51.43256,35.01782 l -25.3859,14.94259 18.8859,4.73275 c 10.38725,2.60301 64.8984,16.10207 121.1359,29.99791 57.77654,14.27612 102.25,25.73987 102.25,26.35657 0,0.60028 -7.9106,6.62772 -17.5791,13.39432 l -17.57911,12.3029 -96.17089,-7.61564 c -52.894,-4.1886 -97.5209,-7.59603 -99.1709,-7.57207 -2.52521,0.0367 -3.31652,0.71045 -5,4.25734 -1.69602,3.57331 -3.82387,5.36464 -14,11.78586 -11.78567,7.43686 -12.01022,7.64737 -12.57206,11.78634 -0.31463,2.31784 -1.21463,4.79806 -2,5.5116 -0.78537,0.71354 -6.8716,4.74719 -13.52496,8.96366 -13.02156,8.25222 -15.76879,9.01014 -21.97835,6.06351 -7.08099,-3.36015 -15.53797,-16.30176 -16.99292,-26.00402 -1.26201,-8.41571 0.23667,-10.37071 14.61582,-19.06609 l 12.94331,-7.8271 -5.06731,-0.64953 c -2.78702,-0.35724 -15.98494,-1.45283 -29.32872,-2.43465 l -24.26142,-1.78512 -7.65443,4.43465 -7.65443,4.43465 c -18.9648,13.5213 -42.83949,25.43237 -59.24186,35.12019 -27.65547,16.33942 -52.982671,31.09668 -56.282671,32.79392 l -6,3.08588 -17,-0.0378 c -18.72182,-0.0416 -24.01259,-1.0608 -34.692789,-6.68308 l -5.69279,-2.9968 c 0.0147,-3.13348 0.0147,-3.13348 -0.11442,-7.00722 z M 222.22218,197.74291 c -2.87198,1.50295 -15.72552,8.54578 -28.56342,15.65075 -28.52412,15.96894 -27.50459,17.08958 -39.90836,4.03478 -2.03504,-1.44972 -2.25194,-2.43433 -2.27033,-10.30616 l -0.0203,-8.70332 -4.98617,-2.27232 c -5.37,-2.44724 -6.36938,-2.25894 -13.83021,2.60575 -16.25942,8.22908 0,0 -12.30238,6.31119 -6.12776,3.38026 -7.1933,6.08099 -5.28689,13.4002 2.36509,9.08021 8.43633,17.78731 14.68474,21.0602 2.59542,1.35947 3.27431,1.16123 13,-3.79611 5.64386,-2.87677 11.72407,-5.91296 13.51157,-6.7471 4.04754,-1.88879 4.12263,-3.5592 0.25,-5.56181 -2.98462,-1.5434 -3.00008,-1.53713 -3.01531,1.22432 -0.008,1.52662 -0.45153,3.45068 -0.98469,4.27568 -0.69474,1.07504 -0.97371,0.0293 -0.98469,-3.69098 -0.008,-2.85504 0.32785,-5.40307 0.74727,-5.66229 10.70342,6.72824 28.37122,0.9011 7.27282,12.66471 -3.04447,1.69747 -5.7604,3.36376 -6.0354,3.70287 -0.275,0.33911 -24.8,14.04255 -54.500001,30.45209 -42.86848,23.68525 -54.92763,30.78653 -58.5,34.44893 -8.13447,8.33946 -18.999999,33.17582 -18.999999,43.43007 -1.00962,5.16363 2.95437,9.23439 -1.87095,5.30343 l 6.68547,3.56802 c 11.245489,6.00168 16.738269,7.18149 33.685479,7.23542 l 15,0.0477 7,-3.64437 c 3.85,-2.0044 30.175001,-17.34346 58.500001,-34.08679 l 51.5,-30.44242 c 0.45047,-4.45542 0.98213,-9.24921 0.11877,-13.32639 -0.25992,0 -18.61798,10.59269 -40.79569,23.5393 -30.06314,17.54987 -40.26749,23.97458 -40.10452,25.25 0.12023,0.94089 -0.0477,2.3857 -0.37323,3.2107 -0.40928,1.03732 -0.85569,0.57662 -1.44725,-1.49357 -0.66396,-2.32354 -0.46851,-3.3531 0.87323,-4.59994 1.76662,-1.64165 82.0429,-48.90649 83.08433,-48.90649 l 4.16104,-3 c 0.55919,0 40.85739,-23.21698 89.55155,-51.59329 75.07844,-43.75163 92.3615,-54.25436 113.71187,-69.10151 20.09155,-13.97178 27.9587,-20.13671 38.94845,-30.5212 7.57428,-7.15713 13.77142,-12.63601 13.77142,-12.1753 0,0.46071 3.13724,-2.27554 6.97163,-6.08056 3.8344,-3.805016 6.82907,-7.060785 6.65481,-7.235042 -0.17426,-0.174257 -10.61885,2.4038 -23.2102,5.729012 -19.87045,5.24753 -23.03788,5.84822 -23.98776,4.54919 -2.11727,-2.89555 -19.40533,2.15826 -51.02621,14.91645 -27.01812,10.9011 -31.54247,13.11666 -69.40227,33.98603 -22.275,12.2786 -43.875,24.08849 -48,26.24421 -4.125,2.15572 -10.91282,5.80074 -15.08403,8.10005 -4.17122,2.29931 -9.46602,5.35994 -9.86137,4.96459 -0.39535,-0.39535 1.10961,-1.51825 1.4395,-0.6586 M 51.441779,328.16896 c -2.43422,-3.7125 -4.557,-7.21983 -4.71728,-7.79406 -0.46392,-1.66202 4.29788,-5.5766 5.9925,-4.92632 1.52383,0.58475 8.051803,8.78015 8.901744,10.33675 0.57725,1.60785 6.955993,3.21212 -1.006494,7.57579 -1.65689,0.85681 -3.40225,1.55784 -3.87857,1.55784 -0.47632,0 -2.85768,-3.0375 -5.2919,-6.75 z m 3.862883,-7.94229 c -1.272347,-1.81488 -3.422243,-3.00592 -3.574693,-3.24819 -0.15245,-0.24226 -0.9759,0.25824 -1.82989,1.11223 -1.40359,1.40359 -1.235039,2.00337 1.75535,6.24586 1.633555,2.31754 3.711371,7.12511 5.380722,8.50169 1.474908,1.21623 5.373296,-1.72181 5.785731,-2.95911 0.319705,-0.95911 -2.12335,-2.71831 -3.480964,-4.73244 -1.357614,-2.01413 -3.150736,-3.65693 -4.036256,-4.92004 z m -18.378043,-4.18935 c -2.90898,-0.58521 -3.02825,-0.79192 -2.2247,-3.85566 0.93255,-3.55553 3.93218,-4.94793 8.29848,-3.85206 2.75638,0.69181 3.09053,2.19917 1.33948,6.04231 -1.17966,2.58908 -1.95546,2.76337 -7.41326,1.66541 z m 6.12123,-3.26786 c 0.71986,-2.26807 0.5548,-2.57462 -1.54745,-2.87391 -3.37446,-0.48042 -4.78869,0.13868 -5.19324,2.27341 -0.3669,1.93605 0.0293,2.27454 2.83957,2.42586 2.479,0.13348 3.41901,-0.30636 3.90112,-1.82536 z m 78.059541,-2.43229 c -1.29188,-3.36658 -0.50176,-5.28275 3.04001,-7.37244 3.92986,-2.31867 4.85503,-1.99011 5.85971,2.08097 0.53189,2.15531 0.11307,3.00782 -2.33361,4.75 -3.54622,2.52514 -5.73563,2.70568 -6.56611,0.54147 z m 5.73371,-1.87657 c 1.21861,-0.92339 1.62602,-2.07115 1.20548,-3.39614 -0.60293,-1.89966 -0.77819,-1.91933 -3.44829,-0.38689 -1.90743,1.09471 -2.66041,2.19831 -2.33886,3.42794 0.56261,2.15141 2.05806,2.26731 4.58167,0.35509 z m 8.63455,-7.10674 c -1.43192,-3.76622 -1.31768,-4.03531 2.726,-6.42114 3.51703,-2.0751 3.7659,-2.09539 5,-0.40765 2.12716,2.90907 1.4964,5.30278 -1.95125,7.40485 -4.17789,2.54731 -4.60338,2.50487 -5.77475,-0.57606 z m 7.02475,-3.5364 c 0,-2.6208 -1.26548,-2.96115 -3.82674,-1.02919 -3.1702,2.39128 -2.05277,5.48855 1.4108,3.91043 1.32877,-0.60542 2.41594,-1.90198 2.41594,-2.88124 z m 6.97525,-5.4636 c -1.27983,-3.36621 -1.46609,-2.96842 2.55299,-5.45235 2.8401,-1.75528 3.81528,-1.94234 5,-0.95912 2.17528,1.80533 1.78705,5.64232 -0.75075,7.41987 -3.25477,2.27973 -5.68931,1.91882 -6.80224,-1.0084 z m 7.31974,-3.41488 c -0.63135,-2.41425 -1.1828,-2.48733 -3.98082,-0.52752 -1.39233,0.97523 -1.95167,2.1777 -1.61386,3.4695 0.47853,1.82989 0.72555,1.86914 3.31996,0.52752 2.06735,-1.06907 2.66433,-1.97961 2.27472,-3.4695 z m 6.68026,-4.58512 c -1.27983,-3.36621 -1.46609,-2.96842 2.55299,-5.45235 2.8401,-1.75528 3.81528,-1.94234 5,-0.95912 2.26834,1.88257 1.7738,5.54865 -0.99306,7.36156 -3.49359,2.28909 -5.43532,2.00787 -6.55993,-0.95009 z m 7.27819,-3.57376 c -0.5886,-2.2508 -1.17391,-2.30557 -3.93927,-0.36864 -1.40257,0.9824 -1.95238,2.17497 -1.60868,3.4893 0.49641,1.89829 0.65814,1.91647 3.27841,0.36864 1.88817,-1.11537 2.60295,-2.21431 2.26954,-3.4893 z m 6.71466,-4.44506 c -1.1921,-3.13544 -0.74325,-3.96387 3.27283,-6.04067 2.91246,-1.50609 3.19973,-1.49325 4.43658,0.19824 2.10903,2.88427 1.54912,5.25779 -1.62785,6.90067 -4.04367,2.09106 -4.94375,1.93444 -6.08156,-1.05824 z m 7.0319,-2.86442 c 0,-2.06974 -1.09809,-2.46409 -3.63841,-1.30664 -1.46695,0.66838 -2.22421,1.6706 -1.90023,2.51489 0.29625,0.77201 0.53864,1.82723 0.53864,2.34493 0,0.5177 1.125,0.20414 2.5,-0.6968 1.375,-0.90093 2.5,-2.18631 2.5,-2.85638 z m 19.97525,-13.11676 c -2.72513,-5.53325 7.48659,-8.05616 8.65645,-3.76618 1.31535,5.24075 -6.76004,8.75412 -8.65645,3.76618 z m 7.02475,-2.59542 c 0,-2.05671 -1.23193,-2.3209 -3.97554,-0.85257 -1.17629,0.62953 -1.65974,1.69177 -1.33506,2.93336 0.43456,1.66174 0.86018,1.78645 2.9098,0.85258 1.32044,-0.60164 2.4008,-1.92165 2.4008,-2.93337 z m 7.03518,-3.77374 c -1.78074,-3.32734 -1.15438,-5.04126 2.47483,-6.77191 3.74088,-1.7839 4.7947,-1.35191 5.93799,2.43414 0.54351,1.79986 0.0367,2.61579 -2.6376,4.24626 -4.08996,2.49358 -4.48631,2.49986 -5.77522,0.0915 z m 6.89453,-2.97626 c -0.0387,-0.32421 -0.37615,-1.35258 -0.75,-2.28526 -0.63283,-1.57883 -0.84566,-1.57041 -3.0858,0.12204 -3.34827,2.52964 -2.27991,5.57124 1.37237,3.90715 1.39355,-0.63494 2.50209,-1.41971 2.46343,-1.74393 z m 6.03839,-5.6734 c -1.18863,-3.12632 -0.74031,-3.96539 3.21021,-6.00829 3.22214,-1.66623 4.19181,-1.25178 5.24479,2.24171 0.48231,1.60017 -0.0346,2.68632 -2.02247,4.25 -3.53175,2.77808 -5.24137,2.6496 -6.43253,-0.48342 z m 5.3952,-0.69246 c 1.08405,-0.79268 1.49756,-1.92263 1.09116,-2.98169 -0.53595,-1.39667 -1.04351,-1.50312 -2.80442,-0.58816 -2.87865,1.49572 -2.78028,1.34325 -2.06659,3.2031 0.75874,1.97724 1.48147,2.04736 3.77985,0.36675 z m 7.61195,-6.28872 c -1.43033,-3.76206 -1.31554,-4.03657 2.67175,-6.38913 3.92607,-2.31644 4.7502,-2.01064 5.72266,2.12343 0.53263,2.26426 0.11711,2.98487 -2.73892,4.75 -4.26003,2.63284 -4.47743,2.61423 -5.65549,-0.4843 z m 6.34392,-2.19028 c 0.23681,-0.40954 0.14938,-1.50772 -0.1943,-2.4404 -0.58533,-1.5885 -0.77031,-1.58589 -2.92365,0.0411 -2.86121,2.16183 -2.13417,5.72436 0.84305,4.131 1.01439,-0.54289 2.0381,-1.32215 2.2749,-1.7317 z m -121.70926,-3.23057 c -6.06161,-6.48035 -10.00721,-14.90293 -10.06572,-21.48705 -0.0615,-6.9237 2.193,-7.19564 8.46219,-1.02071 6.59162,6.4925 10.46083,14.42119 10.47923,21.47373 0.02,7.68648 -2.39043,7.96731 -8.8757,1.03403 z m 6.94491,-4.57353 c -1.27719,-6.808 -8.68709,-17.77282 -13.94251,-20.63147 -1.76199,-0.95842 -1.85515,-0.68818 -1.3991,4.05806 0.65656,6.83298 5.84016,17.04285 11.04647,21.75769 l 4.24032,3.84004 0.33166,-2.89036 c 0.18242,-1.58969 0.0578,-4.34997 -0.27684,-6.13396 z m 121.11153,1.80948 c -0.67137,-3.25731 2.43407,-6.52168 5.75293,-6.04737 3.09648,0.44254 3.35549,4.69558 0.42332,6.95099 -3.39995,2.61522 -5.51475,2.30581 -6.17625,-0.90362 z m 5.21267,-0.40652 c 1.09847,-0.68601 1.65829,-1.89679 1.37605,-2.97611 -0.39604,-1.51444 -0.83466,-1.63317 -2.61545,-0.70802 -2.86669,1.48928 -2.76961,1.33832 -2.05617,3.19752 0.7505,1.95576 0.90626,1.97876 3.29557,0.48661 z m 8.15616,-5.77774 c -1.78547,-3.33619 -1.1517,-5.04253 2.52392,-6.79531 3.094,-1.47543 3.68005,-1.50598 4.48469,-0.23382 1.74459,2.75827 1.00709,5.50212 -1.94808,7.24778 -3.63319,2.14618 -3.79874,2.13903 -5.06053,-0.21865 z m 5.96482,-4.10092 c 0,-2.30971 -0.92418,-2.47196 -3.47135,-0.60943 -1.16082,0.84882 -1.61155,1.98619 -1.20597,3.04313 0.88126,2.2965 4.67732,0.32133 4.67732,-2.4337 z m 5.97525,-4.52992 c -1.29329,-3.40161 -1.38602,-3.17112 1.97509,-4.90922 4.20972,-2.17693 5.73828,-1.90245 6.50912,1.16882 0.53145,2.11748 0.17991,3.0764 -1.64159,4.47777 -3.27748,2.52153 -5.70296,2.26016 -6.84262,-0.73737 z m 6.58192,-1.52741 c 1.14742,-1.85656 -1.11695,-3.21346 -3.35961,-2.01322 -1.34724,0.72102 -1.84441,1.74019 -1.49698,3.06875 0.41324,1.58021 0.89725,1.7874 2.35411,1.00771 1.00866,-0.53982 2.13478,-1.46827 2.50248,-2.06324 z m 5.97475,-5.63634 c -0.53159,-2.118 -0.19528,-3.12533 1.50237,-4.5 3.20271,-2.5934 5.80721,-2.25085 6.58966,0.86668 0.51884,2.06722 0.1444,3.03585 -1.73095,4.47777 -3.42193,2.63106 -5.56002,2.34722 -6.36108,-0.84445 z m 5.26808,-0.47115 c 1.56865,-1.56865 1.53912,-3.80415 -0.05,-3.78469 -2.29116,0.0281 -4.04885,1.76353 -3.4271,3.38377 0.73197,1.90749 1.84249,2.03553 3.4771,0.40092 z m 7.10964,-6.53766 c -0.88994,-2.34072 -0.71681,-3.00007 1.19403,-4.54737 3.02999,-2.45354 6.30451,-1.86515 6.73893,1.21088 0.23102,1.63581 -0.42034,3.0127 -2,4.22777 -3.26074,2.50813 -4.72408,2.2883 -5.93296,-0.89128 z m 4.96938,-0.41886 c 1.09847,-0.68601 1.65829,-1.89679 1.37605,-2.97611 -0.39604,-1.51444 -0.83466,-1.63317 -2.61545,-0.70802 -2.86669,1.48928 -2.76961,1.33832 -2.05617,3.19752 0.7505,1.95576 0.90626,1.97876 3.29557,0.48661 z m 7.78765,-4.51015 c -1.64618,-1.64617 -0.58285,-6.04023 1.76587,-7.29723 3.19897,-1.71203 5.56746,-0.70132 5.56746,2.37581 0,3.4564 -5.265,6.98975 -7.33333,4.92142 z m 4.30887,-2.32024 c 1.19457,-0.63931 1.66085,-1.68753 1.32388,-2.97611 -0.4194,-1.6038 -0.88629,-1.79326 -2.4098,-0.9779 -1.03929,0.55621 -1.88962,1.89545 -1.88962,2.9761 0,2.23408 0.3893,2.36202 2.97554,0.97791 z m 7.69113,-4.67976 c -1.64618,-1.64617 -0.58285,-6.04023 1.76587,-7.29723 3.19897,-1.71203 5.56746,-0.70132 5.56746,2.37581 0,3.4564 -5.265,6.98975 -7.33333,4.92142 z m 4.30887,-2.32024 c 1.19457,-0.63931 1.66085,-1.68753 1.32388,-2.97611 -0.4194,-1.6038 -0.88629,-1.79326 -2.4098,-0.9779 -1.03929,0.55621 -1.88962,1.89545 -1.88962,2.9761 0,2.23408 0.3893,2.36202 2.97554,0.97791 z m 6.99256,-6.59701 c -1.20647,-3.17323 -0.84305,-3.81102 3.1028,-5.44545 2.60576,-1.07934 3.25941,-1.05979 4.00615,0.11979 1.50706,2.38066 1.02799,4.7226 -1.29956,6.35288 -3.15383,2.20902 -4.68169,1.93887 -5.80939,-1.02722 z m 4.45011,-0.0231 c 1.44511,-0.55454 2.3329,-4.39301 1.01605,-4.39301 -1.86746,0 -4.28022,2.23784 -3.79003,3.51525 0.65032,1.69472 0.64742,1.6938 2.77398,0.87776 z m 7.21208,-6.64301 c -0.91736,-3.4231 -0.84409,-3.58808 2.32005,-5.22432 4.04609,-2.09232 4.72794,-1.94364 5.51774,1.20317 0.53159,2.118 0.19528,3.12533 -1.50237,4.5 -2.99722,2.427 -5.6096,2.22955 -6.33542,-0.47885 z m 5.26543,-0.66439 c 0.78678,-0.49818 1.12047,-1.60104 0.76483,-2.52781 -0.50288,-1.31051 -1.03964,-1.42528 -2.64571,-0.56574 -2.07754,1.11186 -2.50879,2.18066 -1.34817,3.34127 0.87364,0.87365 1.53865,0.82263 3.22905,-0.24772 z m 6.71127,-5.6674 c -1.15345,-3.00584 -0.59535,-4.37287 2.42238,-5.9334 3.70062,-1.91366 4.97063,-1.26494 4.97063,2.53902 0,4.24029 -6.0096,6.9995 -7.39301,3.39438 z m 4.70071,-0.98279 c 0.869,-0.33347 1.26665,-1.34709 0.97141,-2.47611 -0.40025,-1.53056 -0.87648,-1.70998 -2.38949,-0.90023 -3.44928,1.84599 -2.22015,4.77246 1.41808,3.37634 z M 271.56614,338.88378 c 3.13215,-1.67628 2.66398,-10.91901 -0.93882,-18.53458 -4.23443,-8.95069 -11.5533,-16.43024 -16.07726,-16.43024 -1.71612,0 -1.19657,6.53232 0.98284,12.35731 2.67471,7.14881 7.02346,13.01848 12.51082,16.88633 5.05415,3.5625 6.06067,5.80891 1.37234,3.0629 -8.98502,-5.26265 -17.35936,-18.72002 -17.39551,-27.95419 -0.0175,-4.46257 -0.23905,-5.03099 -1.66497,-4.27111 -2.74711,1.46397 -4.00821,6.62924 -2.76262,11.31533 2.56085,9.63431 9.59018,19.50366 16.40744,23.03647 3.5331,1.8309 4.95196,1.93063 7.56574,0.53178 z m 24.18426,-16.22303 c 1.20357,-1.3503 1.77195,-3.72419 1.82029,-7.60257 0.0387,-3.10157 0.3767,-4.86695 0.75121,-3.92307 0.58272,1.46865 2.31717,0.69208 12.0262,-5.38448 11.02714,-6.90153 15.13986,-10.99847 15.14856,-15.09041 0.003,-1.52498 0.70152,-1.68516 5.25374,-1.2052 2.8875,0.30445 42.28056,3.46454 87.54014,7.02244 65.53782,5.15198 82.73948,6.22842 84.49734,5.28764 1.35753,-0.72652 1.72976,-1.34039 0.96695,-1.59466 -0.68214,-0.22738 -62.78094,-5.26981 -137.99734,-11.20539 -101.43137,-8.0043 -137.27371,-10.51672 -138.75709,-9.72638 -1.86781,0.99517 -1.80172,1.11569 1,1.82342 1.65,0.4168 16.05,1.7317 32,2.922 15.95,1.19029 29.26515,2.31942 29.58921,2.50916 0.32407,0.18975 6.39907,0.63527 13.5,0.99005 7.10094,0.35478 13.24829,0.8495 13.66079,1.09938 2.42775,1.47063 -0.40888,1.80883 -9.24315,1.10204 -9.6942,-0.77559 -10.11583,-0.72205 -14.09448,1.78956 -4.72859,2.98502 -6.30621,2.68624 -2.33017,-0.44132 1.47813,-1.1627 2.25527,-2.114 1.72697,-2.114 -0.5283,0 -1.98042,1.08562 -3.22695,2.41248 l -2.2664,2.41248 -4.80314,-2.41248 c -2.64172,-1.32686 -5.34794,-2.41248 -6.01382,-2.41248 -1.33681,0 -22.99886,12.83101 -22.99886,13.62283 0,0.27236 0.43678,0.22526 0.97063,-0.10468 3.19739,-1.97609 13.71819,8.45538 18.21108,18.05646 2.34766,5.01684 2.93449,7.49811 2.66452,11.26625 l -0.34623,4.83244 9.5,-5.98407 c 5.225,-3.29124 10.2875,-6.86759 11.25,-7.94744 z m 244.86011,-28.91164 c 8.7726,-6.14342 15.59912,-11.48095 15.17004,-11.86119 -0.42908,-0.38023 -3.70515,-1.41952 -7.28015,-2.30954 l -6.5,-1.61821 -5.80626,3.96767 -5.80625,3.96766 -38.44375,-9.61304 c -25.10195,-6.27686 -38.44374,-10.04923 -38.44374,-10.86993 0,-0.69129 2.02921,-2.57687 4.50935,-4.19018 l 4.50934,-2.9333 -7.57191,-1.78508 -7.57192,-1.78508 -5.42205,3.60003 c -2.98212,1.98002 -5.99146,3.60325 -6.68743,3.60717 -3.41858,0.0192 -127.76524,-31.59125 -127.76436,-32.47933 5.6e-4,-0.56529 2.36306,-2.36211 5.25,-3.99294 l 5.24898,-2.96513 -7,-1.60308 -7,-1.60308 -4.54517,2.56821 c -27.13037,15.32981 -96.67789,56.71785 -96.14608,57.21696 0.38019,0.35681 4.06625,0.85706 8.19125,1.11167 6.54349,0.40388 8.03249,0.16194 11.67528,-1.89711 l 4.17527,-2.36002 139.57957,10.99836 c 76.76876,6.0491 140.25239,10.99836 141.07472,10.99836 1.94436,0 1.94059,2.61509 -0.005,3.36163 -3.39033,1.30099 -1.09402,2.56803 5.25,2.89682 3.7125,0.19241 7.79848,0.43797 9.07996,0.54569 1.54773,0.1301 7.68492,-3.55419 18.28015,-10.97399 z M 429.25255,281.09204 c -20.76132,-5.32019 -37.74387,-10.12308 -37.73899,-10.67308 0.01,-1.13046 11.48853,-8.48574 13.3062,-8.52644 0.64935,-0.0145 17.94314,4.14189 38.43064,9.2365 23.71249,5.89657 37.25,9.70858 37.25,10.48918 0,1.23404 -11.1941,9.36729 -12.69513,9.22384 -0.44268,-0.0423 -17.7914,-4.4298 -38.55272,-9.75 z m 43.14539,3.90091 4.39754,-2.91745 -3.89754,-1.02949 c -2.14365,-0.56623 -18.2344,-4.61024 -35.75722,-8.9867 l -31.85968,-7.95719 -4.54313,2.88117 c -2.90837,1.84443 -4.03835,3.05695 -3.14032,3.36969 3.0858,1.07462 67.50478,17.42581 68.90281,17.4893 0.825,0.0375 3.47889,-1.24473 5.89754,-2.84933 z m -184.39754,4.92601 c 0.99549,-1.1 1.58498,-2 1.30998,-2 -0.275,0 -1.31449,0.9 -2.30998,2 -0.99549,1.1 -1.58498,2 -1.30998,2 0.275,0 1.31449,-0.9 2.30998,-2 z m -83.74705,-4.981 c 4.67341,-2.93476 4.70051,-2.98151 1.74705,-3.01365 -1.65,-0.018 -4.0125,-0.304 -5.25,-0.63564 -4.25349,-1.09428 -3.37185,3.79121 -1.74705,6.63029 0.27662,0 2.63912,-1.34145 5.25,-2.981 z m 329.38357,-4.72804 c 3.57366,-2.36494 3.85673,-2.80977 2.22856,-3.50205 -1.0258,-0.43615 -17.19428,-4.5317 -35.92997,-9.1012 l -34.06488,-8.3082 -3.68512,2.44554 c -2.02681,1.34505 -3.68511,2.72875 -3.68511,3.07488 0,0.5646 66.68984,17.77429 69.77144,18.00492 0.69929,0.0523 3.11358,-1.12392 5.36508,-2.61389 z m -281.55372,-33.86404 50.73958,-29.696 4.9151,1.13454 c 2.7033,0.624 5.73827,1.13454 6.74436,1.13454 1.00609,0 13.48083,-6.87077 27.72165,-15.26838 22.28368,-13.14037 29.5791,-18.11045 52.34445,-35.66026 17.90196,-13.80061 28.39144,-22.62846 32.45206,-27.31137 3.3,-3.80571 5.86123,-7.41239 5.69163,-8.01485 -0.16961,-0.60246 4.55479,-6.07908 10.49865,-12.17027 9.70453,-9.94506 9.42994,-9.73267 -2.69163,2.08194 -8.61146,8.39339 -18.02428,16.33528 -25.99865,21.93587 -6.875,4.82848 -18.33821,12.85791 -25.4738,17.84318 -7.13559,4.98528 -52.78504,32.27498 -101.44322,60.64379 -48.65818,28.36881 -88.66887,52.17801 -88.91265,52.90935 -0.28896,0.86689 0.95457,1.69191 1.9703,1.30212 0.85694,-0.32883 23.53541,-14.53139 51.44217,-30.8642 z m 190.4172,7.68238 c 0,-0.34371 -27.22488,-7.34743 -60.49974,-15.56382 l -60.49974,-14.93889 -3.72826,2.13069 c -2.05053,1.17187 -3.85456,2.50961 -4.00893,2.97274 -0.15438,0.46314 27.0405,7.63816 60.43307,15.94449 l 60.71377,15.10243 3.79491,-2.51136 c 2.08721,-1.38124 3.79492,-2.79257 3.79492,-3.13628 z M 233.92733,174.61287 219.12337,145.72293 c -8.14217,-15.88948 -14.56016,-29.52528 -14.26219,-30.30179 0.29798,-0.77651 2.4762,-2.38747 4.8405,-3.57993 2.3643,-1.19245 4.47179,-2.32336 4.68332,-2.51312 0.69817,-0.6263 -2.10661,-6.40914 -3.10854,-6.40914 -0.53972,0 -3.16027,1.22486 -5.82344,2.72191 -2.66318,1.49704 -5.02056,2.50954 -5.23862,2.24999 -0.91095,-1.08425 -18.714,-36.281093 -18.714,-36.997796 0,-0.430586 2.4837,-1.812318 5.51933,-3.070516 3.03562,-1.258198 5.38369,-2.538722 5.21791,-2.845609 -0.16578,-0.306887 -0.90483,-1.758444 -1.64235,-3.225682 l -1.34093,-2.667706 -16.12698,7.982701 -16.12698,7.9827 -0.31081,4.002732 c -0.28935,3.726488 -0.17312,3.929044 1.68426,2.935006 1.09729,-0.58725 2.73129,-1.067727 3.63111,-1.067727 1.4625,0 1.57677,1.458571 1.07724,13.75 -0.30734,7.562497 -0.82628,38.994697 -1.15318,69.849327 l -0.59438,56.09933 3.33288,2.13278 c 1.83308,1.17304 3.61087,2.02834 3.95063,1.90068 0.33976,-0.12766 13.18769,-7.19099 28.55096,-15.69628 l 27.93323,-15.46417 13.87486,-9.21624 m -62.73995,-65.6124 c -4.81973,-10.03367 -8.75723,-18.799049 -8.75,-19.478632 0.0121,-1.132663 10.82854,-7.264395 12.81452,-7.264395 1.1829,0 18.19863,35.167037 18.19863,37.611777 0,1.39713 -1.60898,2.7607 -5.52215,4.6799 -3.03719,1.48958 -6.07469,2.70518 -6.75,2.70135 -0.67532,-0.004 -5.17127,-8.21634 -9.991,-18.25 z m 15.98882,12.95387 4.22567,-2.21272 -8.42473,-17.25384 -8.42473,-17.253838 -4.55094,2.211016 c -2.50302,1.216059 -4.55094,2.505494 -4.55094,2.865411 0,1.384621 16.13307,33.944671 16.79793,33.901881 0.38614,-0.0249 2.60362,-1.04091 4.92774,-2.25791 z m -33.22567,87.12446 0.68562,-34.16067 c 0.3771,-18.78838 0.8271,-49.12343 1,-67.41123 0.17291,-18.287798 0.0629,-33.250298 -0.24449,-33.249999 -0.30738,2.98e-4 -1.40634,0.62023 -2.44215,1.377627 -1.76788,1.292705 -1.92764,3.820272 -2.6074,41.250002 -0.39827,21.93011 -0.99551,50.99148 -1.32721,64.58084 l -0.60309,24.70792 2.76936,1.45275 m 86.66123,-31.27058 -12.03285,4.6359 4.21695,-2.54714 m 9.72369,-7.81175 c 5.9239,-3.00788 5.91996,-2.98885 2.16572,-10.44377 -4.93642,-12.12 -12.34697,-23.53787 -17.45093,-33.40325 -6.66314,-12.9096 -12.52679,-23.72662 -13.03033,-24.03782 -0.96784,-0.59816 -8.98412,3.11666 -8.98412,4.16333 0,0.33707 6.525,13.32562 14.5,28.86343 4.88936,11.2216 12.27642,23.86042 17.31805,33.98306 1.34732,2.95706 1.37302,2.96116 5.48161,0.87502 z M 543.7504,129.69095 c 6.4625,-3.9748 11.75,-7.48452 11.75,-7.79938 0,-0.31486 -2.67347,-1.12466 -5.94105,-1.79957 -5.84931,-1.20816 -6.01856,-1.17941 -10.96058,1.86144 l -5.01953,3.08855 -23.28942,-5.06076 c -12.80918,-2.78342 -24.30192,-5.29467 -25.53942,-5.58057 -3.27167,-0.75585 -2.7448,-2.68661 1.37866,-5.05224 l 3.60907,-2.07052 -12.35439,-2.68143 -12.3544,-2.68142 -14.22924,14.20384 c -7.82608,7.81212 -14.13259,14.29954 -14.01447,14.41649 0.11812,0.11695 4.71477,0.50544 10.21477,0.86332 5.5,0.35787 24.175,1.68853 41.5,2.95701 46.71614,3.42042 41.37079,3.87173 55.25,-4.66476 z m -7.16259,-9.67896 3.13575,-1.90697 -7.36158,-1.61248 c -4.04887,-0.88686 -14.33658,-3.14079 -22.86158,-5.00874 l -15.5,-3.39625 -3.79866,2.12719 -3.79866,2.12719 21.29866,4.6952 c 11.71426,2.58236 22.30028,4.73719 23.52449,4.78851 1.22421,0.0513 3.63692,-0.76482 5.36158,-1.81365 z M 413.5004,103.95149 c 6.22332,-1.36034 9,-1.26724 9,0.30175 0,0.98434 4.91762,0.0398 18.75,-3.60126 10.3125,-2.714551 18.82472,-5.002481 18.91604,-5.084288 0.0913,-0.08181 1.51401,-5.180409 3.16151,-11.330228 l 2.99547,-11.181489 -3.16151,1.927751 c -4.04331,2.465431 -5.66151,2.444834 -5.66151,-0.07206 0,-1.669572 10.83757,-44.289505 11.3384,-44.589515 0.0889,-0.05324 2.4808,-1.338692 5.31537,-2.856557 4.86354,-2.604338 5.23669,-3.088887 6.626,-8.6042 l 1.47222,-5.844445 -6.83031,3.701001 -6.83031,3.701002 -16.79569,31.215915 c -11.17525,20.769959 -17.33305,31.227321 -18.4015,31.25 -1.60107,0.03398 -14.81326,-16.940454 -15.63672,-20.08937 -0.29278,-1.119623 0.88323,-2.389681 3.65544,-3.94775 2.24791,-1.263392 4.0871,-2.614361 4.0871,-3.002152 0,-0.387791 -0.88165,-1.767428 -1.95922,-3.065859 l -1.95922,-2.360784 -12.29078,6.380641 c -6.75993,3.509353 -12.59406,6.659353 -12.96474,7 -0.57673,0.529999 6.30038,37.276137 7.65338,40.893927 0.28088,0.75106 1.40983,1.06243 2.74862,0.75809 1.24958,-0.28406 4.29696,-0.95912 6.77196,-1.50012 z M 202.31834,84.093147 c -4.48107,-8.620807 -8.26087,-15.824295 -8.39956,-16.007752 -0.13869,-0.183456 -2.36029,0.59897 -4.9369,1.738726 l -4.68474,2.072282 2.48243,4.261275 c 1.36533,2.343701 5.22637,9.747515 8.58008,16.45292 l 6.09766,12.191642 4.50421,-2.51745 4.50421,-2.517448 z m 233.23111,-8.270338 2.0897,-4.096144 -2.55604,-3.653856 c -1.40582,-2.009621 -3.63397,-4.990797 -4.95144,-6.624836 l -2.39541,-2.970981 -3.62432,1.951824 c -1.99337,1.073502 -3.50894,2.201889 -3.36793,2.507526 0.43738,0.947998 12.21258,16.982611 12.47137,16.982611 0.1344,0 1.18474,-1.843265 2.33407,-4.096144 z m 36.85253,-25.60542 c 2.80413,-10.598695 5.09842,-19.719392 5.09842,-20.268217 0,-0.548824 -1.52965,-0.268421 -3.39923,0.623117 -3.33768,1.591627 -3.4748,1.912734 -7.57292,17.733821 -2.29552,8.862064 -4.79143,18.249713 -5.54645,20.861442 l -1.37277,4.748599 3.84727,-2.214204 3.84726,-2.214203 z"
         style="fill:#000000" />
      <ellipse
         ry="10.44095"
         rx="12.125455"
         cy="241.08966"
         cx="194.86676"
         id="path3973"
         style="fill:#cccccc;fill-rule:evenodd;stroke:#000000;stroke-width:1.45716572px;stroke-linecap:butt;stroke-linejoin:miter;stroke-opacity:1" />
      <path
         inkscape:connector-curvature="0"
         id="path4775"
         d="M 195.21871,230.98296 282.42793,59.289816"
         style="fill:none;fill-rule:evenodd;stroke:#000000;stroke-width:1;stroke-linecap:butt;stroke-linejoin:miter;stroke-miterlimit:4;stroke-dasharray:2, 1;stroke-dashoffset:0;stroke-opacity:1" />
      <text
         sodipodi:linespacing="125%"
         id="text4777"
         y="56.415764"
         x="223.05171"
         style="font-style:normal;font-weight:normal;font-size:40px;line-height:125%;font-family:sans-serif;letter-spacing:0px;word-spacing:0px;fill:#000000;fill-opacity:1;stroke:none;stroke-width:1px;stroke-linecap:butt;stroke-linejoin:miter;stroke-opacity:1"
         xml:space="preserve"><tspan
           style="font-size:15px"
           y="56.415764"
           x="223.05171"
           id="tspan4779"
           sodipodi:role="line">Center of Gravity</tspan></text>
      <path
         inkscape:connector-curvature="0"
         id="path4788"
         d="M 183.30084,239.66349 67.930315,156.99641"
         style="fill:none;fill-rule:evenodd;stroke:#000000;stroke-width:4.5;stroke-linecap:butt;stroke-linejoin:miter;stroke-miterlimit:4;stroke-dasharray:none;stroke-opacity:1;marker-end:url(#Arrow2Send)" />
      <path
         inkscape:connector-curvature="0"
         id="path5190"
         d="m 194.40389,251.12749 0.90843,120.82111"
         style="fill:none;fill-rule:evenodd;stroke:#000000;stroke-width:4.5;stroke-linecap:butt;stroke-linejoin:miter;stroke-miterlimit:4;stroke-dasharray:none;stroke-opacity:1;marker-end:url(#marker5198)" />
      <path
         inkscape:connector-curvature="0"
         id="path5519"
         d="M 185.42105,247.3354 -73.707747,410.87447"
         style="fill:none;fill-rule:evenodd;stroke:#000000;stroke-width:4.5;stroke-linecap:butt;stroke-linejoin:miter;stroke-miterlimit:4;stroke-dasharray:13.5, 4.5;stroke-dashoffset:0;stroke-opacity:1" />
      <path
         inkscape:connector-curvature="0"
         id="path5521"
         d="M 19.57862,350.98692 -69.101013,408.5711"
         style="fill:none;fill-rule:evenodd;stroke:#000000;stroke-width:4.5;stroke-linecap:butt;stroke-linejoin:miter;stroke-miterlimit:4;stroke-dasharray:none;stroke-opacity:1;marker-end:url(#marker5529)" />
      <text
         sodipodi:linespacing="125%"
         id="text5581"
         y="145.98724"
         x="19.578621"
         style="font-style:normal;font-weight:normal;font-size:40px;line-height:125%;font-family:sans-serif;letter-spacing:0px;word-spacing:0px;fill:#000000;fill-opacity:1;stroke:none;stroke-width:1px;stroke-linecap:butt;stroke-linejoin:miter;stroke-opacity:1"
         xml:space="preserve"><tspan
           style="font-size:15px"
           y="145.98724"
           x="19.578621"
           id="tspan5583"
           sodipodi:role="line">Pitch axis</tspan></text>
      <text
         sodipodi:linespacing="125%"
         id="text5585"
         y="392.44754"
         x="162.38739"
         style="font-style:normal;font-weight:normal;font-size:40px;line-height:125%;font-family:sans-serif;letter-spacing:0px;word-spacing:0px;fill:#000000;fill-opacity:1;stroke:none;stroke-width:1px;stroke-linecap:butt;stroke-linejoin:miter;stroke-opacity:1"
         xml:space="preserve"><tspan
           style="font-size:15px"
           y="392.44754"
           x="162.38739"
           id="tspan5587"
           sodipodi:role="line">Yaw axis</tspan></text>
      <text
         sodipodi:linespacing="125%"
         id="text5589"
         y="342.92511"
         x="-47.219028"
         style="font-style:normal;font-weight:normal;font-size:40px;line-height:125%;font-family:sans-serif;letter-spacing:0px;word-spacing:0px;fill:#000000;fill-opacity:1;stroke:none;stroke-width:1px;stroke-linecap:butt;stroke-linejoin:miter;stroke-opacity:1"
         xml:space="preserve"><tspan
           style="font-size:15px"
           y="342.92511"
           x="-47.219028"
           id="tspan5591"
           sodipodi:role="line">Roll axis</tspan></text>
      <path
         d="m 159.60009,332.24464 a 37.429714,17.851095 0 0 1 35.47589,-12.35307 37.429714,17.851095 0 0 1 35.66096,12.23126 37.429714,17.851095 0 0 1 -13.26616,19.97073"
         sodipodi:open="true"
         sodipodi:end="0.93387158"
         sodipodi:start="3.4546698"
         sodipodi:ry="17.851095"
         sodipodi:rx="37.429714"
         sodipodi:cy="337.74255"
         sodipodi:cx="195.21036"
         sodipodi:type="arc"
         id="path7267"
         style="fill:none;stroke:#000000;stroke-width:4.5;stroke-miterlimit:4;stroke-dasharray:none;stroke-dashoffset:0;stroke-opacity:1;marker-end:url(#marker7275)" />
      <path
         d="m -8.0903479,390.43335 a 27.640406,36.853874 0 0 1 -24.4069901,26.09773 27.640406,36.853874 0 0 1 -27.037479,-20.98846 27.640406,36.853874 0 0 1 4.972045,-41.18454"
         sodipodi:open="true"
         sodipodi:end="3.9027733"
         sodipodi:start="0.29328297"
         sodipodi:ry="36.853874"
         sodipodi:rx="27.640406"
         sodipodi:cy="379.77902"
         sodipodi:cx="-34.550507"
         sodipodi:type="arc"
         id="path7333"
         style="fill:none;stroke:#000000;stroke-width:4.5;stroke-miterlimit:4;stroke-dasharray:none;stroke-dashoffset:0;stroke-opacity:1;marker-start:url(#Arrow1Sstart)" />
      <path
         d="m 114.07281,147.96289 a 34.550507,35.126347 0 0 1 1.3922,36.31992 34.550507,35.126347 0 0 1 -30.987347,18.12872 34.550507,35.126347 0 0 1 -30.18759,-19.47357"
         sodipodi:open="true"
         sodipodi:end="2.6799944"
         sodipodi:start="5.7004455"
         sodipodi:ry="35.126347"
         sodipodi:rx="34.550507"
         sodipodi:cy="167.2934"
         sodipodi:cx="85.224586"
         sodipodi:type="arc"
         id="path7777"
         style="fill:none;stroke:#000000;stroke-width:4.5;stroke-miterlimit:4;stroke-dasharray:none;stroke-dashoffset:0;stroke-opacity:1;marker-end:url(#marker7785)" />
    </g>
  </g>
</svg>
