<?xml version="1.0" encoding="UTF-8" standalone="no"?>
<!-- Created with Inkscape (http://www.inkscape.org/) -->

<svg
   xmlns:dc="http://purl.org/dc/elements/1.1/"
   xmlns:cc="http://creativecommons.org/ns#"
   xmlns:rdf="http://www.w3.org/1999/02/22-rdf-syntax-ns#"
   xmlns:svg="http://www.w3.org/2000/svg"
   xmlns="http://www.w3.org/2000/svg"
   xmlns:sodipodi="http://sodipodi.sourceforge.net/DTD/sodipodi-0.dtd"
   xmlns:inkscape="http://www.inkscape.org/namespaces/inkscape"
   width="744.09448819"
   height="1052.3622047"
   id="svg2"
   version="1.1"
   inkscape:version="0.91 r13725"
   sodipodi:docname="ransac.svg">
  <defs
     id="defs4">
    <marker
       inkscape:stockid="Arrow1Mend"
       orient="auto"
       refY="0.0"
       refX="0.0"
       id="Arrow1Mend"
       style="overflow:visible;">
      <path
         id="path3926"
         d="M 0.0,0.0 L 5.0,-5.0 L -12.5,0.0 L 5.0,5.0 L 0.0,0.0 z "
         style="fill-rule:evenodd;stroke:#000000;stroke-width:1.0pt;"
         transform="scale(0.4) rotate(180) translate(10,0)" />
    </marker>
    <marker
       inkscape:stockid="Arrow1Mstart"
       orient="auto"
       refY="0.0"
       refX="0.0"
       id="Arrow1Mstart"
       style="overflow:visible">
      <path
         id="path3923"
         d="M 0.0,0.0 L 5.0,-5.0 L -12.5,0.0 L 5.0,5.0 L 0.0,0.0 z "
         style="fill-rule:evenodd;stroke:#000000;stroke-width:1.0pt"
         transform="scale(0.4) translate(10,0)" />
    </marker>
    <marker
       inkscape:stockid="Arrow1Mend"
       orient="auto"
       refY="0"
       refX="0"
       id="Arrow1Mend-2"
       style="overflow:visible">
      <path
         inkscape:connector-curvature="0"
         id="path3926-2"
         d="M 0,0 5,-5 -12.5,0 5,5 0,0 z"
         style="fill-rule:evenodd;stroke:#000000;stroke-width:1pt"
         transform="matrix(-0.4,0,0,-0.4,-4,0)" />
    </marker>
    <marker
       inkscape:stockid="Arrow1Mend"
       orient="auto"
       refY="0"
       refX="0"
       id="Arrow1Mend-6"
       style="overflow:visible">
      <path
         inkscape:connector-curvature="0"
         id="path3926-8"
         d="M 0,0 5,-5 -12.5,0 5,5 0,0 z"
         style="fill-rule:evenodd;stroke:#000000;stroke-width:1pt"
         transform="matrix(-0.4,0,0,-0.4,-4,0)" />
    </marker>
  </defs>
  <sodipodi:namedview
     id="base"
     pagecolor="#ffffff"
     bordercolor="#666666"
     borderopacity="1.0"
     inkscape:pageopacity="0.0"
     inkscape:pageshadow="2"
     inkscape:zoom="2.8714286"
     inkscape:cx="120.5"
     inkscape:cy="949"
     inkscape:document-units="px"
     inkscape:current-layer="layer1"
     showgrid="false"
     inkscape:window-width="1440"
     inkscape:window-height="805"
     inkscape:window-x="0"
     inkscape:window-y="0"
     inkscape:window-maximized="1" />
  <metadata
     id="metadata7">
    <rdf:RDF>
      <cc:Work
         rdf:about="">
        <dc:format>image/svg+xml</dc:format>
        <dc:type
           rdf:resource="http://purl.org/dc/dcmitype/StillImage" />
        <dc:title />
      </cc:Work>
    </rdf:RDF>
  </metadata>
  <g
     inkscape:label="Layer 1"
     inkscape:groupmode="layer"
     id="layer1">
    <g
       id="g3081"
       inkscape:export-filename="C:\Users\correll\Desktop\work\books\Introduction-to-Autonomous-Robots\figs\splitandmerge.png"
       inkscape:export-xdpi="600.2149"
       inkscape:export-ydpi="600.2149"
       transform="translate(-18.865672,-14.78607)">
      <path
         transform="matrix(0.03231037,0,0,0.03231037,73.354163,126.16148)"
         sodipodi:open="true"
         sodipodi:end="5.2482007"
         sodipodi:start="5.2803462"
         d="M 270.66678,61.221897 A 91.597702,91.597702 0 0 1 299.00583,187.0882 91.597702,91.597702 0 0 1 173.37133,216.43783 91.597702,91.597702 0 0 1 143.01301,91.043256 91.597702,91.597702 0 0 1 268.15957,59.678208"
         sodipodi:ry="91.597702"
         sodipodi:rx="91.597702"
         sodipodi:cy="138.4389"
         sodipodi:cx="221.39536"
         id="path2987"
         style="fill:#000000;stroke:#000000"
         sodipodi:type="arc" />
      <path
         transform="matrix(0.03231037,0,0,0.03231037,85.711026,111.44762)"
         sodipodi:open="true"
         sodipodi:end="5.2482007"
         sodipodi:start="5.2803462"
         d="M 270.66678,61.221897 A 91.597702,91.597702 0 0 1 299.00583,187.0882 91.597702,91.597702 0 0 1 173.37133,216.43783 91.597702,91.597702 0 0 1 143.01301,91.043256 91.597702,91.597702 0 0 1 268.15957,59.678208"
         sodipodi:ry="91.597702"
         sodipodi:rx="91.597702"
         sodipodi:cy="138.4389"
         sodipodi:cx="221.39536"
         id="path2987-1"
         style="fill:#000000;stroke:#000000"
         sodipodi:type="arc" />
      <path
         transform="matrix(0.03231037,0,0,0.03231037,98.78623,104.05831)"
         sodipodi:open="true"
         sodipodi:end="5.2482007"
         sodipodi:start="5.2803462"
         d="M 270.66678,61.221897 A 91.597702,91.597702 0 0 1 299.00583,187.0882 91.597702,91.597702 0 0 1 173.37133,216.43783 91.597702,91.597702 0 0 1 143.01301,91.043256 91.597702,91.597702 0 0 1 268.15957,59.678208"
         sodipodi:ry="91.597702"
         sodipodi:rx="91.597702"
         sodipodi:cy="138.4389"
         sodipodi:cx="221.39536"
         id="path2987-7"
         style="fill:#000000;stroke:#000000"
         sodipodi:type="arc" />
      <path
         transform="matrix(0.03231037,0,0,0.03231037,110.78623,90.05831)"
         sodipodi:open="true"
         sodipodi:end="5.2482007"
         sodipodi:start="5.2803462"
         d="M 270.66678,61.221897 A 91.597702,91.597702 0 0 1 299.00583,187.0882 91.597702,91.597702 0 0 1 173.37133,216.43783 91.597702,91.597702 0 0 1 143.01301,91.043256 91.597702,91.597702 0 0 1 268.15957,59.678208"
         sodipodi:ry="91.597702"
         sodipodi:rx="91.597702"
         sodipodi:cy="138.4389"
         sodipodi:cx="221.39536"
         id="path2987-4"
         style="fill:#000000;stroke:#000000"
         sodipodi:type="arc" />
      <path
         transform="matrix(0.03231037,0,0,0.03231037,126.78623,80.05831)"
         sodipodi:open="true"
         sodipodi:end="5.2482007"
         sodipodi:start="5.2803462"
         d="M 270.66678,61.221897 A 91.597702,91.597702 0 0 1 299.00583,187.0882 91.597702,91.597702 0 0 1 173.37133,216.43783 91.597702,91.597702 0 0 1 143.01301,91.043256 91.597702,91.597702 0 0 1 268.15957,59.678208"
         sodipodi:ry="91.597702"
         sodipodi:rx="91.597702"
         sodipodi:cy="138.4389"
         sodipodi:cx="221.39536"
         id="path2987-0"
         style="fill:#000000;stroke:#000000"
         sodipodi:type="arc" />
      <path
         transform="matrix(0.03231037,0,0,0.03231037,144.78623,86.05831)"
         sodipodi:open="true"
         sodipodi:end="5.2482007"
         sodipodi:start="5.2803462"
         d="M 270.66678,61.221897 A 91.597702,91.597702 0 0 1 299.00583,187.0882 91.597702,91.597702 0 0 1 173.37133,216.43783 91.597702,91.597702 0 0 1 143.01301,91.043256 91.597702,91.597702 0 0 1 268.15957,59.678208"
         sodipodi:ry="91.597702"
         sodipodi:rx="91.597702"
         sodipodi:cy="138.4389"
         sodipodi:cx="221.39536"
         id="path2987-9"
         style="fill:#000000;stroke:#000000"
         sodipodi:type="arc" />
      <path
         transform="matrix(0.03231037,0,0,0.03231037,152.78623,96.05831)"
         sodipodi:open="true"
         sodipodi:end="5.2482007"
         sodipodi:start="5.2803462"
         d="M 270.66678,61.221897 A 91.597702,91.597702 0 0 1 299.00583,187.0882 91.597702,91.597702 0 0 1 173.37133,216.43783 91.597702,91.597702 0 0 1 143.01301,91.043256 91.597702,91.597702 0 0 1 268.15957,59.678208"
         sodipodi:ry="91.597702"
         sodipodi:rx="91.597702"
         sodipodi:cy="138.4389"
         sodipodi:cx="221.39536"
         id="path2987-9-4"
         style="fill:#000000;stroke:#000000"
         sodipodi:type="arc" />
      <path
         transform="matrix(0.03231037,0,0,0.03231037,168.78623,100.05831)"
         sodipodi:open="true"
         sodipodi:end="5.2482007"
         sodipodi:start="5.2803462"
         d="M 270.66678,61.221897 A 91.597702,91.597702 0 0 1 299.00583,187.0882 91.597702,91.597702 0 0 1 173.37133,216.43783 91.597702,91.597702 0 0 1 143.01301,91.043256 91.597702,91.597702 0 0 1 268.15957,59.678208"
         sodipodi:ry="91.597702"
         sodipodi:rx="91.597702"
         sodipodi:cy="138.4389"
         sodipodi:cx="221.39536"
         id="path2987-9-8"
         style="fill:#000000;stroke:#000000"
         sodipodi:type="arc" />
      <path
         transform="matrix(0.03231037,0,0,0.03231037,176.78623,112.05831)"
         sodipodi:open="true"
         sodipodi:end="5.2482007"
         sodipodi:start="5.2803462"
         d="M 270.66678,61.221897 A 91.597702,91.597702 0 0 1 299.00583,187.0882 91.597702,91.597702 0 0 1 173.37133,216.43783 91.597702,91.597702 0 0 1 143.01301,91.043256 91.597702,91.597702 0 0 1 268.15957,59.678208"
         sodipodi:ry="91.597702"
         sodipodi:rx="91.597702"
         sodipodi:cy="138.4389"
         sodipodi:cx="221.39536"
         id="path2987-9-82"
         style="fill:#000000;stroke:#000000"
         sodipodi:type="arc" />
      <path
         transform="matrix(0.03231037,0,0,0.03231037,190.78623,118.05831)"
         sodipodi:open="true"
         sodipodi:end="5.2482007"
         sodipodi:start="5.2803462"
         d="M 270.66678,61.221897 A 91.597702,91.597702 0 0 1 299.00583,187.0882 91.597702,91.597702 0 0 1 173.37133,216.43783 91.597702,91.597702 0 0 1 143.01301,91.043256 91.597702,91.597702 0 0 1 268.15957,59.678208"
         sodipodi:ry="91.597702"
         sodipodi:rx="91.597702"
         sodipodi:cy="138.4389"
         sodipodi:cx="221.39536"
         id="path2987-9-45"
         style="fill:#000000;stroke:#000000"
         sodipodi:type="arc" />
    </g>
    <path
       style="fill:none;stroke:#cccccc;stroke-width:1px;stroke-linecap:butt;stroke-linejoin:miter;stroke-opacity:1"
       d="M 51.393034,120.62586 221.1194,69.884571"
       id="path3028"
       inkscape:connector-curvature="0"
       sodipodi:nodetypes="cc"
       inkscape:export-xdpi="600.2149"
       inkscape:export-ydpi="600.2149" />
    <path
       style="fill:none;stroke:#4d4d4d;stroke-width:1px;stroke-linecap:butt;stroke-linejoin:miter;stroke-opacity:1"
       d="m 101.23383,59.45671 88.22388,56.51741"
       id="path3030"
       inkscape:connector-curvature="0"
       sodipodi:nodetypes="cc"
       inkscape:export-xdpi="600.2149"
       inkscape:export-ydpi="600.2149" />
    <path
       style="fill:none;stroke:#000000;stroke-width:1px;stroke-linecap:butt;stroke-linejoin:miter;stroke-opacity:1"
       d="M 141.31343,36.193028 50.497512,129.198"
       id="path3032"
       inkscape:connector-curvature="0"
       sodipodi:nodetypes="cc"
       inkscape:export-xdpi="600.2149"
       inkscape:export-ydpi="600.2149" />
    <path
       style="fill:none;stroke:#cccccc;stroke-width:1px;stroke-linecap:butt;stroke-linejoin:miter;stroke-opacity:1"
       d="M 193.43781,85.0587 66.283582,101.70546"
       id="path3036"
       inkscape:connector-curvature="0"
       sodipodi:nodetypes="cc"
       inkscape:export-xdpi="600.2149"
       inkscape:export-ydpi="600.2149" />
    <path
       style="fill:none;stroke:#b3b3b3;stroke-width:1px;stroke-linecap:butt;stroke-linejoin:miter;stroke-opacity:1"
       d="m 103.13433,35.576113 82,105.999997"
       id="path3038"
       inkscape:connector-curvature="0"
       inkscape:export-xdpi="600.2149"
       inkscape:export-ydpi="600.2149" />
    <path
       style="fill:#ececec;stroke:#b3b3b3;stroke-width:1px;stroke-linecap:butt;stroke-linejoin:miter;stroke-opacity:1"
       d="M 37.437811,91.003974 201.13433,62.093526"
       id="path3040"
       inkscape:connector-curvature="0"
       sodipodi:nodetypes="cc"
       inkscape:export-xdpi="600.2149"
       inkscape:export-ydpi="600.2149" />
    <path
       style="fill:none;stroke:#cccccc;stroke-width:1px;stroke-linecap:butt;stroke-linejoin:miter;stroke-opacity:1"
       d="M 47.527363,117.67562 184.97512,97.148249"
       id="path3044"
       inkscape:connector-curvature="0"
       sodipodi:nodetypes="cc"
       inkscape:export-xdpi="600.2149"
       inkscape:export-ydpi="600.2149" />
  </g>
</svg>
