<?xml version="1.0" encoding="UTF-8" standalone="no"?>
<svg
   width="100%"
   height="100%"
   viewBox="0 0 3267 4396"
   version="1.1"
   xml:space="preserve"
   style="fill-rule:evenodd;clip-rule:evenodd;stroke-linejoin:round;stroke-miterlimit:2;"
   id="svg98"
   sodipodi:docname="todd85.svg"
   inkscape:version="1.3.2 (091e20e, 2023-11-25, custom)"
   xmlns:inkscape="http://www.inkscape.org/namespaces/inkscape"
   xmlns:sodipodi="http://sodipodi.sourceforge.net/DTD/sodipodi-0.dtd"
   xmlns="http://www.w3.org/2000/svg"
   xmlns:svg="http://www.w3.org/2000/svg"><defs
     id="defs98" /><sodipodi:namedview
     id="namedview98"
     pagecolor="#ffffff"
     bordercolor="#000000"
     borderopacity="0.25"
     inkscape:showpageshadow="2"
     inkscape:pageopacity="0.0"
     inkscape:pagecheckerboard="0"
     inkscape:deskcolor="#d1d1d1"
     inkscape:zoom="0.19176524"
     inkscape:cx="2221.4662"
     inkscape:cy="2364.8707"
     inkscape:window-width="1920"
     inkscape:window-height="1120"
     inkscape:window-x="-11"
     inkscape:window-y="-11"
     inkscape:window-maximized="1"
     inkscape:current-layer="svg98" /><rect
     x="511.458"
     y="89.583"
     width="1312.5"
     height="8.333"
     id="rect1" /><rect
     x="1815.62"
     y="93.75"
     width="8.333"
     height="1312.5"
     id="rect2" /><rect
     x="507.292"
     y="1397.92"
     width="1312.5"
     height="8.333"
     id="rect3" /><rect
     x="507.292"
     y="89.583"
     width="8.333"
     height="1312.5"
     id="rect4" /><rect
     x="511.458"
     y="1397.92"
     width="1312.5"
     height="8.333"
     id="rect5" /><rect
     x="1815.62"
     y="1402.08"
     width="8.333"
     height="1312.5"
     id="rect6" /><rect
     x="507.292"
     y="2706.25"
     width="1312.5"
     height="8.333"
     id="rect7" /><rect
     x="507.292"
     y="1397.92"
     width="8.333"
     height="1312.5"
     id="rect8" /><rect
     x="511.458"
     y="2706.25"
     width="1312.5"
     height="8.333"
     id="rect9" /><rect
     x="1815.62"
     y="2710.42"
     width="8.333"
     height="1312.5"
     id="rect10" /><rect
     x="507.292"
     y="4014.58"
     width="1312.5"
     height="8.333"
     id="rect11" /><rect
     x="507.292"
     y="2706.25"
     width="8.333"
     height="1312.5"
     id="rect12" /><rect
     x="1819.79"
     y="89.583"
     width="1312.5"
     height="8.333"
     id="rect13" /><rect
     x="3123.96"
     y="93.75"
     width="8.333"
     height="1312.5"
     id="rect14" /><rect
     x="1815.62"
     y="1397.92"
     width="1312.5"
     height="8.333"
     id="rect15" /><rect
     x="1815.62"
     y="89.583"
     width="8.333"
     height="1312.5"
     id="rect16" /><rect
     x="1819.79"
     y="1397.92"
     width="1312.5"
     height="8.333"
     id="rect17" /><rect
     x="3123.96"
     y="1402.08"
     width="8.333"
     height="1312.5"
     id="rect18" /><rect
     x="1815.62"
     y="2706.25"
     width="1312.5"
     height="8.333"
     id="rect19" /><rect
     x="1815.62"
     y="1397.92"
     width="8.333"
     height="1312.5"
     id="rect20" /><rect
     x="1819.79"
     y="2706.25"
     width="1312.5"
     height="8.333"
     id="rect21" /><rect
     x="3123.96"
     y="2710.42"
     width="8.333"
     height="1312.5"
     id="rect22" /><rect
     x="1815.62"
     y="4014.58"
     width="1312.5"
     height="8.333"
     id="rect23" /><rect
     x="1815.62"
     y="2706.25"
     width="8.333"
     height="1312.5"
     id="rect24" /><path
     d="M539.583,3069.79l-23.958,23.958l48.958,48.958l23.959,-23.958"
     style="fill:#666;fill-rule:nonzero;"
     id="path24" /><path
     d="M1839.58,1770.83l23.959,-23.958l48.958,48.958l-23.958,23.959"
     style="fill:#666;fill-rule:nonzero;"
     id="path25" /><path
     d="M539.583,3069.79l48.959,48.958l1300,-1298.96l-48.959,-48.959"
     style="fill:#666;fill-rule:nonzero;"
     id="path26" /><path
     d="M558.333,2615.62l-23.958,23.958l48.958,48.959l23.959,-23.959"
     style="fill:#9b9b9b;fill-rule:nonzero;"
     id="path27" /><path
     d="M2144.79,1029.17l23.958,-23.959l48.958,48.959l-23.958,23.958"
     style="fill:#9b9b9b;fill-rule:nonzero;"
     id="path28" /><path
     d="M558.333,2615.62l48.959,48.958l1586.46,-1586.46l-48.958,-48.958"
     style="fill:#9b9b9b;fill-rule:nonzero;"
     id="path29" /><path
     d="M531.25,1901.04l-23.958,23.958l48.958,48.958l23.958,-23.958"
     style="fill:#b5b5b5;fill-rule:nonzero;"
     id="path30" /><path
     d="M1232.29,1200l23.958,-23.958l48.958,48.958l-23.958,23.958"
     style="fill:#b5b5b5;fill-rule:nonzero;"
     id="path31" /><path
     d="M531.25,1901.04l48.958,48.958l701.042,-701.042l-48.958,-48.958"
     style="fill:#b5b5b5;fill-rule:nonzero;"
     id="path32" /><path
     d="M531.25,2817.71l-23.958,23.959l48.958,48.958l23.958,-23.958"
     style="fill:#7f7f7f;fill-rule:nonzero;"
     id="path33" /><path
     d="M3060.42,287.5l23.958,-23.958l48.958,48.958l-23.958,23.958"
     style="fill:#7f7f7f;fill-rule:nonzero;"
     id="path34" /><path
     d="M531.25,2817.71l48.958,48.959l2529.17,-2530.21l-48.958,-48.958"
     style="fill:#7f7f7f;fill-rule:nonzero;"
     id="path35" /><path
     d="M1708.33,3951.04l-23.958,23.958l48.958,48.958l23.959,-23.958"
     style="fill:#4b4b4b;fill-rule:nonzero;"
     id="path36" /><path
     d="M3075,2584.38l23.958,-23.958l48.959,48.958l-23.959,23.958"
     style="fill:#4b4b4b;fill-rule:nonzero;"
     id="path37" /><path
     d="M1708.33,3951.04l48.959,48.958l1366.67,-1366.67l-48.958,-48.958"
     style="fill:#4b4b4b;fill-rule:nonzero;"
     id="path38" /><path
     d="M3132.29,1404.17l1.041,-4.167l-8.333,-3.125l-1.042,4.167"
     style="fill-rule:nonzero;"
     id="path39" /><path
     d="M3111.46,1465.62l-1.041,4.167l-8.334,-3.125l1.042,-4.167"
     style="fill-rule:nonzero;"
     id="path40" /><path
     d="M3132.29,1404.17l-8.334,-3.125l-20.833,61.458l8.333,3.125"
     style="fill-rule:nonzero;"
     id="path41" /><path
     d="M3075,1577.08l1.042,-4.166l-8.334,-3.125l-1.041,4.166"
     id="path42" /><path
     d="M3032.29,1704.17l-1.042,4.166l-8.333,-3.125l1.041,-4.166"
     id="path43" /><path
     d="M3075,1577.08l-8.333,-3.125l-42.709,127.084l8.334,3.125"
     id="path44" /><path
     d="M2995.83,1814.58l1.042,-4.166l-8.333,-3.125l-1.042,4.166"
     id="path45" /><path
     d="M2953.12,1942.71l-1.042,4.167l-8.333,-3.125l1.042,-4.167"
     id="path46" /><path
     d="M2995.83,1814.58l-8.333,-3.125l-42.708,128.125l8.333,3.125"
     id="path47" /><path
     d="M2916.67,2053.12l1.041,-4.167l-8.333,-3.125l-1.042,4.167"
     id="path48" /><path
     d="M2873.96,2180.21l-1.041,4.167l-8.334,-3.125l1.042,-4.167"
     id="path49" /><path
     d="M2916.67,2053.12l-8.334,-3.125l-42.708,127.083l8.333,3.125"
     id="path50" /><path
     d="M2836.46,2291.67l1.042,-4.167l-8.333,-3.125l-1.042,4.167"
     id="path51" /><path
     d="M2793.75,2418.75l-1.042,4.167l-8.333,-3.125l1.042,-4.167"
     id="path52" /><path
     d="M2836.46,2291.67l-8.333,-3.125l-42.708,127.083l8.333,3.125"
     id="path53" /><path
     d="M2757.29,2529.17l1.041,-4.167l-8.333,-3.125l-1.042,4.167"
     id="path54" /><path
     d="M2714.58,2657.29l-1.041,4.166l-8.334,-3.125l1.042,-4.166"
     id="path55" /><path
     d="M2757.29,2529.17l-8.334,-3.125l-42.708,128.125l8.333,3.125"
     id="path56" /><path
     d="M2678.12,2767.71l1.042,-4.166l-8.334,-3.125l-1.041,4.166"
     id="path57" /><path
     d="M2635.42,2895.83l-1.042,4.167l-8.333,-3.125l1.041,-4.167"
     id="path58" /><path
     d="M2678.12,2767.71l-8.333,-3.125l-42.709,128.125l8.334,3.125"
     id="path59" /><path
     d="M2598.96,3006.25l1.042,-4.167l-8.333,-3.125l-1.042,4.167"
     id="path60" /><path
     d="M2556.25,3133.33l-1.042,4.167l-8.333,-3.125l1.042,-4.167"
     id="path61" /><path
     d="M2598.96,3006.25l-8.333,-3.125l-42.708,127.083l8.333,3.125"
     id="path62" /><path
     d="M2518.75,3244.79l1.042,-4.167l-8.334,-3.125l-1.041,4.167"
     id="path63" /><path
     d="M2476.04,3371.88l-1.042,4.167l-8.333,-3.125l1.041,-4.167"
     id="path64" /><path
     d="M2518.75,3244.79l-8.333,-3.125l-42.709,127.083l8.334,3.125"
     id="path65" /><path
     d="M2439.58,3482.29l1.042,-4.167l-8.333,-3.125l-1.042,4.167"
     id="path66" /><path
     d="M2396.88,3610.42l-1.042,4.166l-8.333,-3.125l1.042,-4.166"
     id="path67" /><path
     d="M2439.58,3482.29l-8.333,-3.125l-42.708,128.125l8.333,3.125"
     id="path68" /><path
     d="M2360.42,3720.83l1.041,-4.166l-8.333,-3.125l-1.042,4.166"
     id="path69" /><path
     d="M2317.71,3848.96l-1.041,4.167l-8.334,-3.125l1.042,-4.167"
     id="path70" /><path
     d="M2360.42,3720.83l-8.334,-3.125l-42.708,128.125l8.333,3.125"
     id="path71" /><path
     d="M2281.25,3959.38l1.042,-4.167l-8.334,-3.125l-1.041,4.167"
     style="fill-rule:nonzero;"
     id="path72" /><path
     d="M2260.42,4020.83l-1.042,4.167l-8.333,-3.125l1.041,-4.167"
     style="fill-rule:nonzero;"
     id="path73" /><path
     d="M2281.25,3959.38l-8.333,-3.125l-20.834,61.458l8.334,3.125"
     style="fill-rule:nonzero;"
     id="path74" /><text
     x="481.25px"
     y="4159.38px"
     style="font-family:'TimesNewRomanPSMT', 'Times New Roman';font-size:153.125px;"
     id="text74">1</text><text
     x="1753.11px"
     y="4167.67px"
     style="font-family:'TimesNewRomanPSMT', 'Times New Roman';font-size:153.125px;"
     id="text75">10</text><text
     x="3012.72px"
     y="4167.64px"
     style="font-family:'TimesNewRomanPSMT', 'Times New Roman';font-size:153.333px;"
     id="text76">100</text><text
     x="211.446px"
     y="137.396px"
     style="font-family:'TimesNewRomanPSMT', 'Times New Roman';font-size:153.125px;"
     id="text77">100</text><text
     x="288.467px"
     y="1456.1px"
     style="font-family:'TimesNewRomanPSMT', 'Times New Roman';font-size:153.125px;"
     id="text78">10</text><text
     x="365.488px"
     y="2764.4px"
     style="font-family:'TimesNewRomanPSMT', 'Times New Roman';font-size:153.125px;"
     id="text79">1</text><text
     x="249.879px"
     y="4029.07px"
     style="font-family:'TimesNewRomanPSMT', 'Times New Roman';font-size:153.125px;"
     id="text80">0.1</text><text
     x="136.458px"
     y="2536.46px"
     style="fill-rule:evenodd;clip-rule:evenodd;stroke-linejoin:round;stroke-miterlimit:2;font-family:'TimesNewRomanPSMT', 'Times New Roman';font-size:153.125px"
     id="text81"
     transform="rotate(-90,136.46,2536.46)">unit power (hp/ton)</text><text
     x="1281.25px"
     y="4341.67px"
     style="font-family:'TimesNewRomanPSMT', 'Times New Roman';font-size:153.125px;"
     id="text82">speed (miles/hour)</text><text
     x="672.919px"
     y="1660.41px"
     style="fill-rule:evenodd;clip-rule:evenodd;stroke-linejoin:round;stroke-miterlimit:2;font-family:'TimesNewRomanPSMT', 'Times New Roman';font-size:153.309px"
     id="text83"
     transform="matrix(0.707107,-0.707107,0.706259,0.706259,-975.588,963.556)">crawling/sliding</text><text
     x="1065.74px"
     y="2033.3px"
     style="fill-rule:evenodd;clip-rule:evenodd;stroke-linejoin:round;stroke-miterlimit:2;font-family:'TimesNewRomanPSMT', 'Times New Roman';font-size:153.304px"
     id="text84"
     transform="matrix(0.707107,-0.707107,0.706257,0.706257,-1123.88,1350.86)">running</text><text
     x="2347.92px"
     y="898.96px"
     style="fill-rule:evenodd;clip-rule:evenodd;stroke-linejoin:round;stroke-miterlimit:2;font-family:'TimesNewRomanPSMT', 'Times New Roman';font-size:153.121px"
     id="text86"
     transform="rotate(-45,2347.9202,898.96039)">tire on soft</text><text
     x="2621.87px"
     y="986.458px"
     style="fill-rule:evenodd;clip-rule:evenodd;stroke-linejoin:round;stroke-miterlimit:2;font-family:'TimesNewRomanPSMT', 'Times New Roman';font-size:153.304px"
     id="text87"
     transform="matrix(0.707107,-0.707107,0.706257,0.706257,71.2366,2143.71)">ground</text><text
     x="1973.96px"
     y="1725px"
     style="fill-rule:evenodd;clip-rule:evenodd;stroke-linejoin:round;stroke-miterlimit:2;font-family:'TimesNewRomanPSMT', 'Times New Roman';font-size:153.125px"
     id="text89"
     transform="rotate(-45,1973.9591,1724.9975)">walking</text><text
     x="2025.06px"
     y="3515.61px"
     style="fill-rule:evenodd;clip-rule:evenodd;stroke-linejoin:round;stroke-miterlimit:2;font-family:'TimesNewRomanPSMT', 'Times New Roman';font-size:153.125px"
     id="text91"
     transform="rotate(-45,2025.0683,3515.6183)">railway wheel</text><text
     x="2826.05px"
     y="2095.83px"
     style="fill-rule:evenodd;clip-rule:evenodd;stroke-linejoin:round;stroke-miterlimit:2;font-family:'Times New Roman';font-size:153.333px;-inkscape-font-specification:'Times New Roman, Normal';font-weight:normal;font-style:normal;font-stretch:normal;font-variant:normal;font-variant-ligatures:normal;font-variant-caps:normal;font-variant-numeric:normal;font-variant-east-asian:normal"
     id="text93"
     transform="rotate(-72.00048,2826.0482,2095.8325)"><tspan
       sodipodi:role="line"
       id="tspan98">flow</tspan></text></svg>
