<?xml version="1.0" encoding="UTF-8" standalone="no"?>
<svg
   xmlns:dc="http://purl.org/dc/elements/1.1/"
   xmlns:cc="http://creativecommons.org/ns#"
   xmlns:rdf="http://www.w3.org/1999/02/22-rdf-syntax-ns#"
   xmlns:svg="http://www.w3.org/2000/svg"
   xmlns="http://www.w3.org/2000/svg"
   xmlns:sodipodi="http://sodipodi.sourceforge.net/DTD/sodipodi-0.dtd"
   xmlns:inkscape="http://www.inkscape.org/namespaces/inkscape"
   width="395.59323"
   height="335.70831"
   id="svg13387"
   version="1.1"
   inkscape:version="1.0 (4035a4fb49, 2020-05-01)"
   sodipodi:docname="coordinatesystem.svg"
   viewBox="0 0 370.86864 314.72655">
  <defs
     id="defs13389">
    <marker
       inkscape:stockid="Arrow1Lstart"
       orient="auto"
       refY="0"
       refX="0"
       id="Arrow1Lstart"
       style="overflow:visible">
      <path
         id="path3925"
         d="M 0,0 5,-5 -12.5,0 5,5 Z"
         style="fill-rule:evenodd;stroke:#000000;stroke-width:1pt"
         transform="matrix(0.8,0,0,0.8,10,0)"
         inkscape:connector-curvature="0" />
    </marker>
    <marker
       inkscape:stockid="Arrow1Lend"
       orient="auto"
       refY="0"
       refX="0"
       id="Arrow1Lend"
       style="overflow:visible">
      <path
         id="path3813"
         d="M 0,0 5,-5 -12.5,0 5,5 Z"
         style="fill-rule:evenodd;stroke:#000000;stroke-width:1pt"
         transform="matrix(-0.8,0,0,-0.8,-10,0)"
         inkscape:connector-curvature="0" />
    </marker>
    <marker
       inkscape:stockid="Arrow1Lend"
       orient="auto"
       refY="0"
       refX="0"
       id="Arrow1Lend-1"
       style="overflow:visible">
      <path
         inkscape:connector-curvature="0"
         id="path3813-3"
         d="M 0,0 5,-5 -12.5,0 5,5 Z"
         style="fill-rule:evenodd;stroke:#000000;stroke-width:1pt"
         transform="matrix(-0.8,0,0,-0.8,-10,0)" />
    </marker>
    <marker
       inkscape:stockid="Arrow1Lend"
       orient="auto"
       refY="0"
       refX="0"
       id="Arrow1Lend-16"
       style="overflow:visible">
      <path
         inkscape:connector-curvature="0"
         id="path3813-38"
         d="M 0,0 5,-5 -12.5,0 5,5 Z"
         style="fill-rule:evenodd;stroke:#000000;stroke-width:1pt"
         transform="matrix(-0.8,0,0,-0.8,-10,0)" />
    </marker>
    <marker
       inkscape:stockid="Arrow1Lend"
       orient="auto"
       refY="0"
       refX="0"
       id="Arrow1Lend-16-8"
       style="overflow:visible">
      <path
         inkscape:connector-curvature="0"
         id="path3813-38-2"
         d="M 0,0 5,-5 -12.5,0 5,5 Z"
         style="fill-rule:evenodd;stroke:#000000;stroke-width:1pt"
         transform="matrix(-0.8,0,0,-0.8,-10,0)" />
    </marker>
  </defs>
  <sodipodi:namedview
     lock-margins="true"
     fit-margin-bottom="0"
     fit-margin-right="0"
     fit-margin-left="0"
     fit-margin-top="0"
     id="base"
     pagecolor="#ffffff"
     bordercolor="#666666"
     borderopacity="1.0"
     inkscape:pageopacity="0.0"
     inkscape:pageshadow="2"
     inkscape:zoom="0.5"
     inkscape:cx="199.11831"
     inkscape:cy="141.18478"
     inkscape:document-units="px"
     inkscape:current-layer="layer1"
     showgrid="false"
     inkscape:window-width="1762"
     inkscape:window-height="1006"
     inkscape:window-x="4726"
     inkscape:window-y="268"
     inkscape:window-maximized="0"
     inkscape:document-rotation="0" />
  <metadata
     id="metadata13392">
    <rdf:RDF>
      <cc:Work
         rdf:about="">
        <dc:format>image/svg+xml</dc:format>
        <dc:type
           rdf:resource="http://purl.org/dc/dcmitype/StillImage" />
        <dc:title></dc:title>
      </cc:Work>
    </rdf:RDF>
  </metadata>
  <g
     transform="translate(-72.419392,-78.552017)"
     inkscape:label="Layer 1"
     inkscape:groupmode="layer"
     id="layer1">
    <path
       style="fill:none;stroke:#000000;stroke-width:1px;stroke-linecap:butt;stroke-linejoin:miter;stroke-opacity:1;marker-end:url(#Arrow1Lend)"
       d="M 94.344164,387.13956 V 95.442808"
       id="path13395"
       inkscape:connector-curvature="0"
       inkscape:export-filename="C:\Users\correll\Desktop\work\books\Introduction-to-Autonomous-Robots\figs\coordinatesystem.png"
       inkscape:export-xdpi="301.0625"
       inkscape:export-ydpi="301.0625" />
    <path
       style="fill:none;stroke:#000000;stroke-width:1px;stroke-linecap:butt;stroke-linejoin:miter;stroke-opacity:1;marker-end:url(#Arrow1Lend)"
       d="M 82.791817,375.58721 H 426.47413"
       id="path13397"
       inkscape:connector-curvature="0"
       inkscape:export-filename="C:\Users\correll\Desktop\work\books\Introduction-to-Autonomous-Robots\figs\coordinatesystem.png"
       inkscape:export-xdpi="301.0625"
       inkscape:export-ydpi="301.0625" />
    <path
       style="fill:none;stroke:#000000;stroke-width:1px;stroke-linecap:butt;stroke-linejoin:miter;stroke-opacity:1;marker-end:url(#Arrow1Lend)"
       d="M 86.642599,383.28878 237.7858,232.14558"
       id="path13399"
       inkscape:connector-curvature="0"
       inkscape:export-filename="C:\Users\correll\Desktop\work\books\Introduction-to-Autonomous-Robots\figs\coordinatesystem.png"
       inkscape:export-xdpi="301.0625"
       inkscape:export-ydpi="301.0625" />
    <text
       xml:space="preserve"
       style="font-style:normal;font-weight:normal;line-height:0%;font-family:sans-serif;letter-spacing:0px;word-spacing:0px;fill:#000000;fill-opacity:1;stroke:none"
       x="431.2876"
       y="380.40067"
       id="text14093"
       inkscape:export-filename="C:\Users\correll\Desktop\work\books\Introduction-to-Autonomous-Robots\figs\coordinatesystem.png"
       inkscape:export-xdpi="301.0625"
       inkscape:export-ydpi="301.0625"><tspan
         sodipodi:role="line"
         id="tspan14095"
         x="431.2876"
         y="380.40067"
         style="font-size:18px;line-height:1.25;font-family:sans-serif">x</tspan></text>
    <text
       xml:space="preserve"
       style="font-style:normal;font-weight:normal;line-height:0%;font-family:sans-serif;letter-spacing:0px;word-spacing:0px;fill:#000000;fill-opacity:1;stroke:none"
       x="240.91879"
       y="223.59476"
       id="text14093-4"
       inkscape:export-filename="C:\Users\correll\Desktop\work\books\Introduction-to-Autonomous-Robots\figs\coordinatesystem.png"
       inkscape:export-xdpi="301.0625"
       inkscape:export-ydpi="301.0625"><tspan
         sodipodi:role="line"
         id="tspan14095-7"
         x="240.91879"
         y="223.59476"
         style="font-size:18px;line-height:1.25;font-family:sans-serif">y</tspan></text>
    <text
       xml:space="preserve"
       style="font-style:normal;font-weight:normal;line-height:0%;font-family:sans-serif;letter-spacing:0px;word-spacing:0px;fill:#000000;fill-opacity:1;stroke:none"
       x="90.211197"
       y="88.3694"
       id="text14118"
       inkscape:export-filename="C:\Users\correll\Desktop\work\books\Introduction-to-Autonomous-Robots\figs\coordinatesystem.png"
       inkscape:export-xdpi="301.0625"
       inkscape:export-ydpi="301.0625"><tspan
         sodipodi:role="line"
         id="tspan14120"
         x="90.211197"
         y="88.3694"
         style="font-size:18px;line-height:1.25;font-family:sans-serif">z</tspan></text>
    <path
       sodipodi:type="arc"
       style="fill:none;stroke:#000000;stroke-width:1.27777;marker-start:url(#Arrow1Lstart);marker-end:none"
       id="path14122"
       sodipodi:cx="282.06979"
       sodipodi:cy="377.5126"
       sodipodi:rx="27.918171"
       sodipodi:ry="30.064953"
       d="M 278.02799,407.26082 A 27.918171,30.064953 0 0 1 254.4934,382.20255 27.918171,30.064953 0 0 1 269.71185,350.55351"
       sodipodi:start="1.7160802"
       sodipodi:end="4.2538384"
       sodipodi:open="true"
       transform="matrix(0.84818603,0,0,0.722113,24.082612,96.835408)"
       inkscape:export-filename="C:\Users\correll\Desktop\work\books\Introduction-to-Autonomous-Robots\figs\coordinatesystem.png"
       inkscape:export-xdpi="301.0625"
       inkscape:export-ydpi="301.0625"
       sodipodi:arc-type="arc" />
    <path
       sodipodi:type="arc"
       style="fill:none;stroke:#000000;stroke-width:1.22496;marker-start:none;marker-end:url(#Arrow1Lend-16)"
       id="path14122-2"
       sodipodi:cx="282.06979"
       sodipodi:cy="377.5126"
       sodipodi:rx="27.918171"
       sodipodi:ry="30.064953"
       d="M 278.02799,407.26082 A 27.918171,30.064953 0 0 1 254.4934,382.20255 27.918171,30.064953 0 0 1 269.71185,350.55351"
       sodipodi:start="1.7160802"
       sodipodi:end="4.2538384"
       sodipodi:open="true"
       transform="matrix(-0.09990448,-0.91647118,-0.71708637,0.09254659,392.66114,491.22938)"
       inkscape:export-filename="C:\Users\correll\Desktop\work\books\Introduction-to-Autonomous-Robots\figs\coordinatesystem.png"
       inkscape:export-xdpi="301.0625"
       inkscape:export-ydpi="301.0625"
       sodipodi:arc-type="arc" />
    <path
       sodipodi:type="arc"
       style="fill:none;stroke:#000000;stroke-width:1.27777;marker-start:none;marker-end:url(#Arrow1Lend-16)"
       id="path14122-3"
       sodipodi:cx="282.06979"
       sodipodi:cy="377.5126"
       sodipodi:rx="27.918171"
       sodipodi:ry="30.064953"
       d="M 278.02799,407.26082 A 27.918171,30.064953 0 0 1 254.4934,382.20255 27.918171,30.064953 0 0 1 269.71185,350.55351"
       sodipodi:start="1.7160802"
       sodipodi:end="4.2538384"
       sodipodi:open="true"
       transform="matrix(-0.07644356,0.84473423,-0.71917427,-0.06508111,475.24044,87.859408)"
       inkscape:export-filename="C:\Users\correll\Desktop\work\books\Introduction-to-Autonomous-Robots\figs\coordinatesystem.png"
       inkscape:export-xdpi="301.0625"
       inkscape:export-ydpi="301.0625"
       sodipodi:arc-type="arc" />
    <path
       style="fill:#000000"
       d="m 297.48311,173.13402 c 2.57961,-1.71586 12.9034,-10.47802 14.19279,-12.04592 2.46308,-2.99511 3.3101,-4.76096 3.22353,-6.72024 -0.0686,-1.55308 0.22541,-2.52621 2.27966,-7.54474 1.29715,-3.16891 2.74785,-6.36081 3.22375,-7.0931 1.61293,-2.48179 3.08477,-4.07394 3.69151,-3.99326 0.45469,0.0605 0.72736,-0.32208 1.23045,-1.72613 1.10011,-3.07019 3.04212,-4.29532 7.90631,-4.98778 2.9147,-0.41494 5.59933,-0.25048 5.41793,0.33189 -0.0601,0.19088 0.2682,-0.004 0.72816,-0.43195 1.37198,-1.27829 3.97602,-1.49915 6.03036,-1.74826 2.90379,-0.35212 6.0845,0.28324 8.64402,0.96389 0.96418,0.2564 1.08898,0.41769 0.78916,-0.03 -0.25658,-0.38314 -0.21003,-1.81175 0.11732,-3.60062 0.9337,-5.10262 0.64989,-9.97632 -0.84099,-14.44175 -2.00428,-6.0031 -1.78862,-8.39083 0.93378,-10.338541 1.92948,-1.380403 5.97434,-1.149626 8.94298,0.510211 1.90343,1.0643 3.22787,2.94227 3.72964,5.2885 0.44437,2.07785 1.41847,6.2719 2.48557,10.70178 0.31162,1.29367 0.61533,3.45976 0.67488,4.81351 0.10981,2.49574 0.85999,3.96247 2.11182,4.12891 3.11366,0.41402 13.43102,-9.12384 18.95322,-17.52125 5.58571,-8.493989 7.90728,-11.287787 10.60187,-12.758382 1.65915,-0.905494 2.6607,-0.964892 3.91677,-0.232296 2.05504,1.19861 2.2582,3.269237 0.72915,7.431588 -1.68155,4.57714 -4.58784,9.19112 -13.45202,21.35518 -7.21159,9.89626 -8.85632,12.45803 -10.53797,16.41378 -1.21171,2.8503 -1.43536,3.71909 -1.29634,5.03501 0.24988,2.36441 1.01431,4.38804 1.83939,4.86928 1.93734,1.12995 7.63872,1.08134 22.63312,-0.19302 3.4138,-0.29013 18.00755,4.62285 20.16097,6.78718 1.48749,1.49502 1.36352,3.84282 -0.29823,5.64799 -0.78923,0.85736 -1.52871,0.91493 -3.06805,0.23885 -0.47464,-0.20844 -2.50425,-0.7445 -4.51029,-1.19122 -3.28366,-0.73124 -4.05596,-0.80532 -7.74548,-0.74297 -11.6424,0.19672 -25.49023,2.29436 -37.26512,5.64484 -5.46571,1.55522 -15.28695,5.16545 -19.07479,7.01175 -4.52928,2.20771 -13.47099,9.89065 -17.40975,14.95892 -0.96522,1.24202 -1.85886,2.23572 -1.98589,2.20819 -0.12702,-0.0275 -6.14747,-7.97625 -16.94531,-11.98101 -13.82657,-5.12808 -22.31233,-3.33845 -22.2694,-3.63253 0.0339,-0.23207 0.71408,-0.85591 1.51149,-1.38634 z m 23.27854,5.34084 c 10.07433,3.89089 13.70445,10.42538 13.93808,10.45643 0.23361,0.0311 0.65338,-0.27112 0.93276,-0.67154 1.57406,-2.25579 5.51884,-6.17767 10.19511,-10.13595 4.60878,-3.90114 5.74512,-4.69805 8.62037,-6.04524 3.65041,-1.71036 11.55509,-4.68472 16.63887,-6.26084 7.40332,-2.29521 20.09086,-4.81931 27.80048,-5.53071 11.91747,-1.09967 16.99424,-0.93492 23.01211,0.74679 3.4405,0.96147 3.55494,0.92906 4.33747,-1.22835 0.47578,-1.31155 0.41853,-1.56711 -0.60307,-2.6952 -1.67035,-1.8445 -9.20382,-4.86247 -15.02032,-6.01726 -2.52865,-0.50204 -2.57198,-0.49938 -3.09217,0.18945 -0.29017,0.38426 -0.68557,1.77721 -0.87876,3.09544 -1.52349,6.42049 -2.12682,-1.17156 -0.71759,-3.29438 0.26613,-0.3524 0.33038,-0.66063 0.1429,-0.68496 -0.18753,-0.0244 -2.84172,0.14793 -5.89816,0.38282 -15.36349,1.18065 -17.66101,0.79205 -18.84147,-3.18683 -1.14658,-3.86469 -0.23284,-7.13479 3.79,-13.56337 1.93583,-3.09354 1.93635,-2.9581 -0.0188,-4.99307 -0.85091,-1.25236 -8.04278,-2.92482 -6.18878,-3.56116 1.70801,-0.54304 5.64192,1.02798 7.74037,3.09116 1.2402,1.21935 1.26261,1.22753 1.70239,0.62054 0.2451,-0.33828 1.86011,-2.54579 3.58894,-4.90559 l 3.1433,-4.29053 -1.69386,-1.95472 c -1.09352,-1.26192 -2.10889,-2.07358 -2.86487,-2.29013 -1.18517,-0.33948 -1.37553,-1.05307 -0.31553,-1.18278 1.05759,-0.12942 2.66302,0.82574 4.22045,2.51097 l 1.54106,1.66752 1.29503,-1.81286 c 1.1245,-1.57414 2.12156,-3.0617 5.89184,-8.7904 0.46,-0.69895 0.57615,-1.08329 0.30628,-1.01383 -0.239,0.0615 -0.73485,-0.19668 -1.10188,-0.57379 -0.36705,-0.37711 -1.73311,-1.22461 -3.03573,-1.88333 -1.38311,-0.69942 -2.30703,-1.36885 -2.22094,-1.60913 0.0811,-0.2263 0.41921,-0.37533 0.75136,-0.33116 0.82027,0.10906 5.18047,2.33377 5.83217,2.97576 0.48846,0.48116 0.59056,0.39115 1.47524,-1.30074 1.2072,-2.30865 2.24399,-6.177029 1.91082,-7.1293 -0.40146,-1.147322 -1.37082,-2.181215 -2.14115,-2.283647 -2.05714,-0.273531 -5.85661,3.58438 -10.36756,10.527027 -4.8224,7.422 -8.81857,12.05318 -14.32601,16.60261 -5.04545,4.16774 -7.764,4.90407 -9.5555,2.58813 -0.48495,-0.62693 -0.94175,-0.97239 -1.01509,-0.76771 -0.17619,0.49174 -2.43391,1.425 -4.39184,1.81543 -2.23201,0.4451 -7.52631,-0.22239 -7.47648,-0.94265 0.0302,-0.43576 0.36697,-0.45747 2.56506,-0.16519 2.78953,0.37091 6.66638,-0.13763 7.77412,-1.01976 0.32564,-0.25933 0.84225,-0.43823 1.14803,-0.39757 1.03606,0.13776 0.48718,-5.13741 -1.09422,-10.51624 l -0.82744,-2.81435 -0.89147,0.59997 c -2.26945,1.14346 -5.18324,1.29922 -7.19694,0.90031 -1.21417,-0.24491 -2.59242,-0.59164 -3.06278,-0.77051 l -0.85522,-0.3252 0.49511,1.48036 c 0.2723,0.8142 0.5598,2.22364 0.63886,3.13208 0.13394,1.53881 0.2374,1.67596 1.51369,2.0062 3.24125,0.8387 7.86859,1.01369 9.1024,0.34433 0.87848,-0.47662 2.21207,-0.22364 1.84156,0.34934 -0.77773,1.20276 -8.54693,1.47483 -11.1806,0.39155 l -1.06993,-0.44009 -0.036,1.54831 c -0.0198,0.85156 -0.25455,3.04114 -0.5217,4.86568 -0.35626,2.43352 -0.33111,3.61425 0.0944,4.43162 0.31904,0.61281 -0.16366,1.7413 -0.0559,2.8413 0.18447,1.88202 -0.68191,4.64187 -1.83055,5.87982 l -0.99863,1.07632 2.74138,-0.59125 c 1.50776,-0.32518 4.26761,-1.22158 6.13299,-1.99199 4.39896,-1.81678 6.65098,-3.63596 8.02528,-6.48275 0.75207,-1.55784 1.12511,-2.02075 1.57973,-1.96031 0.47753,0.0635 0.44541,0.48815 -0.16262,2.14845 -0.63241,1.72686 -1.07235,2.34719 -2.65869,3.74861 -3.01533,2.66384 -8.09958,4.80597 -14.18541,5.97667 -1.37454,0.26443 -2.52535,0.68226 -2.83995,1.03113 -0.29093,0.3226 -1.68799,3.88232 -3.10457,7.91048 -1.41659,4.02816 -2.90773,7.75845 -3.31365,8.28953 -1.39543,1.82567 -5.32282,2.62836 -7.43265,1.5191 -0.54543,-0.28676 -1.14812,-0.99769 -1.33928,-1.57982 l -0.34759,-1.05843 -0.50691,1.41239 c -0.83961,2.34062 -3.50539,3.33703 -6.9328,2.59149 -1.94106,-0.42222 -3.01303,-1.21644 -4.26708,-3.16126 -1.9746,-3.06237 -2.37036,-6.45164 -1.69997,-14.55884 0.15942,-1.92794 0.16974,-3.52133 0.0229,-3.54086 -0.98656,-0.13117 -6.61852,12.14073 -6.88224,14.99629 -0.48654,5.26819 -2.17883,7.76887 -9.42978,13.93431 -2.751,2.33913 -6.0322,5.02727 -7.29157,5.97361 -1.25941,0.94635 -2.18456,1.76265 -2.05593,1.81402 0.12869,0.0513 8.99382,-1.8224 19.06815,2.0685 z m -2.61785,-14.02092 c 0.24295,0.0323 1.02036,0.38077 1.72759,0.77442 0.70722,0.39365 4.24417,1.77864 7.85988,3.07778 7.10142,2.55152 8.65874,3.27237 8.43265,3.9033 -0.1826,0.50963 -1.09431,0.40023 -2.31152,-0.27745 -0.51471,-0.28655 -3.67497,-1.49073 -7.02278,-2.676 -6.64087,-2.35117 -9.24166,-3.58759 -9.17233,-4.36057 0.0246,-0.27517 0.24367,-0.47388 0.48652,-0.44159 z m 24.61842,2.23974 c 1.8118,1.10822 2.87353,2.82959 4.79507,3.80954 1.18469,0.59399 2.07295,1.24893 1.99373,1.47002 -2.98458,0.9482 -9.0873,-4.61661 -6.7888,-5.27956 z m 10.76516,-16.32324 c 4.94765,-2.2294 12.60002,-3.21101 19.23557,-2.46746 2.04352,0.22904 2.53171,0.37082 2.41331,0.70126 -0.11172,0.31175 -0.87804,0.36897 -3.09802,0.23131 -7.08911,-0.43963 -13.22493,0.46406 -17.98836,2.6493 -1.70779,0.78346 -3.28514,1.40053 -3.5052,1.37127 -1.07065,-0.14236 0.28665,-1.28888 2.9427,-2.48568 z m 18.75589,-7.93683 c 2.35823,0.31356 7.89193,2.54723 7.84506,3.16668 -0.0496,0.65695 -1.22545,0.45603 -3.53968,-0.60485 -1.03825,-0.47596 -2.83977,-1.0735 -4.00335,-1.32788 -1.5897,-0.34755 -2.10567,-0.58705 -2.07556,-0.96347 0.0332,-0.41531 0.33649,-0.46152 1.77349,-0.27046 z m -47.40797,-4.09129 c -0.6561,5.1126 -1.01767,11.72622 -0.37275,13.896 0.7223,2.4301 2.84342,5.61599 4.2048,6.06276 1.57092,0.51554 4.96252,0.007 5.71731,-1.20813 0.86168,-1.38725 0.65538,-5.59074 0.40388,-8.38003 -0.11183,-1.24026 0.0723,-4.62023 0.40915,-7.51109 0.33686,-2.89081 0.53484,-5.88571 0.43997,-6.65534 -0.12028,-0.9757 0.0883,-1.95703 0.68888,-3.2417 l 0.86136,-1.84241 -1.35016,0.0307 c -2.02633,0.046 -5.99697,0.98184 -7.15759,1.68695 -1.98671,1.20695 -3.19831,2.1241 -3.84485,7.16232 z m 2.40309,-1.95274 c 1.02157,-0.395 4.72516,-0.75835 6.00089,-0.58872 0.53439,0.071 0.86191,0.28833 0.77983,0.51739 -0.0885,0.24688 -1.26981,0.48553 -3.15205,0.63676 -1.65582,0.13304 -3.14223,0.33506 -3.30316,0.44894 -0.46671,0.33022 -1.4493,0.0916 -1.30309,-0.31643 0.0732,-0.20428 0.51314,-0.51834 0.97758,-0.69794 z m 1.47796,9.0855 c 2.99625,-0.48328 5.28277,-0.39995 5.07319,0.18493 -0.0722,0.20146 -1.10262,0.46687 -2.28982,0.58974 -1.18722,0.12288 -2.81983,0.35679 -3.62801,0.5198 -0.80819,0.163 -1.61603,0.19879 -1.79524,0.0795 -0.76678,-0.51041 0.10768,-0.96554 2.63988,-1.37397 z m 9.37066,-10.14861 c 0.32894,2.68612 0.14961,8.0418 -0.37968,11.3392 -0.35184,2.1919 0.48531,10.27897 1.3089,10.64328 0.85393,0.37772 3.55736,0.0311 4.46525,-0.5799 0.75019,-0.5049 1.90391,-1.97387 4.4892,-8.98327 2.77356,-7.51978 3.06505,-8.45627 4.07023,-10.10889 1.6977,-2.79146 2.01204,-3.56011 2.25959,-5.7638 0.19643,-1.74874 0.59581,-2.32252 -1.0138,-2.7307 -1.60599,-0.40727 -1.16687,-0.73978 -1.16687,-0.73978 0.30753,0.34615 -0.81082,-0.0352 -2.93831,-0.31812 -3.0351,-0.40357 -4.50825,0.17206 -6.84839,0.69459 -1.08283,0.24177 -1.37165,0.69434 -1.90344,0.62487 -0.93135,0.28535 -0.82337,0.55832 -1.4074,1.30755 -1.1898,1.52634 -1.26693,1.90682 -0.93527,4.61494 z m 3.74375,-0.21644 c 0.18842,-0.0473 1.95495,0.0333 3.92562,0.17904 3.36897,0.24922 3.56341,0.29488 3.25464,0.76422 -0.27482,0.41769 -0.8578,0.46382 -3.57139,0.28256 -1.78367,-0.11915 -3.44572,-0.3035 -3.69344,-0.4097 -0.49837,-0.2132 -0.44954,-0.68202 0.0846,-0.81613 z m -2.47397,9.22463 c 0.18717,-0.0437 1.82684,0.0285 3.64372,0.16068 2.31894,0.16864 3.35347,0.34583 3.4713,0.59452 0.29694,0.62672 -0.60468,0.72314 -4.22178,0.45152 -3.06112,-0.22987 -3.52112,-0.32446 -3.3878,-0.69657 0.0848,-0.23683 0.3074,-0.46638 0.49454,-0.51016 z m -3.051,-3.40947 c -0.28758,2.37974 -0.49489,4.98142 -0.46068,5.78154 0.0341,0.8001 0.0672,2.3667 0.0733,3.4813 0.006,1.11459 0.0126,2.1895 0.0143,2.38862 0.002,0.19909 0.26862,0.39733 0.59303,0.44047 0.47895,0.0637 0.52264,-0.29773 0.23232,-1.92187 -0.42954,-2.40303 -0.41748,-3.13697 0.11491,-7.00021 0.35267,-2.55904 0.40501,-8.35277 0.0696,-7.71397 -0.0627,0.1195 -0.34935,2.16436 -0.6369,4.54408 z m 17.60653,-35.90701 c 0.41169,3.13489 0.98683,4.35646 2.12482,4.513 0.57152,0.0791 1.92794,0.36042 3.01391,0.62621 3.35906,1.02491 5.14513,-0.53296 7.91507,-0.65712 0.26154,0.17408 0.37497,0.12097 0.32362,-0.15154 -0.0435,-0.2308 -0.28476,-1.53859 -0.53615,-2.90624 -0.26072,-1.41831 -0.88152,-3.01616 -1.44496,-3.71913 -2.34253,-2.922651 -7.53077,-4.101305 -9.88529,-2.24573 -1.19865,0.94467 -1.76124,2.63519 -1.51102,4.54055 z m 12.70926,4.70054 c 0,0 1.76096,0.97448 0,0 z"
       id="path3001"
       inkscape:connector-curvature="0"
       sodipodi:nodetypes="cssssssscssssssssssssssssssssssssssssscsssccsssssscssscccsssccscscsssscsscsssssssssssssssssscccscsssssscssssscssssssscssssccssssssscccccsscsscccccccccsssssssssscssssssssscssssssscssssssssssssssssssscsscscssccscsssscscssscssccccssssccccscscc" />
    <text
       xml:space="preserve"
       style="font-style:normal;font-weight:normal;line-height:0%;font-family:sans-serif;letter-spacing:0px;word-spacing:0px;fill:#000000;fill-opacity:1;stroke:none"
       x="433.16306"
       y="167.71027"
       id="text14093-1"
       inkscape:export-filename="C:\Users\correll\Desktop\work\books\Introduction-to-Autonomous-Robots\figs\coordinatesystem.png"
       inkscape:export-xdpi="301.0625"
       inkscape:export-ydpi="301.0625"><tspan
         sodipodi:role="line"
         id="tspan14095-74"
         x="433.16306"
         y="167.71027"
         style="font-size:18px;line-height:1.25;font-family:sans-serif">x</tspan></text>
    <text
       xml:space="preserve"
       style="font-style:normal;font-weight:normal;line-height:0%;font-family:sans-serif;letter-spacing:0px;word-spacing:0px;fill:#000000;fill-opacity:1;stroke:none"
       x="408.2211"
       y="88.855957"
       id="text14093-4-0"
       inkscape:export-filename="C:\Users\correll\Desktop\work\books\Introduction-to-Autonomous-Robots\figs\coordinatesystem.png"
       inkscape:export-xdpi="301.0625"
       inkscape:export-ydpi="301.0625"><tspan
         sodipodi:role="line"
         id="tspan14095-7-9"
         x="408.2211"
         y="88.855957"
         style="font-size:18px;line-height:1.25;font-family:sans-serif">y</tspan></text>
    <text
       xml:space="preserve"
       style="font-style:normal;font-weight:normal;line-height:0%;font-family:sans-serif;letter-spacing:0px;word-spacing:0px;fill:#000000;fill-opacity:1;stroke:none"
       x="354.66559"
       y="93.082115"
       id="text14118-4"
       inkscape:export-filename="C:\Users\correll\Desktop\work\books\Introduction-to-Autonomous-Robots\figs\coordinatesystem.png"
       inkscape:export-xdpi="301.0625"
       inkscape:export-ydpi="301.0625"><tspan
         sodipodi:role="line"
         id="tspan14120-8"
         x="354.66559"
         y="93.082115"
         style="font-size:18px;line-height:1.25;font-family:sans-serif">z</tspan></text>
    <path
       style="fill:none;stroke:#000000;stroke-width:1px;stroke-linecap:butt;stroke-linejoin:miter;stroke-opacity:1"
       d="m 325.16967,148.59323 c -0.005,1.82032 0.41249,3.083 1.20424,4.60029 0.55709,1.16688 1.27389,2.33773 2.42289,3.00302 0.80861,0.54787 1.80807,1.01222 2.80097,0.72848 0.77104,-0.14639 1.66427,-0.55116 1.83261,-1.40215 0.71707,-1.9667 1.08344,-4.92595 0.65277,-7.26431 -0.37417,-0.66086 -1.21914,-0.20085 -1.79321,-0.14243 -1.16516,0.19568 -2.32658,0.41748 -3.4955,0.58718 -1.02532,0.16001 -2.06687,0.16597 -3.09286,0.30976 -0.20319,0.0368 -0.40451,0.088 -0.59625,0.16544"
       id="path3066"
       inkscape:connector-curvature="0"
       sodipodi:nodetypes="cccccccccc"
       inkscape:export-filename="C:\Users\correll\Desktop\work\books\Introduction-to-Autonomous-Robots\figs\coordinatesystem.png"
       inkscape:export-xdpi="301.0625"
       inkscape:export-ydpi="301.0625" />
    <path
       style="fill:none;stroke:#000000;stroke-width:1px;stroke-linecap:butt;stroke-linejoin:miter;stroke-opacity:1"
       d="m 338.49097,148.7232 c 0.32942,2.11394 -0.14548,4.33865 0.64707,6.37813 0.78361,1.57422 3.29284,1.78282 4.33516,0.37131 0.8243,-1.08984 1.09162,-2.39902 1.91299,-3.49074 0.33711,-0.56654 0.63294,-1.28995 0.84973,-1.91335 0.41615,-0.35963 0.67557,-1.44903 0.11322,-1.79316 -0.6694,-0.37444 -0.88616,-0.17177 -1.71663,-0.0478 -1.08022,-0.21868 -2.31664,-4.7e-4 -3.41474,-0.0588 -0.79851,-0.0972 -1.73129,-0.19133 -2.38309,0.38354 -0.10512,0.0732 -0.21733,0.1419 -0.34371,0.17088 z"
       id="path3074"
       inkscape:connector-curvature="0"
       sodipodi:nodetypes="cccccccccc"
       inkscape:export-filename="C:\Users\correll\Desktop\work\books\Introduction-to-Autonomous-Robots\figs\coordinatesystem.png"
       inkscape:export-xdpi="301.0625"
       inkscape:export-ydpi="301.0625" />
    <path
       style="fill:#000000"
       d="m 328.66101,267.83339 c -0.0239,-4.74954 0.10492,-7.57238 0.36281,-7.95572 0.21973,-0.3268 0.75011,-1.26133 1.1784,-2.07675 0.42828,-0.81542 1.81557,-3.04184 3.08283,-4.94761 2.59535,-3.90302 3.53425,-6.04604 4.02417,-9.18502 0.32443,-2.07874 0.78517,-3.85204 1.90565,-7.33483 0.28777,-0.89454 0.68005,-2.15857 0.8717,-2.80894 0.7261,-2.46402 2.93436,-4.01377 5.77202,-4.05079 1.66384,-0.0217 4.50494,1.21409 5.03271,2.18908 2.03935,3.76749 2.19484,8.06873 0.48944,13.53893 -1.06373,3.41195 -0.0359,10.13214 1.92779,12.60427 0.4459,0.56135 1.33607,1.321 1.97814,1.6881 1.40452,0.80302 4.33459,1.97176 4.53236,1.80787 0.32482,-0.26927 -1.44884,-2.81571 -2.06462,-2.96416 -1.52574,-0.36779 -2.36873,-1.49843 -2.4458,-3.28035 -0.0406,-0.93824 -0.16473,-1.77095 -0.27584,-1.85049 -0.68103,-0.48742 -1.85904,-2.494 -1.87131,-3.18752 -0.017,-0.95974 1.88902,-3.29129 2.69921,-3.30186 0.48345,-0.007 0.47538,-0.10234 -0.0622,-0.74116 -0.78077,-0.92777 -0.57406,-3.14215 0.37445,-4.01087 0.87709,-0.8033 2.13836,-1.21802 6.42286,-2.11178 1.71915,-0.76736 6.00863,-1.2543 6.47869,-1.25958 l 1.31783,-0.0171 c 0.72479,-0.01 1.84024,0.15806 2.47878,0.37228 0.63858,0.21422 2.65184,0.81143 4.47393,1.32713 3.39215,0.96006 5.26679,1.74058 9.31021,3.87629 1.26736,0.66941 2.87495,1.42598 3.57243,1.68127 2.3904,0.87494 2.59493,1.59911 3.02255,10.7026 1.6565,21.21041 -1.87955,16.75568 -2.2431,20.58105 0.0181,1.66702 -0.94687,3.15306 -3.17184,4.88066 -1.05804,0.82151 -2.19176,2.09061 -2.70408,3.02696 -0.85626,1.56497 -2.71326,3.45661 -3.40213,3.4656 0,0 -14.16439,7.17382 -26.53125,10.09614 -3.51351,1.01945 -6.19273,2.43369 -8.82051,4.65599 -10.38476,7.53588 -5.18655,0.90636 -9.09774,-7.72285 -0.11167,-0.14069 -0.44924,-0.97311 -0.75009,-1.85005 -18.33423,-25.80513 -12.52046,-3.36193 -7.86859,-25.8367 z m 1.88426,15.51668 c 1.5221,2.09397 2.2711,2.37266 5.09708,7.13487 1.89924,3.2005 4.33487,7.48358 4.70893,10.91397 0.14996,1.37475 0.33676,2.65953 0.41518,2.85511 0.31981,0.79733 2.74647,0.45942 6.28676,-2.55076 3.47432,-3.37421 5.55339,-3.68747 8.22348,-4.59098 1.25693,-0.42593 3.2354,-0.99867 4.37268,-1.26582 4.94317,-1.16115 11.92855,-3.85961 16.61162,-6.41705 1.80631,-0.98643 3.4467,-1.79563 3.64531,-1.79822 0.86772,-0.0113 2.55757,-1.37891 3.3834,-2.73817 0.86754,-1.42792 0.8716,-1.46486 0.12433,-1.13103 -0.42484,0.18977 -1.00802,0.27586 -1.29593,0.19115 -0.73352,-0.21556 -0.6685,-1.0397 0.0981,-1.24413 1.71906,-0.45834 3.7012,-1.42608 5.14333,-2.51112 1.46484,-1.10215 1.60739,-1.33973 1.74062,-2.90119 l 0.14526,-1.7007 -1.29523,0.82011 c -1.52937,0.96836 -2.07275,1.03705 -2.08643,0.26368 -0.012,-0.67685 3.89875,-4.08698 4.8755,-4.25141 0.9603,-0.16171 1.93949,-1.69281 1.97067,-3.08148 0.0146,-0.64444 -0.21803,-3.28877 -0.51663,-5.87631 -0.29861,-2.58753 -0.599,-6.62536 -0.66752,-8.97295 0.0711,-4.67956 -0.26406,-4.73034 -0.43454,-5.295 -0.40049,-1.3265 -1.23359,-2.33975 -1.9164,-2.33085 -0.29672,0.004 -1.68567,-0.62912 -3.08656,-1.40665 -1.40088,-0.77753 -3.04819,-1.61405 -3.66072,-1.85893 -2.52079,0.32875 -2.02887,7.16914 -2.45112,8.99092 -0.39143,1.66427 -0.70378,3.47118 -0.69414,4.01538 0.0152,0.85914 0.1381,0.98787 0.93291,0.9775 1.09793,-0.0143 1.29833,0.95543 0.30043,1.45364 -0.60506,0.30209 -0.60446,0.33588 0.0126,0.70952 0.96615,0.58504 0.79462,1.06168 -0.38764,1.0771 -0.57608,0.008 -1.62286,0.33827 -2.32615,0.73504 -0.7033,0.39675 -1.99605,0.82389 -2.8728,0.94922 -0.87673,0.12539 -1.94274,0.41155 -2.3689,0.63603 -0.42619,0.22452 -2.04982,0.51788 -3.60812,0.65192 -2.32214,0.19965 -2.86347,0.34238 -3.00077,0.79069 -0.17353,0.56648 -1.34197,0.76786 -1.71686,0.29591 -0.11731,-0.14766 -1.66392,-0.84518 -3.43693,-1.54997 -1.77296,-0.7048 -3.72163,-1.48319 -4.33031,-1.72979 -0.60867,-0.24656 -1.4055,-0.3679 -1.77071,-0.26965 -1.87332,0.50398 -4.08758,-3.57427 -5.18225,-9.54471 -0.25296,-1.37964 -0.37112,-2.83578 -0.26248,-3.23586 0.10849,-0.40009 0.25233,-1.46998 0.31956,-2.37756 0.0672,-0.90755 0.37474,-2.51184 0.68335,-3.56508 0.37301,-1.27297 0.5091,-2.84458 0.40592,-4.68808 0,0 -1.06189,-7.67187 -1.05465,-5.72985 0.007,1.75884 0.3125,5.06234 0.3125,5.06234 -0.37894,2.43676 -0.48578,1.45347 -4.70914,1.39541 -2.08957,-0.0288 -4.01162,-0.18817 -4.27124,-0.35434 -0.25962,-0.16616 1.10726,-5.97509 1.049,-5.91074 -0.34517,0.38103 -2.8959,9.70254 -2.87997,10.60302 0.033,1.86726 -1.44657,5.78064 -3.23209,8.54835 -2.93292,4.5463 -5.14823,8.55376 -5.41106,9.78847 -0.13831,0.64965 -0.14482,4.30967 -0.80139,7.72945 0.18937,4.00863 -4.29025,9.46612 -3.39781,10.00893 0.65144,0.39641 2.63662,2.03638 3.5222,3.25469 z m 12.46372,-43.05014 c 2.64835,0.23365 4.87349,1.16375 4.88906,2.04366 0.01,0.56524 -0.13877,0.68841 -0.69864,0.57841 -0.41126,-0.0808 -0.79064,0.0338 -0.89933,0.27187 -0.37587,0.82299 -4.33472,0.35466 -4.56558,-0.5401 -0.12485,-0.48427 0.0709,-0.52823 1.91331,-0.42955 2.71144,0.14514 2.6161,-0.26978 -0.15911,-0.69323 -1.69786,-0.25904 -2.20561,-0.45651 -2.21277,-0.86049 -0.008,-0.45395 0.22448,-0.50366 1.73318,-0.37057 z m 0.15205,-2.32152 c 0.42968,-0.004 1.44846,-0.0321 2.46471,0.0528 1.76732,0.14747 2.99427,0.11719 3.43773,-0.6953 0.255,-0.46721 0.0903,-2.26561 0.17887,-3.42287 0.15315,-2.00138 -0.37674,-2.08009 -1.2553,-2.52728 -1.2468,-0.63465 -3.41518,-0.64169 -4.252,-0.0138 -0.36798,0.27611 -0.8468,1.19826 -1.06406,2.04926 -0.8002,3.13435 -0.97343,3.97205 0.13807,4.41649 z m 12.4099,13.46055 c 0.31254,0.46898 0.85709,0.97173 1.21009,1.11721 1.1081,0.4567 6.36806,0.90168 8.02908,0.67927 l 1.58961,-0.21281 -0.0457,-2.55808 -0.0457,-2.55807 -4.97514,0.0649 c -4.78678,0.0625 -5.00116,0.0917 -5.6629,0.76909 -0.82932,0.84912 -0.85561,1.56366 -0.0993,2.69851 z m 1.56709,4.53981 c 0.54877,1.0614 1.60198,1.5598 6.54478,2.57696 1.91875,0.39484 2.11122,0.29139 1.86849,-0.1442 -0.14694,-0.26364 -0.35292,-0.8508 -0.45789,-1.30478 -0.15235,-0.6586 -0.0334,-0.86058 0.58351,-0.99904 0.55332,-0.12392 0.77021,-0.40551 0.75994,-0.98629 -0.014,-0.78751 -0.0646,-0.80751 -1.63832,-0.6441 -0.89316,0.0928 -2.95538,0.0309 -4.58276,-0.13998 -3.88621,-0.40534 -4.07498,-0.28739 -3.07775,1.64147 z m 0.8764,-10.06728 c 1.07265,0.83656 3.20512,1.16112 5.64393,0.85902 2.66688,-0.33035 2.66612,-0.32931 2.49167,-3.47599 l -0.15508,-2.7964 -3.64907,0.76199 c -2.21483,0.46247 -3.96865,1.00736 -4.46213,1.38628 -1.11632,0.85721 -1.05703,2.33884 0.13078,3.26509 z m 4.66608,15.60762 c 1.39449,1.08752 2.30875,1.57031 2.95769,1.56184 0.88306,-0.0115 0.93773,-0.10032 0.91324,-1.48433 l -0.026,-1.47205 -1.2234,0.016 c -0.67288,0.009 -1.99438,-0.15978 -2.93667,-0.37458 -0.99345,-0.22644 -1.71117,-0.27088 -1.70824,-0.10575 0.002,0.15659 0.91331,0.99313 2.02341,1.85889 z m 7.18487,-16.95032 c 0.49503,-0.11102 0.74747,0.0432 0.91905,0.56131 0.33483,1.01093 2.60876,2.63258 5.56697,3.97008 1.87373,1.75562 4.88328,-4.87818 3.03334,-6.6523 -0.80173,-0.62208 -7.55444,-2.41723 -9.0208,-2.39809 l -1.26345,0.0165 0.0412,2.32774 c 0.0377,2.12922 0.0993,2.31469 0.7237,2.17478 z m 0.35044,8.97948 c 1.08055,1.33215 4.05019,3.42808 6.12371,4.32207 l 1.51147,0.65164 -0.0411,-2.32016 c -0.0226,-1.27608 0.14175,-2.76228 0.36523,-3.30264 0.37921,-0.91696 0.3345,-1.02776 -0.67035,-1.66112 -0.59212,-0.37325 -1.44873,-0.75159 -1.90356,-0.84075 -0.45483,-0.0892 -0.82889,-0.27128 -0.83124,-0.40473 -0.002,-0.13349 -0.35363,-0.32686 -0.78061,-0.4298 -0.42696,-0.1029 -1.42422,-0.64346 -2.21612,-1.20117 -2.10864,-1.4851 -2.54694,-1.18454 -2.4957,1.7113 0.0353,1.99318 0.1846,2.54625 0.93823,3.47536 z m -0.12087,6.76096 c 1.3076,1.59072 1.40439,1.61758 3.69146,1.02417 1.1497,-0.29828 2.37666,-0.74512 2.72661,-0.99294 0.58995,-0.41779 0.45432,-0.54291 -1.86166,-1.71778 -1.37387,-0.69696 -3.12437,-1.73952 -3.89,-2.31682 l -1.39203,-1.04962 0.0377,2.13101 c 0.0269,1.52042 0.22414,2.35763 0.68792,2.92198 z m 10.42592,-18.21227 c -343.20694,-199.590663 -171.60346,-99.79533 0,0 z m 10.32592,32.02327 c 0.11999,-0.0995 -0.0976,-0.16612 -0.48333,-0.14836 -0.42632,0.0193 -0.51185,0.0907 -0.21798,0.18082 0.26586,0.0817 0.58149,0.067 0.70142,-0.0325 z"
       id="path3130"
       inkscape:connector-curvature="0"
       sodipodi:nodetypes="scssssssssssssccssssccsssssccssccccccssscsccsssssssscssscscsssccssssssscssssssscssscssccssssccssssssssscsscssscccscsscccssssssscsssscsssssscssscssccscscsscssscsscsssscsscscccccccccccccccccc"
       inkscape:export-filename="C:\Users\correll\Desktop\work\books\Introduction-to-Autonomous-Robots\figs\coordinatesystem.png"
       inkscape:export-xdpi="301.0625"
       inkscape:export-ydpi="301.0625" />
    <path
       style="fill:#ffffff;stroke:#000000;stroke-width:1;stroke-miterlimit:4;stroke-dashoffset:0;stroke-opacity:1;marker-start:none;marker-mid:none;marker-end:none"
       d="m 366.88748,263.7847 v -61.10001 h 1.5 v 61.14892 m 0,30.47288 v 17.8782 h -1.5 v -17.29124"
       id="rect3132"
       inkscape:connector-curvature="0"
       sodipodi:nodetypes="cccccccc"
       inkscape:export-filename="C:\Users\correll\Desktop\work\books\Introduction-to-Autonomous-Robots\figs\coordinatesystem.png"
       inkscape:export-xdpi="301.0625"
       inkscape:export-ydpi="301.0625" />
    <path
       sodipodi:type="arc"
       style="fill:none;stroke:#000000;stroke-width:1.45716;marker-start:none;marker-end:url(#Arrow1Lend-16)"
       id="path14122-2-4"
       sodipodi:cx="282.06979"
       sodipodi:cy="377.5126"
       sodipodi:rx="27.918171"
       sodipodi:ry="30.064953"
       d="M 278.02799,407.26082 A 27.918171,30.064953 0 0 1 254.4934,382.20255 27.918171,30.064953 0 0 1 269.71185,350.55351"
       sodipodi:start="1.7160802"
       sodipodi:end="4.2538384"
       sodipodi:open="true"
       transform="matrix(-0.09990448,-0.64765729,-0.71708637,0.06540137,665.35131,367.77502)"
       inkscape:export-filename="C:\Users\correll\Desktop\work\books\Introduction-to-Autonomous-Robots\figs\coordinatesystem.png"
       inkscape:export-xdpi="301.0625"
       inkscape:export-ydpi="301.0625"
       sodipodi:arc-type="arc" />
  </g>
</svg>
