<?xml version="1.0"?>
<Project_Data Version="8.00">
<Project_Settings>
<ProfileName>MP4 only (up to 1080p)</ProfileName>
<ProjectWidth>1920</ProjectWidth>
<ProjectHeight>1080</ProjectHeight>
<IsCustomProject>1</IsCustomProject>
<SavedProjectSettings>1</SavedProjectSettings>
<LastFlashTemplate>-1</LastFlashTemplate>
</Project_Settings>


<AutoSaveFile>C:\Users\Administrator\AppData\Local\TechSmith\Camtasia Studio\8.0\Auto-Saves\errorpropagation1b6155cc.autosave.camproj</AutoSaveFile>

<ProjectID>FF776D05-B0A1-481F-B093-E19710DF051D</ProjectID>

<PowerPointProject>0</PowerPointProject>

<PowerPointFilename></PowerPointFilename>


<Project_Notes>
</Project_Notes>

<Project_MetaData>
<Project_MetaData_Object>
<FieldArrayKey>8</FieldArrayKey>
<Value>errorpropagation</Value>
</Project_MetaData_Object>
<Project_MetaData_Object>
<FieldArrayKey>13</FieldArrayKey>
<Value>2015-10-21 01:16:55 PM</Value>
</Project_MetaData_Object>
<Project_MetaData_Object>
<FieldArrayKey>16</FieldArrayKey>
<Value>ENU</Value>
</Project_MetaData_Object>
</Project_MetaData>

<CSMLData>
<GoProject id="1" version="3.0" >
 <Project id="2" editRate="30/1" version="3.0" >
  <Author></Author>
  <Comment></Comment>
  <System></System>
  <SourceBin id="3"  >
    <Source id="4" src="C:\Users\Administrator\Desktop\papers\introduction-to-autonomous-robots\screencasts\errorpropagation\bookcover.jpg" lastMod="20151021T191901" rect="(0,0,333,499)" >
      <SourceTrack range="(0,1)" type="1" editRate="10000000/1" trackRect="(0,0,333,499)" sampleRate="0/1" bitDepth="24" numChannels="0" filename="" metaData="" />
    </Source>
    <Source id="5" src="C:\Users\Administrator\Desktop\papers\introduction-to-autonomous-robots\screencasts\errorpropagation\gaussiandistribution.trec" lastMod="20151021T194748" rect="(0,0,1920,1080)" >
      <SourceTrack range="(0,3747)" type="0" editRate="30/1" trackRect="(0,0,1920,1080)" sampleRate="0/1" bitDepth="0" numChannels="0" filename="gaussiandistribution.trec!Strack0.tsc2" metaData="gaussiandistribution.trec;" />
      <SourceTrack range="(0,5491712)" type="2" editRate="44100/1" trackRect="(0,0,0,0)" sampleRate="44100/1" bitDepth="16" numChannels="2" filename="gaussiandistribution.trec!Maudio1.mp4" metaData="" />
      <SourceTrack range="(0,5470208)" type="2" editRate="44100/1" trackRect="(0,0,0,0)" sampleRate="44100/1" bitDepth="16" numChannels="2" filename="gaussiandistribution.trec!$audio2.mp4" metaData="" />
    </Source>
    <Source id="6" src="C:\Users\Administrator\Desktop\papers\introduction-to-autonomous-robots\screencasts\errorpropagation\Mapping with Sparki.mp4" lastMod="20151021T192756" rect="(0,0,1280,720)" >
      <SourceTrack range="(0,198000000)" type="0" editRate="10000000/1" trackRect="(0,0,1280,720)" sampleRate="5000000/166821" bitDepth="24" numChannels="0" filename="" metaData="" />
      <SourceTrack range="(0,198000000)" type="2" editRate="10000000/1" trackRect="(0,0,0,0)" sampleRate="44100/1" bitDepth="16" numChannels="2" filename="" metaData="" />
    </Source>
    <Source id="7" src="C:\Users\Administrator\Desktop\papers\introduction-to-autonomous-robots\screencasts\errorpropagation\errorpropagationlaw.trec" lastMod="20151021T204330" rect="(0,0,1920,1080)" >
      <SourceTrack range="(0,4287)" type="0" editRate="30/1" trackRect="(0,0,1920,1080)" sampleRate="0/1" bitDepth="0" numChannels="0" filename="errorpropagationlaw.trec!Strack0.tsc2" metaData="errorpropagationlaw.trec;" />
      <SourceTrack range="(0,6285312)" type="2" editRate="44100/1" trackRect="(0,0,0,0)" sampleRate="44100/1" bitDepth="16" numChannels="2" filename="errorpropagationlaw.trec!Maudio1.mp4" metaData="" />
      <SourceTrack range="(0,6263808)" type="2" editRate="44100/1" trackRect="(0,0,0,0)" sampleRate="44100/1" bitDepth="16" numChannels="2" filename="errorpropagationlaw.trec!$audio2.mp4" metaData="" />
    </Source>
    <Source id="8" src="C:\Users\Administrator\Desktop\papers\introduction-to-autonomous-robots\screencasts\errorpropagation\mimoerror_1.trec" lastMod="20151021T205044" rect="(0,0,1920,1080)" >
      <SourceTrack range="(0,10687)" type="0" editRate="30/1" trackRect="(0,0,1920,1080)" sampleRate="0/1" bitDepth="0" numChannels="0" filename="mimoerror_1.trec!Strack0.tsc2" metaData="mimoerror_1.trec;" />
      <SourceTrack range="(0,15700992)" type="2" editRate="44100/1" trackRect="(0,0,0,0)" sampleRate="44100/1" bitDepth="16" numChannels="2" filename="mimoerror_1.trec!Maudio1.mp4" metaData="" />
      <SourceTrack range="(0,15700992)" type="2" editRate="44100/1" trackRect="(0,0,0,0)" sampleRate="44100/1" bitDepth="16" numChannels="2" filename="mimoerror_1.trec!$audio2.mp4" metaData="" />
    </Source>
    <Source id="9" src="C:\Users\Administrator\Desktop\papers\introduction-to-autonomous-robots\screencasts\errorpropagation\odometry_1.trec" lastMod="20151021T205804" rect="(0,0,1920,1080)" >
      <SourceTrack range="(0,10082)" type="0" editRate="30/1" trackRect="(0,0,1920,1080)" sampleRate="0/1" bitDepth="0" numChannels="0" filename="odometry_1.trec!Strack0.tsc2" metaData="odometry_1.trec;" />
      <SourceTrack range="(0,14819328)" type="2" editRate="44100/1" trackRect="(0,0,0,0)" sampleRate="44100/1" bitDepth="16" numChannels="2" filename="odometry_1.trec!Maudio1.mp4" metaData="" />
      <SourceTrack range="(0,14775296)" type="2" editRate="44100/1" trackRect="(0,0,0,0)" sampleRate="44100/1" bitDepth="16" numChannels="2" filename="odometry_1.trec!$audio2.mp4" metaData="" />
    </Source>
    <Source id="10" src="C:\Users\Administrator\Desktop\papers\introduction-to-autonomous-robots\screencasts\errorpropagation\odometry_2.trec" lastMod="20151021T210825" rect="(0,0,1920,1080)" >
      <SourceTrack range="(0,9589)" type="0" editRate="30/1" trackRect="(0,0,1920,1080)" sampleRate="0/1" bitDepth="0" numChannels="0" filename="odometry_2.trec!Strack0.tsc2" metaData="odometry_2.trec;" />
      <SourceTrack range="(0,14091264)" type="2" editRate="44100/1" trackRect="(0,0,0,0)" sampleRate="44100/1" bitDepth="16" numChannels="2" filename="odometry_2.trec!Maudio1.mp4" metaData="" />
      <SourceTrack range="(0,14069760)" type="2" editRate="44100/1" trackRect="(0,0,0,0)" sampleRate="44100/1" bitDepth="16" numChannels="2" filename="odometry_2.trec!$audio2.mp4" metaData="" />
    </Source>
    <Source id="11" src="C:\Users\Administrator\Desktop\papers\introduction-to-autonomous-robots\screencasts\errorpropagation\odometry_3.trec" lastMod="20151021T211442" rect="(0,0,1920,1080)" >
      <SourceTrack range="(0,5745)" type="0" editRate="30/1" trackRect="(0,0,1920,1080)" sampleRate="0/1" bitDepth="0" numChannels="0" filename="odometry_3.trec!Strack0.tsc2" metaData="odometry_3.trec;" />
      <SourceTrack range="(0,8446976)" type="2" editRate="44100/1" trackRect="(0,0,0,0)" sampleRate="44100/1" bitDepth="16" numChannels="2" filename="odometry_3.trec!Maudio1.mp4" metaData="" />
      <SourceTrack range="(0,8424448)" type="2" editRate="44100/1" trackRect="(0,0,0,0)" sampleRate="44100/1" bitDepth="16" numChannels="2" filename="odometry_3.trec!$audio2.mp4" metaData="" />
    </Source>
    <Source id="12" src="C:\Users\Administrator\Desktop\papers\introduction-to-autonomous-robots\screencasts\errorpropagation\matlabdemo.trec" lastMod="20151021T212432" rect="(0,0,1052,592)" >
      <SourceTrack range="(0,10794)" type="0" editRate="30/1" trackRect="(0,0,1052,592)" sampleRate="0/1" bitDepth="0" numChannels="0" filename="matlabdemo.trec!Strack0.tsc2" metaData="matlabdemo.trec;" />
      <SourceTrack range="(0,15855616)" type="2" editRate="44100/1" trackRect="(0,0,0,0)" sampleRate="44100/1" bitDepth="16" numChannels="2" filename="matlabdemo.trec!Maudio1.mp4" metaData="" />
    </Source>
    <Source id="13" src="C:\Users\Administrator\Desktop\papers\introduction-to-autonomous-robots\screencasts\errorpropagation\odometry.PNG" lastMod="20151021T211702" rect="(0,0,1139,414)" >
      <SourceTrack range="(0,1)" type="1" editRate="10000000/1" trackRect="(0,0,1139,414)" sampleRate="0/1" bitDepth="32" numChannels="0" filename="" metaData="" />
    </Source>
    <Source id="14" src="C:\Users\Administrator\Desktop\papers\introduction-to-autonomous-robots\screencasts\errorpropagation\intro.wav" lastMod="20151021T215958" rect="(0,0,0,0)" >
      <SourceTrack range="(0,220000000)" type="2" editRate="10000000/1" trackRect="(0,0,0,0)" sampleRate="22050/1" bitDepth="16" numChannels="1" filename="" metaData="" />
    </Source>
    <Source id="15" src="C:\Users\Administrator\Desktop\papers\introduction-to-autonomous-robots\screencasts\errorpropagation\YIP_YFA Opportunties Briefing_NOV 2015_Faculty Input.trec" lastMod="20151021T233545" rect="(0,0,1920,1080)" >
      <SourceTrack range="(0,14035)" type="0" editRate="30/1" trackRect="(0,0,1920,1080)" sampleRate="0/1" bitDepth="0" numChannels="0" filename="YIP_YFA Opportunties Briefing_NOV 2015_Faculty Input.trec!Strack0.tsc2" metaData="YIP_YFA Opportunties Briefing_NOV 2015_Faculty Input.trec;" />
      <SourceTrack range="(0,20618240)" type="2" editRate="44100/1" trackRect="(0,0,0,0)" sampleRate="44100/1" bitDepth="16" numChannels="2" filename="YIP_YFA Opportunties Briefing_NOV 2015_Faculty Input.trec!Maudio1.mp4" metaData="" />
      <SourceTrack range="(0,20596736)" type="2" editRate="44100/1" trackRect="(0,0,0,0)" sampleRate="44100/1" bitDepth="16" numChannels="2" filename="YIP_YFA Opportunties Briefing_NOV 2015_Faculty Input.trec!$audio2.mp4" metaData="" />
    </Source>
  </SourceBin>
  <Timeline id="16"  >
   <Attributes>
    <Attribute id="17" value="1920" name="width"/>
    <Attribute id="18" value="1080" name="height"/>
    <Attribute id="19" value="(255,255,255,255)" name="backgroundColor"/>
   </Attributes>
    <GenericMixer id="20"  name="Unified Mixer">
     <MetaData>
      <entry key="MixerType" val="TimelineMixer"/>
     </MetaData>
     <Tracks>
      <GenericTrack id="21"  >
       <Attributes>
        <Attribute id="22" value="" name="ident"/>
        <Attribute id="23" value="0" name="audioMuted"/>
        <Attribute id="24" value="0" name="videoHidden"/>
       </Attributes>
       <MetaData>
        <entry key="IsLocked" val="False"/>
        <entry key="WinTrackHeight" val="62"/>
       </MetaData>
       <Medias>
        <IMFile id="25" start="0" duration="300" scalar="1/1" mediaStart="0/1" mediaDuration="1/1" trackNumber="0" src="4" trimStartSum="0/1" >
         <Transformer>
          <VectorParam id="26"  name="translation">
           <InterpolatingParam id="27" interp="linr"  time="-9999999/1" value="602.95352986211378" leadInLength="0/1"  />
           <InterpolatingParam id="28" interp="linr"  time="-9999999/1" value="-14.094357829679078" leadInLength="0/1"  />
           <InterpolatingParam id="29" interp="linr"  time="-9999999/1" value="0" leadInLength="0/1"  />
          </VectorParam>
          <VectorParam id="30"  name="rotation">
           <InterpolatingParam id="31" interp="linr"  time="-9999999/1" value="0" leadInLength="0/1"  />
           <InterpolatingParam id="32" interp="linr"  time="-9999999/1" value="0" leadInLength="0/1"  />
           <InterpolatingParam id="33" interp="linr"  time="-9999999/1" value="0" leadInLength="0/1"  />
          </VectorParam>
          <VectorParam id="34"  name="shear">
           <InterpolatingParam id="35" interp="linr"  time="-9999999/1" value="0" leadInLength="0/1"  />
           <InterpolatingParam id="36" interp="linr"  time="-9999999/1" value="0" leadInLength="0/1"  />
           <InterpolatingParam id="37" interp="linr"  time="-9999999/1" value="0" leadInLength="0/1"  />
          </VectorParam>
          <VectorParam id="38"  name="scale">
           <InterpolatingParam id="39" interp="linr"  time="-9999999/1" value="1.099845414831198" leadInLength="0/1"  />
           <InterpolatingParam id="40" interp="linr"  time="-9999999/1" value="1.099845414831198" leadInLength="0/1"  />
           <InterpolatingParam id="41" interp="linr"  time="-9999999/1" value="0.99999999999999933" leadInLength="0/1"  />
          </VectorParam>
          <VectorParam id="42"  name="anchor">
           <InterpolatingParam id="43" interp="linr"  time="0/1" value="0" leadInLength="0/1"  />
           <InterpolatingParam id="44" interp="linr"  time="0/1" value="0" leadInLength="0/1"  />
           <InterpolatingParam id="45" interp="linr"  time="0/1" value="0" leadInLength="0/1"  />
          </VectorParam>
         </Transformer>
         <Parameters>
          <VectorParam id="46"  name="sourceCrop">
           <InterpolatingParam id="47" interp="linr"  time="0/1" value="0" leadInLength="0/1"  />
           <InterpolatingParam id="48" interp="linr"  time="0/1" value="0" leadInLength="0/1"  />
           <InterpolatingParam id="49" interp="linr"  time="0/1" value="0" leadInLength="0/1"  />
           <InterpolatingParam id="50" interp="linr"  time="0/1" value="0" leadInLength="0/1"  />
          </VectorParam>
          <VectorParam id="51"  name="geometryCrop">
           <InterpolatingParam id="52" interp="linr"  time="-9999999/1" value="0" leadInLength="0/1"  />
           <InterpolatingParam id="53" interp="linr"  time="-9999999/1" value="0" leadInLength="0/1"  />
           <InterpolatingParam id="54" interp="linr"  time="-9999999/1" value="0" leadInLength="0/1"  />
           <InterpolatingParam id="55" interp="linr"  time="-9999999/1" value="0" leadInLength="0/1"  />
          </VectorParam>
          <InterpolatingParam id="56" interp="linr"  time="-9999999/1" value="1" leadInLength="0/1"  name="opacity"/>
         </Parameters>
         <Effects>
          <GenericEffect id="57" name = "TextEffect" >
           <Parameters>
           <Parameter id="58"   name="text">
            <Keyframes>
            <Keyframe id="59"  time="0/1" value="{\rtf1\ansi\ansicpg1252\deff0\deflang1033{\fonttbl{\f0\fnil\fcharset0 Arial;}}&#xD;&#xa;\viewkind4\uc1\pard\qc\fs36\par&#xD;&#xa;}&#xD;&#xa;" leadInLength="0/1"  />
            </Keyframes>
           </Parameter>
           <InterpolatingParam id="60" interp="linr"  time="0/1" value="0" leadInLength="0/1"   name="textDimensionTime"/>
           <Parameter id="61"   name="textDropShadow">
            <Keyframes>
            <Keyframe id="62"  time="0/1" value="0" leadInLength="0/1"  />
            </Keyframes>
           </Parameter>
           <Parameter id="63"   name="textIgnoresOpacity">
            <Keyframes>
            <Keyframe id="64"  time="0/1" value="0" leadInLength="0/1"  />
            </Keyframes>
           </Parameter>
           <InterpolatingParam id="65" interp="linr"  time="0/1" value="1" leadInLength="0/1"   name="textRectHeight"/>
           <InterpolatingParam id="66" interp="linr"  time="0/1" value="1" leadInLength="0/1"   name="textRectWidth"/>
           <InterpolatingParam id="67" interp="linr"  time="0/1" value="0" leadInLength="0/1"   name="textRectX"/>
           <InterpolatingParam id="68" interp="linr"  time="0/1" value="0" leadInLength="0/1"   name="textRectY"/>
           <Parameter id="69"   name="textVerticalAlign">
            <Keyframes>
            <Keyframe id="70"  time="0/1" value="0" leadInLength="0/1"  />
            </Keyframes>
           </Parameter>
           </Parameters>
          </GenericEffect>
         </Effects>
         <Attributes>
          <Attribute id="71" value="" name="ident"/>
         </Attributes>
         <MetaData>
          <entry key="WinSubProjectDisplayName" val=""/>
         </MetaData>
         <ExtraData>
          <Entry key="ZoomPanBin">
           <ZoomPanBin id="72"  >
            <ZoomPanKeyframes>
             <ZoomPanKeyframe id="73" timeRangeEnd="-9999999/1" timeRangeDuration="0/1" interpolaterName="linr"  />
            </ZoomPanKeyframes>
           </ZoomPanBin>
          </Entry>
         </ExtraData>
        </IMFile>
        <VMFile id="74" start="300" duration="594" scalar="1/1" mediaStart="0/1" mediaDuration="594/1" trackNumber="0" src="6" >
         <Transformer>
          <VectorParam id="75"  name="translation">
           <InterpolatingParam id="76" interp="linr"  time="-9999999/1" value="2.4596147341071628e-010" leadInLength="0/1"  />
           <InterpolatingParam id="77" interp="linr"  time="-9999999/1" value="-3.0411229090532288e-012" leadInLength="0/1"  />
           <InterpolatingParam id="78" interp="linr"  time="-9999999/1" value="0" leadInLength="0/1"  />
          </VectorParam>
          <VectorParam id="79"  name="rotation">
           <InterpolatingParam id="80" interp="linr"  time="-9999999/1" value="0" leadInLength="0/1"  />
           <InterpolatingParam id="81" interp="linr"  time="-9999999/1" value="0" leadInLength="0/1"  />
           <InterpolatingParam id="82" interp="linr"  time="-9999999/1" value="0" leadInLength="0/1"  />
          </VectorParam>
          <VectorParam id="83"  name="shear">
           <InterpolatingParam id="84" interp="linr"  time="-9999999/1" value="0" leadInLength="0/1"  />
           <InterpolatingParam id="85" interp="linr"  time="-9999999/1" value="0" leadInLength="0/1"  />
           <InterpolatingParam id="86" interp="linr"  time="-9999999/1" value="0" leadInLength="0/1"  />
          </VectorParam>
          <VectorParam id="87"  name="scale">
           <InterpolatingParam id="88" interp="linr"  time="-9999999/1" value="1.5000000000003055" leadInLength="0/1"  />
           <InterpolatingParam id="89" interp="linr"  time="-9999999/1" value="1.5000000000003055" leadInLength="0/1"  />
           <InterpolatingParam id="90" interp="linr"  time="-9999999/1" value="1" leadInLength="0/1"  />
          </VectorParam>
          <VectorParam id="91"  name="anchor">
           <InterpolatingParam id="92" interp="linr"  time="0/1" value="0" leadInLength="0/1"  />
           <InterpolatingParam id="93" interp="linr"  time="0/1" value="0" leadInLength="0/1"  />
           <InterpolatingParam id="94" interp="linr"  time="0/1" value="0" leadInLength="0/1"  />
          </VectorParam>
         </Transformer>
         <Parameters>
          <VectorParam id="95"  name="sourceCrop">
           <InterpolatingParam id="96" interp="linr"  time="0/1" value="0" leadInLength="0/1"  />
           <InterpolatingParam id="97" interp="linr"  time="0/1" value="0" leadInLength="0/1"  />
           <InterpolatingParam id="98" interp="linr"  time="0/1" value="0" leadInLength="0/1"  />
           <InterpolatingParam id="99" interp="linr"  time="0/1" value="0" leadInLength="0/1"  />
          </VectorParam>
          <VectorParam id="100"  name="geometryCrop">
           <InterpolatingParam id="101" interp="linr"  time="-9999999/1" value="0" leadInLength="0/1"  />
           <InterpolatingParam id="102" interp="linr"  time="-9999999/1" value="0" leadInLength="0/1"  />
           <InterpolatingParam id="103" interp="linr"  time="-9999999/1" value="0" leadInLength="0/1"  />
           <InterpolatingParam id="104" interp="linr"  time="-9999999/1" value="0" leadInLength="0/1"  />
          </VectorParam>
          <InterpolatingParam id="105" interp="linr"  time="-9999999/1" value="1" leadInLength="0/1"  name="opacity"/>
         </Parameters>
         <Attributes>
          <Attribute id="106" value="" name="ident"/>
         </Attributes>
         <MetaData>
          <entry key="WinSubProjectDisplayName" val=""/>
         </MetaData>
         <ExtraData>
          <Entry key="ZoomPanBin">
           <ZoomPanBin id="107"  >
            <ZoomPanKeyframes>
             <ZoomPanKeyframe id="108" timeRangeEnd="-9999999/1" timeRangeDuration="0/1" interpolaterName="linr"  />
            </ZoomPanKeyframes>
           </ZoomPanBin>
          </Entry>
         </ExtraData>
        </VMFile>
        <AMFile id="109" start="894" duration="3541" scalar="1/1" mediaStart="0/1" mediaDuration="3541/1" trackNumber="2" src="5" channelNumber="0,1" >
         <Parameters>
          <InterpolatingParam id="110" interp="linr"  time="0/1" value="1" leadInLength="0/1"  name="volume"/>
          <Parameter id="111"  name="captions"/>
         </Parameters>
         <Attributes>
          <Attribute id="112" value="" name="ident"/>
          <Attribute id="113" value="44100" name="sampleRate"/>
          <Attribute id="114" value="16" name="bitDepth"/>
          <Attribute id="115" value="1" name="gain"/>
          <Attribute id="116" value="0" name="mixToMono"/>
         </Attributes>
         <MetaData>
          <entry key="WinSubProjectDisplayName" val=""/>
         </MetaData>
        </AMFile>
        <AMFile id="117" start="4435" duration="4149" scalar="1/1" mediaStart="0/1" mediaDuration="4149/1" trackNumber="2" src="7" channelNumber="0,1" >
         <Parameters>
          <InterpolatingParam id="118" interp="linr"  time="0/1" value="1" leadInLength="0/1"  name="volume"/>
          <Parameter id="119"  name="captions"/>
         </Parameters>
         <Attributes>
          <Attribute id="120" value="" name="ident"/>
          <Attribute id="121" value="44100" name="sampleRate"/>
          <Attribute id="122" value="16" name="bitDepth"/>
          <Attribute id="123" value="1" name="gain"/>
          <Attribute id="124" value="0" name="mixToMono"/>
         </Attributes>
         <MetaData>
          <entry key="WinSubProjectDisplayName" val=""/>
         </MetaData>
        </AMFile>
        <AMFile id="125" start="8584" duration="10583" scalar="1/1" mediaStart="0/1" mediaDuration="10583/1" trackNumber="2" src="8" channelNumber="0,1" >
         <Parameters>
          <InterpolatingParam id="126" interp="linr"  time="0/1" value="1" leadInLength="0/1"  name="volume"/>
          <Parameter id="127"  name="captions"/>
         </Parameters>
         <Attributes>
          <Attribute id="128" value="" name="ident"/>
          <Attribute id="129" value="44100" name="sampleRate"/>
          <Attribute id="130" value="16" name="bitDepth"/>
          <Attribute id="131" value="1" name="gain"/>
          <Attribute id="132" value="0" name="mixToMono"/>
         </Attributes>
         <MetaData>
          <entry key="WinSubProjectDisplayName" val=""/>
         </MetaData>
        </AMFile>
        <AMFile id="133" start="19167" duration="7476" scalar="1/1" mediaStart="0/1" mediaDuration="7476/1" trackNumber="2" src="9" channelNumber="0,1" >
         <Parameters>
          <InterpolatingParam id="134" interp="linr"  time="0/1" value="1" leadInLength="0/1"  name="volume"/>
          <Parameter id="135"  name="captions"/>
         </Parameters>
         <Attributes>
          <Attribute id="136" value="" name="ident"/>
          <Attribute id="137" value="44100" name="sampleRate"/>
          <Attribute id="138" value="16" name="bitDepth"/>
          <Attribute id="139" value="1" name="gain"/>
          <Attribute id="140" value="0" name="mixToMono"/>
         </Attributes>
         <MetaData>
          <entry key="WinSubProjectDisplayName" val=""/>
         </MetaData>
        </AMFile>
        <AMFile id="141" start="26643" duration="9480" scalar="1/1" mediaStart="0/1" mediaDuration="9480/1" trackNumber="2" src="10" channelNumber="0,1" >
         <Parameters>
          <InterpolatingParam id="142" interp="linr"  time="0/1" value="1" leadInLength="0/1"  name="volume"/>
          <Parameter id="143"  name="captions"/>
         </Parameters>
         <Attributes>
          <Attribute id="144" value="" name="ident"/>
          <Attribute id="145" value="44100" name="sampleRate"/>
          <Attribute id="146" value="16" name="bitDepth"/>
          <Attribute id="147" value="1" name="gain"/>
          <Attribute id="148" value="0" name="mixToMono"/>
         </Attributes>
         <MetaData>
          <entry key="WinSubProjectDisplayName" val=""/>
         </MetaData>
        </AMFile>
        <AMFile id="149" start="36123" duration="5610" scalar="1/1" mediaStart="0/1" mediaDuration="5610/1" trackNumber="2" src="11" channelNumber="0,1" >
         <Parameters>
          <InterpolatingParam id="150" interp="linr"  time="0/1" value="1" leadInLength="0/1"  name="volume"/>
          <Parameter id="151"  name="captions"/>
         </Parameters>
         <Attributes>
          <Attribute id="152" value="" name="ident"/>
          <Attribute id="153" value="44100" name="sampleRate"/>
          <Attribute id="154" value="16" name="bitDepth"/>
          <Attribute id="155" value="1" name="gain"/>
          <Attribute id="156" value="0" name="mixToMono"/>
         </Attributes>
         <MetaData>
          <entry key="WinSubProjectDisplayName" val=""/>
         </MetaData>
        </AMFile>
        <UnifiedMedia id="157"  >
         <AMFile id="158" start="41733" duration="10786" scalar="1/1" mediaStart="0/1" mediaDuration="10786/1" trackNumber="1" src="12" channelNumber="0,1" >
          <Parameters>
           <InterpolatingParam id="159" interp="linr"  time="0/1" value="1" leadInLength="0/1"  name="volume"/>
           <Parameter id="160"  name="captions"/>
          </Parameters>
          <Attributes>
           <Attribute id="161" value="" name="ident"/>
           <Attribute id="162" value="44100" name="sampleRate"/>
           <Attribute id="163" value="16" name="bitDepth"/>
           <Attribute id="164" value="1" name="gain"/>
           <Attribute id="165" value="0" name="mixToMono"/>
          </Attributes>
         </AMFile>
         <ScreenVMFile id="166" start="41733" duration="10786" scalar="1/1" mediaStart="0/1" mediaDuration="10786/1" trackNumber="0" src="12" >
          <Transformer>
           <VectorParam id="167"  name="translation">
            <InterpolatingParam id="168" interp="linr"  time="-9999999/1" value="2.4937563125604356e-010" leadInLength="0/1"  />
            <InterpolatingParam id="169" interp="linr"  time="-9999999/1" value="-11.706890423169774" leadInLength="0/1"  />
            <InterpolatingParam id="170" interp="linr"  time="-9999999/1" value="-3.4106051316471512e-010" leadInLength="0/1"  />
           </VectorParam>
           <VectorParam id="171"  name="rotation">
            <InterpolatingParam id="172" interp="linr"  time="-9999999/1" value="0" leadInLength="0/1"  />
            <InterpolatingParam id="173" interp="linr"  time="-9999999/1" value="0" leadInLength="0/1"  />
            <InterpolatingParam id="174" interp="linr"  time="-9999999/1" value="0" leadInLength="0/1"  />
           </VectorParam>
           <VectorParam id="175"  name="shear">
            <InterpolatingParam id="176" interp="linr"  time="-9999999/1" value="0" leadInLength="0/1"  />
            <InterpolatingParam id="177" interp="linr"  time="-9999999/1" value="0" leadInLength="0/1"  />
            <InterpolatingParam id="178" interp="linr"  time="-9999999/1" value="0" leadInLength="0/1"  />
           </VectorParam>
           <VectorParam id="179"  name="scale">
            <InterpolatingParam id="180" interp="linr"  time="-9999999/1" value="1.8250950570342297" leadInLength="0/1"  />
            <InterpolatingParam id="181" interp="linr"  time="-9999999/1" value="1.8250950570342297" leadInLength="0/1"  />
            <InterpolatingParam id="182" interp="linr"  time="-9999999/1" value="1" leadInLength="0/1"  />
           </VectorParam>
           <VectorParam id="183"  name="anchor">
            <InterpolatingParam id="184" interp="linr"  time="0/1" value="0" leadInLength="0/1"  />
            <InterpolatingParam id="185" interp="linr"  time="0/1" value="0" leadInLength="0/1"  />
            <InterpolatingParam id="186" interp="linr"  time="0/1" value="0" leadInLength="0/1"  />
           </VectorParam>
          </Transformer>
          <Parameters>
           <VectorParam id="187"  name="sourceCrop">
            <InterpolatingParam id="188" interp="linr"  time="0/1" value="0" leadInLength="0/1"  />
            <InterpolatingParam id="189" interp="linr"  time="0/1" value="0" leadInLength="0/1"  />
            <InterpolatingParam id="190" interp="linr"  time="0/1" value="0" leadInLength="0/1"  />
            <InterpolatingParam id="191" interp="linr"  time="0/1" value="0" leadInLength="0/1"  />
           </VectorParam>
           <VectorParam id="192"  name="geometryCrop">
            <InterpolatingParam id="193" interp="linr"  time="-9999999/1" value="0" leadInLength="0/1"  />
            <InterpolatingParam id="194" interp="linr"  time="-9999999/1" value="0" leadInLength="0/1"  />
            <InterpolatingParam id="195" interp="linr"  time="-9999999/1" value="0" leadInLength="0/1"  />
            <InterpolatingParam id="196" interp="linr"  time="-9999999/1" value="0" leadInLength="0/1"  />
           </VectorParam>
           <InterpolatingParam id="197" interp="linr"  time="-9999999/1" value="1" leadInLength="0/1"  name="opacity"/>
           <InterpolatingParam id="198" interp="linr"  time="0/1" value="1" leadInLength="0/1"  name="cursorOpacity"/>
           <InterpolatingParam id="199" interp="linr"  time="0/1" value="1" leadInLength="0/1"  name="cursorScale"/>
          </Parameters>
          <Effects>
           <GenericEffect id="200" name = "CursorBaseEffectName" >
            <Parameters>
            <InterpolatingParam id="201" interp="linr"  time="-9999999/1" value="1" leadInLength="0/1"   name="cursorSize"/>
            <InterpolatingParam id="202" interp="linr"  time="-9999999/1" value="0" leadInLength="0/1"   name="highlightBlurRadius"/>
            <InterpolatingParam id="203" interp="linr"  time="-9999999/1" value="0" leadInLength="0/1"   name="highlightColorBlue"/>
            <InterpolatingParam id="204" interp="linr"  time="-9999999/1" value="255" leadInLength="0/1"   name="highlightColorGreen"/>
            <InterpolatingParam id="205" interp="linr"  time="-9999999/1" value="255" leadInLength="0/1"   name="highlightColorRed"/>
            <InterpolatingParam id="206" interp="linr"  time="-9999999/1" value="5" leadInLength="0/1"   name="highlightFeatherSize"/>
            <InterpolatingParam id="207" interp="linr"  time="-9999999/1" value="2" leadInLength="0/1"   name="highlightMagnification"/>
            <InterpolatingParam id="208" interp="linr"  time="-9999999/1" value="1" leadInLength="0/1"   name="highlightOpacity"/>
            <InterpolatingParam id="209" interp="linr"  time="-9999999/1" value="45" leadInLength="0/1"   name="highlightSize"/>
            <Parameter id="210"   name="highlightType">
             <Keyframes>
             <Keyframe id="211"  time="-9999999/1" value="0" leadInLength="0/1"  />
             </Keyframes>
            </Parameter>
            <InterpolatingParam id="212" interp="linr"  time="-9999999/1" value="0" leadInLength="0/1"   name="leftClickColorBlue"/>
            <InterpolatingParam id="213" interp="linr"  time="-9999999/1" value="0" leadInLength="0/1"   name="leftClickColorGreen"/>
            <InterpolatingParam id="214" interp="linr"  time="-9999999/1" value="255" leadInLength="0/1"   name="leftClickColorRed"/>
            <InterpolatingParam id="215" interp="linr"  time="-9999999/1" value="0.80000000000000004" leadInLength="0/1"   name="leftClickDuration"/>
            <InterpolatingParam id="216" interp="linr"  time="-9999999/1" value="20" leadInLength="0/1"   name="leftClickSize"/>
            <Parameter id="217"   name="leftClickSoundFilename">
             <Keyframes>
             <Keyframe id="218"  time="-9999999/1" value="" leadInLength="0/1"  />
             </Keyframes>
            </Parameter>
            <InterpolatingParam id="219" interp="linr"  time="-9999999/1" value="1" leadInLength="0/1"   name="leftClickSoundVolume"/>
            <Parameter id="220"   name="leftClickType">
             <Keyframes>
             <Keyframe id="221"  time="-9999999/1" value="0" leadInLength="0/1"  />
             </Keyframes>
            </Parameter>
            <InterpolatingParam id="222" interp="linr"  time="-9999999/1" value="1" leadInLength="0/1"   name="opacity"/>
            <InterpolatingParam id="223" interp="linr"  time="-9999999/1" value="255" leadInLength="0/1"   name="rightClickColorBlue"/>
            <InterpolatingParam id="224" interp="linr"  time="-9999999/1" value="0" leadInLength="0/1"   name="rightClickColorGreen"/>
            <InterpolatingParam id="225" interp="linr"  time="-9999999/1" value="0" leadInLength="0/1"   name="rightClickColorRed"/>
            <InterpolatingParam id="226" interp="linr"  time="-9999999/1" value="0.80000000000000004" leadInLength="0/1"   name="rightClickDuration"/>
            <InterpolatingParam id="227" interp="linr"  time="-9999999/1" value="20" leadInLength="0/1"   name="rightClickSize"/>
            <Parameter id="228"   name="rightClickSoundFilename">
             <Keyframes>
             <Keyframe id="229"  time="-9999999/1" value="" leadInLength="0/1"  />
             </Keyframes>
            </Parameter>
            <InterpolatingParam id="230" interp="linr"  time="-9999999/1" value="1" leadInLength="0/1"   name="rightClickSoundVolume"/>
            <Parameter id="231"   name="rightClickType">
             <Keyframes>
             <Keyframe id="232"  time="-9999999/1" value="0" leadInLength="0/1"  />
             </Keyframes>
            </Parameter>
            </Parameters>
            <MetaData>
             <entry key="effectIndex" val="0"/>
            </MetaData>
           </GenericEffect>
          </Effects>
          <Attributes>
           <Attribute id="233" value="" name="ident"/>
          </Attributes>
          <ExtraData>
           <Entry key="ZoomPanBin">
            <ZoomPanBin id="234"  >
             <ZoomPanKeyframes>
              <ZoomPanKeyframe id="235" timeRangeEnd="-9999999/1" timeRangeDuration="0/1" interpolaterName="linr"  />
             </ZoomPanKeyframes>
            </ZoomPanBin>
           </Entry>
           <Entry key="CursorEffectBin">
            <CursorEffectBin id="236"  >
             <CursorEffectKeyframes>
              <CursorEffectKeyframe id="237" timeRangeEnd="-9999999/1" timeRangeDuration="0/1" interpolaterName=""  />
             </CursorEffectKeyframes>
            </CursorEffectBin>
           </Entry>
          </ExtraData>
         </ScreenVMFile>
         <MetaData>
          <entry key="AutoAppliedSmartFocus" val="False"/>
          <entry key="WinSubProjectDisplayName" val=""/>
         </MetaData>
        </UnifiedMedia>
        <IMFile id="238" start="52519" duration="300" scalar="1/1" mediaStart="0/1" mediaDuration="1/1" trackNumber="0" src="4" trimStartSum="0/1" >
         <Transformer>
          <VectorParam id="239"  name="translation">
           <InterpolatingParam id="240" interp="linr"  time="-9999999/1" value="602.95352986211378" leadInLength="0/1"  />
           <InterpolatingParam id="241" interp="linr"  time="-9999999/1" value="-14.094357829679078" leadInLength="0/1"  />
           <InterpolatingParam id="242" interp="linr"  time="-9999999/1" value="0" leadInLength="0/1"  />
          </VectorParam>
          <VectorParam id="243"  name="rotation">
           <InterpolatingParam id="244" interp="linr"  time="-9999999/1" value="0" leadInLength="0/1"  />
           <InterpolatingParam id="245" interp="linr"  time="-9999999/1" value="0" leadInLength="0/1"  />
           <InterpolatingParam id="246" interp="linr"  time="-9999999/1" value="0" leadInLength="0/1"  />
          </VectorParam>
          <VectorParam id="247"  name="shear">
           <InterpolatingParam id="248" interp="linr"  time="-9999999/1" value="0" leadInLength="0/1"  />
           <InterpolatingParam id="249" interp="linr"  time="-9999999/1" value="0" leadInLength="0/1"  />
           <InterpolatingParam id="250" interp="linr"  time="-9999999/1" value="0" leadInLength="0/1"  />
          </VectorParam>
          <VectorParam id="251"  name="scale">
           <InterpolatingParam id="252" interp="linr"  time="-9999999/1" value="1.099845414831198" leadInLength="0/1"  />
           <InterpolatingParam id="253" interp="linr"  time="-9999999/1" value="1.099845414831198" leadInLength="0/1"  />
           <InterpolatingParam id="254" interp="linr"  time="-9999999/1" value="0.99999999999999933" leadInLength="0/1"  />
          </VectorParam>
          <VectorParam id="255"  name="anchor">
           <InterpolatingParam id="256" interp="linr"  time="0/1" value="0" leadInLength="0/1"  />
           <InterpolatingParam id="257" interp="linr"  time="0/1" value="0" leadInLength="0/1"  />
           <InterpolatingParam id="258" interp="linr"  time="0/1" value="0" leadInLength="0/1"  />
          </VectorParam>
         </Transformer>
         <Parameters>
          <VectorParam id="259"  name="sourceCrop">
           <InterpolatingParam id="260" interp="linr"  time="0/1" value="0" leadInLength="0/1"  />
           <InterpolatingParam id="261" interp="linr"  time="0/1" value="0" leadInLength="0/1"  />
           <InterpolatingParam id="262" interp="linr"  time="0/1" value="0" leadInLength="0/1"  />
           <InterpolatingParam id="263" interp="linr"  time="0/1" value="0" leadInLength="0/1"  />
          </VectorParam>
          <VectorParam id="264"  name="geometryCrop">
           <InterpolatingParam id="265" interp="linr"  time="-9999999/1" value="0" leadInLength="0/1"  />
           <InterpolatingParam id="266" interp="linr"  time="-9999999/1" value="0" leadInLength="0/1"  />
           <InterpolatingParam id="267" interp="linr"  time="-9999999/1" value="0" leadInLength="0/1"  />
           <InterpolatingParam id="268" interp="linr"  time="-9999999/1" value="0" leadInLength="0/1"  />
          </VectorParam>
          <InterpolatingParam id="269" interp="linr"  time="-9999999/1" value="1" leadInLength="0/1"  name="opacity"/>
         </Parameters>
         <Effects>
          <GenericEffect id="270" name = "TextEffect" >
           <Parameters>
           <Parameter id="271"   name="text">
            <Keyframes>
            <Keyframe id="272"  time="0/1" value="{\rtf1\ansi\ansicpg1252\deff0\deflang1033{\fonttbl{\f0\fnil\fcharset0 Arial;}}&#xD;&#xa;\viewkind4\uc1\pard\qc\fs36\par&#xD;&#xa;}&#xD;&#xa;" leadInLength="0/1"  />
            </Keyframes>
           </Parameter>
           <InterpolatingParam id="273" interp="linr"  time="0/1" value="0" leadInLength="0/1"   name="textDimensionTime"/>
           <Parameter id="274"   name="textDropShadow">
            <Keyframes>
            <Keyframe id="275"  time="0/1" value="0" leadInLength="0/1"  />
            </Keyframes>
           </Parameter>
           <Parameter id="276"   name="textIgnoresOpacity">
            <Keyframes>
            <Keyframe id="277"  time="0/1" value="0" leadInLength="0/1"  />
            </Keyframes>
           </Parameter>
           <InterpolatingParam id="278" interp="linr"  time="0/1" value="1" leadInLength="0/1"   name="textRectHeight"/>
           <InterpolatingParam id="279" interp="linr"  time="0/1" value="1" leadInLength="0/1"   name="textRectWidth"/>
           <InterpolatingParam id="280" interp="linr"  time="0/1" value="0" leadInLength="0/1"   name="textRectX"/>
           <InterpolatingParam id="281" interp="linr"  time="0/1" value="0" leadInLength="0/1"   name="textRectY"/>
           <Parameter id="282"   name="textVerticalAlign">
            <Keyframes>
            <Keyframe id="283"  time="0/1" value="0" leadInLength="0/1"  />
            </Keyframes>
           </Parameter>
           </Parameters>
          </GenericEffect>
         </Effects>
         <Attributes>
          <Attribute id="284" value="" name="ident"/>
         </Attributes>
         <MetaData>
          <entry key="WinSubProjectDisplayName" val=""/>
         </MetaData>
         <ExtraData>
          <Entry key="ZoomPanBin">
           <ZoomPanBin id="285"  >
            <ZoomPanKeyframes>
             <ZoomPanKeyframe id="286" timeRangeEnd="-9999999/1" timeRangeDuration="0/1" interpolaterName="linr"  />
            </ZoomPanKeyframes>
           </ZoomPanBin>
          </Entry>
         </ExtraData>
        </IMFile>
       </Medias>
      </GenericTrack>
      <GenericTrack id="287"  >
       <Attributes>
        <Attribute id="288" value="" name="ident"/>
        <Attribute id="289" value="0" name="audioMuted"/>
        <Attribute id="290" value="0" name="videoHidden"/>
       </Attributes>
       <MetaData>
        <entry key="IsLocked" val="False"/>
        <entry key="WinTrackHeight" val="62"/>
       </MetaData>
       <Medias>
        <Callout id="291" start="0" duration="300" scalar="1/1" mediaStart="0/1" mediaDuration="300/1" >
         <Transformer>
          <VectorParam id="292"  name="translation">
           <InterpolatingParam id="293" interp="linr"  time="-9999999/1" value="-220.97560975673849" leadInLength="0/1"  />
           <InterpolatingParam id="294" interp="linr"  time="-9999999/1" value="2.3636204105059733e-011" leadInLength="0/1"  />
           <InterpolatingParam id="295" interp="linr"  time="-9999999/1" value="0" leadInLength="0/1"  />
          </VectorParam>
          <VectorParam id="296"  name="rotation">
           <InterpolatingParam id="297" interp="linr"  time="-9999999/1" value="0" leadInLength="0/1"  />
           <InterpolatingParam id="298" interp="linr"  time="-9999999/1" value="0" leadInLength="0/1"  />
           <InterpolatingParam id="299" interp="linr"  time="-9999999/1" value="0" leadInLength="0/1"  />
          </VectorParam>
          <VectorParam id="300"  name="shear">
           <InterpolatingParam id="301" interp="linr"  time="-9999999/1" value="0" leadInLength="0/1"  />
           <InterpolatingParam id="302" interp="linr"  time="-9999999/1" value="0" leadInLength="0/1"  />
           <InterpolatingParam id="303" interp="linr"  time="-9999999/1" value="0" leadInLength="0/1"  />
          </VectorParam>
          <VectorParam id="304"  name="scale">
           <InterpolatingParam id="305" interp="linr"  time="-9999999/1" value="2.3353658536601318" leadInLength="0/1"  />
           <InterpolatingParam id="306" interp="linr"  time="-9999999/1" value="2.5609756097553857" leadInLength="0/1"  />
           <InterpolatingParam id="307" interp="linr"  time="-9999999/1" value="1" leadInLength="0/1"  />
          </VectorParam>
          <VectorParam id="308"  name="anchor">
           <InterpolatingParam id="309" interp="linr"  time="0/1" value="0" leadInLength="0/1"  />
           <InterpolatingParam id="310" interp="linr"  time="0/1" value="0" leadInLength="0/1"  />
           <InterpolatingParam id="311" interp="linr"  time="0/1" value="0" leadInLength="0/1"  />
          </VectorParam>
         </Transformer>
         <Parameters>
          <VectorParam id="312"  name="sourceCrop">
           <InterpolatingParam id="313" interp="linr"  time="0/1" value="0" leadInLength="0/1"  />
           <InterpolatingParam id="314" interp="linr"  time="0/1" value="0" leadInLength="0/1"  />
           <InterpolatingParam id="315" interp="linr"  time="0/1" value="0" leadInLength="0/1"  />
           <InterpolatingParam id="316" interp="linr"  time="0/1" value="0" leadInLength="0/1"  />
          </VectorParam>
          <VectorParam id="317"  name="geometryCrop">
           <InterpolatingParam id="318" interp="linr"  time="-9999999/1" value="0" leadInLength="0/1"  />
           <InterpolatingParam id="319" interp="linr"  time="-9999999/1" value="0" leadInLength="0/1"  />
           <InterpolatingParam id="320" interp="linr"  time="-9999999/1" value="0" leadInLength="0/1"  />
           <InterpolatingParam id="321" interp="linr"  time="-9999999/1" value="0" leadInLength="0/1"  />
          </VectorParam>
          <InterpolatingParam id="322" interp="linr"  time="-9999999/1" value="1" leadInLength="0/1"  name="opacity"/>
         </Parameters>
         <Attributes>
          <Attribute id="323"  name="vectorNode">
           <VectorNode id="324" kind="TypeWinText"  >
            <DoubleParameters>
             <InterpolatingParam id="325" interp="linr"  time="0/1" value="5" leadInLength="0/1"  name="Style"/>
             <InterpolatingParam id="326" interp="linr"  time="0/1" value="0" leadInLength="0/1"  name="dimensionTime"/>
             <InterpolatingParam id="327" interp="linr"  time="0/1" value="270" leadInLength="0/1"  name="height"/>
             <InterpolatingParam id="328" interp="linr"  time="0/1" value="0" leadInLength="0/1"  name="textDropShadow"/>
             <InterpolatingParam id="329" interp="linr"  time="0/1" value="0" leadInLength="0/1"  name="textIgnoresOpacity"/>
             <InterpolatingParam id="330" interp="linr"  time="0/1" value="1" leadInLength="0/1"  name="textRectHeight"/>
             <InterpolatingParam id="331" interp="linr"  time="0/1" value="1" leadInLength="0/1"  name="textRectWidth"/>
             <InterpolatingParam id="332" interp="linr"  time="0/1" value="0" leadInLength="0/1"  name="textRectX"/>
             <InterpolatingParam id="333" interp="linr"  time="0/1" value="0" leadInLength="0/1"  name="textRectY"/>
             <InterpolatingParam id="334" interp="linr"  time="0/1" value="0" leadInLength="0/1"  name="textVerticalAlign"/>
             <InterpolatingParam id="335" interp="linr"  time="0/1" value="480" leadInLength="0/1"  name="width"/>
            </DoubleParameters>
            <StringParameters>
             <Parameter id="336"  name="filename">
              <Keyframes>
              <Keyframe id="337"  time="0/1" value="C:\Program Files (x86)\TechSmith\Camtasia Studio 8\Media\Studio\Callouts\trans_100x100.xml" leadInLength="0/1"  />
              </Keyframes>
             </Parameter>
             <Parameter id="338"  name="name">
              <Keyframes>
              <Keyframe id="339"  time="0/1" value="Text" leadInLength="0/1"  />
              </Keyframes>
             </Parameter>
             <Parameter id="340"  name="text">
              <Keyframes>
              <Keyframe id="341"  time="0/1" value="{\rtf1\ansi\ansicpg1252\deff0\deflang1033{\fonttbl{\f0\fswiss\fprq2\fcharset0 Arial;}}&#xD;&#xa;{\colortbl ;\red0\green0\blue0;}&#xD;&#xa;\viewkind4\uc1\pard\cf1\f0\fs144 Uncertainty and Error Propagation\par&#xD;&#xa;\fs96 Example: Odometry\par&#xD;&#xa;\par&#xD;&#xa;Nikolaus Correll\par&#xD;&#xa;\par&#xD;&#xa;\fs48 https://github.com/correll/Introduction-to-Autonomous-Robots\fs32\par&#xD;&#xa;}&#xD;&#xa;" leadInLength="0/1"  />
              </Keyframes>
             </Parameter>
             <Parameter id="342"  name="xmlContent">
              <Keyframes>
              <Keyframe id="343"  time="0/1" value="ï»¿&lt;?xml version=&quot;1.0&quot;?&gt;&#xa;&#xa;&lt;Overlay version=&quot;1.0.1&quot;&gt;&#xa;&#xa;&lt;Overlay_Filename&gt;trans_100x100.png&lt;/Overlay_Filename&gt;&#xa;&lt;Overlay_Name&gt;Text&lt;/Overlay_Name&gt;&#xa;&lt;Text_Top&gt;0&lt;/Text_Top&gt;&#xa;&lt;Text_Left&gt;0&lt;/Text_Left&gt;&#xa;&lt;Text_Bottom&gt;0&lt;/Text_Bottom&gt;&#xa;&lt;Text_Right&gt;0&lt;/Text_Right&gt;&#xa;&lt;Fill_Color&gt;0&lt;/Fill_Color&gt;&#xa;&lt;Border_Color&gt;0&lt;/Border_Color&gt;&#xa;&lt;Style&gt;5&lt;/Style&gt;&#xa;&lt;/Overlay&gt;" leadInLength="0/1"  />
              </Keyframes>
             </Parameter>
            </StringParameters>
           </VectorNode>
          </Attribute>
         </Attributes>
         <MetaData>
          <entry key="WinSubProjectDisplayName" val=""/>
         </MetaData>
         <LeftEdgeMods length="0/1" groupName="OpacityFade">
          <EdgeMod parameter="322">
           <FadeInFunc id="344"  />
          </EdgeMod>
         </LeftEdgeMods>
         <RightEdgeMods length="30/1" groupName="OpacityFade">
          <EdgeMod parameter="322">
           <FadeOutFunc id="345"  />
          </EdgeMod>
         </RightEdgeMods>
         <ExtraData>
          <Entry key="ZoomPanBin">
           <ZoomPanBin id="346"  >
            <ZoomPanKeyframes>
             <ZoomPanKeyframe id="347" timeRangeEnd="-9999999/1" timeRangeDuration="0/1" interpolaterName="linr"  />
            </ZoomPanKeyframes>
           </ZoomPanBin>
          </Entry>
         </ExtraData>
        </Callout>
        <UnifiedMedia id="348"  >
         <AMFile id="349" start="894" duration="3541" scalar="1/1" mediaStart="0/1" mediaDuration="3541/1" trackNumber="1" src="5" channelNumber="0,1" >
          <Parameters>
           <InterpolatingParam id="350" interp="linr"  time="0/1" value="1.25" leadInLength="0/1"  name="volume"/>
           <Parameter id="351"  name="captions"/>
          </Parameters>
          <Attributes>
           <Attribute id="352" value="" name="ident"/>
           <Attribute id="353" value="44100" name="sampleRate"/>
           <Attribute id="354" value="16" name="bitDepth"/>
           <Attribute id="355" value="1" name="gain"/>
           <Attribute id="356" value="0" name="mixToMono"/>
          </Attributes>
         </AMFile>
         <ScreenVMFile id="357" start="894" duration="3541" scalar="1/1" mediaStart="0/1" mediaDuration="3541/1" trackNumber="0" src="5" >
          <Transformer>
           <VectorParam id="358"  name="translation">
            <InterpolatingParam id="359" interp="linr"  time="-9999999/1" value="0" leadInLength="0/1"  />
            <InterpolatingParam id="360" interp="linr"  time="-9999999/1" value="0" leadInLength="0/1"  />
            <InterpolatingParam id="361" interp="linr"  time="-9999999/1" value="0" leadInLength="0/1"  />
           </VectorParam>
           <VectorParam id="362"  name="rotation">
            <InterpolatingParam id="363" interp="linr"  time="-9999999/1" value="0" leadInLength="0/1"  />
            <InterpolatingParam id="364" interp="linr"  time="-9999999/1" value="0" leadInLength="0/1"  />
            <InterpolatingParam id="365" interp="linr"  time="-9999999/1" value="0" leadInLength="0/1"  />
           </VectorParam>
           <VectorParam id="366"  name="shear">
            <InterpolatingParam id="367" interp="linr"  time="-9999999/1" value="0" leadInLength="0/1"  />
            <InterpolatingParam id="368" interp="linr"  time="-9999999/1" value="0" leadInLength="0/1"  />
            <InterpolatingParam id="369" interp="linr"  time="-9999999/1" value="0" leadInLength="0/1"  />
           </VectorParam>
           <VectorParam id="370"  name="scale">
            <InterpolatingParam id="371" interp="linr"  time="-9999999/1" value="1" leadInLength="0/1"  />
            <InterpolatingParam id="372" interp="linr"  time="-9999999/1" value="1" leadInLength="0/1"  />
            <InterpolatingParam id="373" interp="linr"  time="-9999999/1" value="1" leadInLength="0/1"  />
           </VectorParam>
           <VectorParam id="374"  name="anchor">
            <InterpolatingParam id="375" interp="linr"  time="0/1" value="0" leadInLength="0/1"  />
            <InterpolatingParam id="376" interp="linr"  time="0/1" value="0" leadInLength="0/1"  />
            <InterpolatingParam id="377" interp="linr"  time="0/1" value="0" leadInLength="0/1"  />
           </VectorParam>
          </Transformer>
          <Parameters>
           <VectorParam id="378"  name="sourceCrop">
            <InterpolatingParam id="379" interp="linr"  time="0/1" value="0" leadInLength="0/1"  />
            <InterpolatingParam id="380" interp="linr"  time="0/1" value="0" leadInLength="0/1"  />
            <InterpolatingParam id="381" interp="linr"  time="0/1" value="0" leadInLength="0/1"  />
            <InterpolatingParam id="382" interp="linr"  time="0/1" value="0" leadInLength="0/1"  />
           </VectorParam>
           <VectorParam id="383"  name="geometryCrop">
            <InterpolatingParam id="384" interp="linr"  time="-9999999/1" value="0" leadInLength="0/1"  />
            <InterpolatingParam id="385" interp="linr"  time="-9999999/1" value="0" leadInLength="0/1"  />
            <InterpolatingParam id="386" interp="linr"  time="-9999999/1" value="0" leadInLength="0/1"  />
            <InterpolatingParam id="387" interp="linr"  time="-9999999/1" value="0" leadInLength="0/1"  />
           </VectorParam>
           <InterpolatingParam id="388" interp="linr"  time="-9999999/1" value="1" leadInLength="0/1"  name="opacity"/>
           <Parameter id="389"  name="toc">
            <Keyframes>
            <Keyframe id="390"  time="0/1" value="Slide 1" leadInLength="0/1"  >
             <MetaData>
              <entry key="Checked" val="True"/>
              <entry key="IndentLevel" val="0"/>
             </MetaData>
            </Keyframe>
            </Keyframes>
           </Parameter>
           <InterpolatingParam id="391" interp="linr"  time="0/1" value="1" leadInLength="0/1"  name="cursorOpacity"/>
           <InterpolatingParam id="392" interp="linr"  time="0/1" value="1" leadInLength="0/1"  name="cursorScale"/>
          </Parameters>
          <Effects>
           <GenericEffect id="393" name = "CursorBaseEffectName" >
            <Parameters>
            <InterpolatingParam id="394" interp="linr"  time="-9999999/1" value="1" leadInLength="0/1"   name="cursorSize"/>
            <InterpolatingParam id="395" interp="linr"  time="-9999999/1" value="0" leadInLength="0/1"   name="highlightBlurRadius"/>
            <InterpolatingParam id="396" interp="linr"  time="-9999999/1" value="0" leadInLength="0/1"   name="highlightColorBlue"/>
            <InterpolatingParam id="397" interp="linr"  time="-9999999/1" value="255" leadInLength="0/1"   name="highlightColorGreen"/>
            <InterpolatingParam id="398" interp="linr"  time="-9999999/1" value="255" leadInLength="0/1"   name="highlightColorRed"/>
            <InterpolatingParam id="399" interp="linr"  time="-9999999/1" value="5" leadInLength="0/1"   name="highlightFeatherSize"/>
            <InterpolatingParam id="400" interp="linr"  time="-9999999/1" value="2" leadInLength="0/1"   name="highlightMagnification"/>
            <InterpolatingParam id="401" interp="linr"  time="-9999999/1" value="1" leadInLength="0/1"   name="highlightOpacity"/>
            <InterpolatingParam id="402" interp="linr"  time="-9999999/1" value="45" leadInLength="0/1"   name="highlightSize"/>
            <Parameter id="403"   name="highlightType">
             <Keyframes>
             <Keyframe id="404"  time="-9999999/1" value="0" leadInLength="0/1"  />
             </Keyframes>
            </Parameter>
            <InterpolatingParam id="405" interp="linr"  time="-9999999/1" value="0" leadInLength="0/1"   name="leftClickColorBlue"/>
            <InterpolatingParam id="406" interp="linr"  time="-9999999/1" value="0" leadInLength="0/1"   name="leftClickColorGreen"/>
            <InterpolatingParam id="407" interp="linr"  time="-9999999/1" value="255" leadInLength="0/1"   name="leftClickColorRed"/>
            <InterpolatingParam id="408" interp="linr"  time="-9999999/1" value="0.80000000000000004" leadInLength="0/1"   name="leftClickDuration"/>
            <InterpolatingParam id="409" interp="linr"  time="-9999999/1" value="20" leadInLength="0/1"   name="leftClickSize"/>
            <Parameter id="410"   name="leftClickSoundFilename">
             <Keyframes>
             <Keyframe id="411"  time="-9999999/1" value="" leadInLength="0/1"  />
             </Keyframes>
            </Parameter>
            <InterpolatingParam id="412" interp="linr"  time="-9999999/1" value="1" leadInLength="0/1"   name="leftClickSoundVolume"/>
            <Parameter id="413"   name="leftClickType">
             <Keyframes>
             <Keyframe id="414"  time="-9999999/1" value="0" leadInLength="0/1"  />
             </Keyframes>
            </Parameter>
            <InterpolatingParam id="415" interp="linr"  time="-9999999/1" value="1" leadInLength="0/1"   name="opacity"/>
            <InterpolatingParam id="416" interp="linr"  time="-9999999/1" value="255" leadInLength="0/1"   name="rightClickColorBlue"/>
            <InterpolatingParam id="417" interp="linr"  time="-9999999/1" value="0" leadInLength="0/1"   name="rightClickColorGreen"/>
            <InterpolatingParam id="418" interp="linr"  time="-9999999/1" value="0" leadInLength="0/1"   name="rightClickColorRed"/>
            <InterpolatingParam id="419" interp="linr"  time="-9999999/1" value="0.80000000000000004" leadInLength="0/1"   name="rightClickDuration"/>
            <InterpolatingParam id="420" interp="linr"  time="-9999999/1" value="20" leadInLength="0/1"   name="rightClickSize"/>
            <Parameter id="421"   name="rightClickSoundFilename">
             <Keyframes>
             <Keyframe id="422"  time="-9999999/1" value="" leadInLength="0/1"  />
             </Keyframes>
            </Parameter>
            <InterpolatingParam id="423" interp="linr"  time="-9999999/1" value="1" leadInLength="0/1"   name="rightClickSoundVolume"/>
            <Parameter id="424"   name="rightClickType">
             <Keyframes>
             <Keyframe id="425"  time="-9999999/1" value="0" leadInLength="0/1"  />
             </Keyframes>
            </Parameter>
            </Parameters>
            <MetaData>
             <entry key="effectIndex" val="0"/>
            </MetaData>
           </GenericEffect>
          </Effects>
          <Attributes>
           <Attribute id="426" value="" name="ident"/>
          </Attributes>
          <ExtraData>
           <Entry key="ZoomPanBin">
            <ZoomPanBin id="427"  >
             <ZoomPanKeyframes>
              <ZoomPanKeyframe id="428" timeRangeEnd="-9999999/1" timeRangeDuration="0/1" interpolaterName="linr"  />
             </ZoomPanKeyframes>
            </ZoomPanBin>
           </Entry>
           <Entry key="CursorEffectBin">
            <CursorEffectBin id="429"  >
             <CursorEffectKeyframes>
              <CursorEffectKeyframe id="430" timeRangeEnd="-9999999/1" timeRangeDuration="0/1" interpolaterName=""  />
             </CursorEffectKeyframes>
            </CursorEffectBin>
           </Entry>
          </ExtraData>
         </ScreenVMFile>
         <MetaData>
          <entry key="AutoAppliedSmartFocus" val="False"/>
          <entry key="WinSubProjectDisplayName" val=""/>
         </MetaData>
        </UnifiedMedia>
        <UnifiedMedia id="431"  >
         <AMFile id="432" start="4435" duration="4149" scalar="1/1" mediaStart="0/1" mediaDuration="4149/1" trackNumber="1" src="7" channelNumber="0,1" >
          <Parameters>
           <InterpolatingParam id="433" interp="linr"  time="0/1" value="1" leadInLength="0/1"  name="volume"/>
           <Parameter id="434"  name="captions"/>
          </Parameters>
          <Attributes>
           <Attribute id="435" value="" name="ident"/>
           <Attribute id="436" value="44100" name="sampleRate"/>
           <Attribute id="437" value="16" name="bitDepth"/>
           <Attribute id="438" value="1" name="gain"/>
           <Attribute id="439" value="0" name="mixToMono"/>
          </Attributes>
         </AMFile>
         <ScreenVMFile id="440" start="4435" duration="4149" scalar="1/1" mediaStart="0/1" mediaDuration="4149/1" trackNumber="0" src="7" >
          <Transformer>
           <VectorParam id="441"  name="translation">
            <InterpolatingParam id="442" interp="linr"  time="-9999999/1" value="0" leadInLength="0/1"  />
            <InterpolatingParam id="443" interp="linr"  time="-9999999/1" value="0" leadInLength="0/1"  />
            <InterpolatingParam id="444" interp="linr"  time="-9999999/1" value="0" leadInLength="0/1"  />
           </VectorParam>
           <VectorParam id="445"  name="rotation">
            <InterpolatingParam id="446" interp="linr"  time="-9999999/1" value="0" leadInLength="0/1"  />
            <InterpolatingParam id="447" interp="linr"  time="-9999999/1" value="0" leadInLength="0/1"  />
            <InterpolatingParam id="448" interp="linr"  time="-9999999/1" value="0" leadInLength="0/1"  />
           </VectorParam>
           <VectorParam id="449"  name="shear">
            <InterpolatingParam id="450" interp="linr"  time="-9999999/1" value="0" leadInLength="0/1"  />
            <InterpolatingParam id="451" interp="linr"  time="-9999999/1" value="0" leadInLength="0/1"  />
            <InterpolatingParam id="452" interp="linr"  time="-9999999/1" value="0" leadInLength="0/1"  />
           </VectorParam>
           <VectorParam id="453"  name="scale">
            <InterpolatingParam id="454" interp="linr"  time="-9999999/1" value="1" leadInLength="0/1"  />
            <InterpolatingParam id="455" interp="linr"  time="-9999999/1" value="1" leadInLength="0/1"  />
            <InterpolatingParam id="456" interp="linr"  time="-9999999/1" value="1" leadInLength="0/1"  />
           </VectorParam>
           <VectorParam id="457"  name="anchor">
            <InterpolatingParam id="458" interp="linr"  time="0/1" value="0" leadInLength="0/1"  />
            <InterpolatingParam id="459" interp="linr"  time="0/1" value="0" leadInLength="0/1"  />
            <InterpolatingParam id="460" interp="linr"  time="0/1" value="0" leadInLength="0/1"  />
           </VectorParam>
          </Transformer>
          <Parameters>
           <VectorParam id="461"  name="sourceCrop">
            <InterpolatingParam id="462" interp="linr"  time="0/1" value="0" leadInLength="0/1"  />
            <InterpolatingParam id="463" interp="linr"  time="0/1" value="0" leadInLength="0/1"  />
            <InterpolatingParam id="464" interp="linr"  time="0/1" value="0" leadInLength="0/1"  />
            <InterpolatingParam id="465" interp="linr"  time="0/1" value="0" leadInLength="0/1"  />
           </VectorParam>
           <VectorParam id="466"  name="geometryCrop">
            <InterpolatingParam id="467" interp="linr"  time="-9999999/1" value="0" leadInLength="0/1"  />
            <InterpolatingParam id="468" interp="linr"  time="-9999999/1" value="0" leadInLength="0/1"  />
            <InterpolatingParam id="469" interp="linr"  time="-9999999/1" value="0" leadInLength="0/1"  />
            <InterpolatingParam id="470" interp="linr"  time="-9999999/1" value="0" leadInLength="0/1"  />
           </VectorParam>
           <InterpolatingParam id="471" interp="linr"  time="-9999999/1" value="1" leadInLength="0/1"  name="opacity"/>
           <Parameter id="472"  name="toc">
            <Keyframes>
            <Keyframe id="473"  time="0/1" value="Error Propagation Law" leadInLength="0/1"  >
             <MetaData>
              <entry key="Checked" val="True"/>
              <entry key="IndentLevel" val="0"/>
             </MetaData>
            </Keyframe>
            </Keyframes>
           </Parameter>
           <InterpolatingParam id="474" interp="linr"  time="0/1" value="1" leadInLength="0/1"  name="cursorOpacity"/>
           <InterpolatingParam id="475" interp="linr"  time="0/1" value="1" leadInLength="0/1"  name="cursorScale"/>
          </Parameters>
          <Effects>
           <GenericEffect id="476" name = "CursorBaseEffectName" >
            <Parameters>
            <InterpolatingParam id="477" interp="linr"  time="-9999999/1" value="1" leadInLength="0/1"   name="cursorSize"/>
            <InterpolatingParam id="478" interp="linr"  time="-9999999/1" value="0" leadInLength="0/1"   name="highlightBlurRadius"/>
            <InterpolatingParam id="479" interp="linr"  time="-9999999/1" value="0" leadInLength="0/1"   name="highlightColorBlue"/>
            <InterpolatingParam id="480" interp="linr"  time="-9999999/1" value="255" leadInLength="0/1"   name="highlightColorGreen"/>
            <InterpolatingParam id="481" interp="linr"  time="-9999999/1" value="255" leadInLength="0/1"   name="highlightColorRed"/>
            <InterpolatingParam id="482" interp="linr"  time="-9999999/1" value="5" leadInLength="0/1"   name="highlightFeatherSize"/>
            <InterpolatingParam id="483" interp="linr"  time="-9999999/1" value="2" leadInLength="0/1"   name="highlightMagnification"/>
            <InterpolatingParam id="484" interp="linr"  time="-9999999/1" value="1" leadInLength="0/1"   name="highlightOpacity"/>
            <InterpolatingParam id="485" interp="linr"  time="-9999999/1" value="45" leadInLength="0/1"   name="highlightSize"/>
            <Parameter id="486"   name="highlightType">
             <Keyframes>
             <Keyframe id="487"  time="-9999999/1" value="0" leadInLength="0/1"  />
             </Keyframes>
            </Parameter>
            <InterpolatingParam id="488" interp="linr"  time="-9999999/1" value="0" leadInLength="0/1"   name="leftClickColorBlue"/>
            <InterpolatingParam id="489" interp="linr"  time="-9999999/1" value="0" leadInLength="0/1"   name="leftClickColorGreen"/>
            <InterpolatingParam id="490" interp="linr"  time="-9999999/1" value="255" leadInLength="0/1"   name="leftClickColorRed"/>
            <InterpolatingParam id="491" interp="linr"  time="-9999999/1" value="0.80000000000000004" leadInLength="0/1"   name="leftClickDuration"/>
            <InterpolatingParam id="492" interp="linr"  time="-9999999/1" value="20" leadInLength="0/1"   name="leftClickSize"/>
            <Parameter id="493"   name="leftClickSoundFilename">
             <Keyframes>
             <Keyframe id="494"  time="-9999999/1" value="" leadInLength="0/1"  />
             </Keyframes>
            </Parameter>
            <InterpolatingParam id="495" interp="linr"  time="-9999999/1" value="1" leadInLength="0/1"   name="leftClickSoundVolume"/>
            <Parameter id="496"   name="leftClickType">
             <Keyframes>
             <Keyframe id="497"  time="-9999999/1" value="0" leadInLength="0/1"  />
             </Keyframes>
            </Parameter>
            <InterpolatingParam id="498" interp="linr"  time="-9999999/1" value="1" leadInLength="0/1"   name="opacity"/>
            <InterpolatingParam id="499" interp="linr"  time="-9999999/1" value="255" leadInLength="0/1"   name="rightClickColorBlue"/>
            <InterpolatingParam id="500" interp="linr"  time="-9999999/1" value="0" leadInLength="0/1"   name="rightClickColorGreen"/>
            <InterpolatingParam id="501" interp="linr"  time="-9999999/1" value="0" leadInLength="0/1"   name="rightClickColorRed"/>
            <InterpolatingParam id="502" interp="linr"  time="-9999999/1" value="0.80000000000000004" leadInLength="0/1"   name="rightClickDuration"/>
            <InterpolatingParam id="503" interp="linr"  time="-9999999/1" value="20" leadInLength="0/1"   name="rightClickSize"/>
            <Parameter id="504"   name="rightClickSoundFilename">
             <Keyframes>
             <Keyframe id="505"  time="-9999999/1" value="" leadInLength="0/1"  />
             </Keyframes>
            </Parameter>
            <InterpolatingParam id="506" interp="linr"  time="-9999999/1" value="1" leadInLength="0/1"   name="rightClickSoundVolume"/>
            <Parameter id="507"   name="rightClickType">
             <Keyframes>
             <Keyframe id="508"  time="-9999999/1" value="0" leadInLength="0/1"  />
             </Keyframes>
            </Parameter>
            </Parameters>
            <MetaData>
             <entry key="effectIndex" val="0"/>
            </MetaData>
           </GenericEffect>
          </Effects>
          <Attributes>
           <Attribute id="509" value="" name="ident"/>
          </Attributes>
          <ExtraData>
           <Entry key="ZoomPanBin">
            <ZoomPanBin id="510"  >
             <ZoomPanKeyframes>
              <ZoomPanKeyframe id="511" timeRangeEnd="-9999999/1" timeRangeDuration="0/1" interpolaterName="linr"  />
             </ZoomPanKeyframes>
            </ZoomPanBin>
           </Entry>
           <Entry key="CursorEffectBin">
            <CursorEffectBin id="512"  >
             <CursorEffectKeyframes>
              <CursorEffectKeyframe id="513" timeRangeEnd="-9999999/1" timeRangeDuration="0/1" interpolaterName=""  />
             </CursorEffectKeyframes>
            </CursorEffectBin>
           </Entry>
          </ExtraData>
         </ScreenVMFile>
         <MetaData>
          <entry key="AutoAppliedSmartFocus" val="False"/>
          <entry key="WinSubProjectDisplayName" val=""/>
         </MetaData>
        </UnifiedMedia>
        <UnifiedMedia id="514"  >
         <AMFile id="515" start="8584" duration="10583" scalar="1/1" mediaStart="0/1" mediaDuration="10583/1" trackNumber="1" src="8" channelNumber="0,1" >
          <Parameters>
           <InterpolatingParam id="516" interp="linr"  time="0/1" value="1" leadInLength="0/1"  name="volume"/>
           <Parameter id="517"  name="captions"/>
          </Parameters>
          <Attributes>
           <Attribute id="518" value="" name="ident"/>
           <Attribute id="519" value="44100" name="sampleRate"/>
           <Attribute id="520" value="16" name="bitDepth"/>
           <Attribute id="521" value="1" name="gain"/>
           <Attribute id="522" value="0" name="mixToMono"/>
          </Attributes>
         </AMFile>
         <ScreenVMFile id="523" start="8584" duration="10583" scalar="1/1" mediaStart="0/1" mediaDuration="10583/1" trackNumber="0" src="8" >
          <Transformer>
           <VectorParam id="524"  name="translation">
            <InterpolatingParam id="525" interp="linr"  time="-9999999/1" value="0" leadInLength="0/1"  />
            <InterpolatingParam id="526" interp="linr"  time="-9999999/1" value="0" leadInLength="0/1"  />
            <InterpolatingParam id="527" interp="linr"  time="-9999999/1" value="0" leadInLength="0/1"  />
           </VectorParam>
           <VectorParam id="528"  name="rotation">
            <InterpolatingParam id="529" interp="linr"  time="-9999999/1" value="0" leadInLength="0/1"  />
            <InterpolatingParam id="530" interp="linr"  time="-9999999/1" value="0" leadInLength="0/1"  />
            <InterpolatingParam id="531" interp="linr"  time="-9999999/1" value="0" leadInLength="0/1"  />
           </VectorParam>
           <VectorParam id="532"  name="shear">
            <InterpolatingParam id="533" interp="linr"  time="-9999999/1" value="0" leadInLength="0/1"  />
            <InterpolatingParam id="534" interp="linr"  time="-9999999/1" value="0" leadInLength="0/1"  />
            <InterpolatingParam id="535" interp="linr"  time="-9999999/1" value="0" leadInLength="0/1"  />
           </VectorParam>
           <VectorParam id="536"  name="scale">
            <InterpolatingParam id="537" interp="linr"  time="-9999999/1" value="1" leadInLength="0/1"  />
            <InterpolatingParam id="538" interp="linr"  time="-9999999/1" value="1" leadInLength="0/1"  />
            <InterpolatingParam id="539" interp="linr"  time="-9999999/1" value="1" leadInLength="0/1"  />
           </VectorParam>
           <VectorParam id="540"  name="anchor">
            <InterpolatingParam id="541" interp="linr"  time="0/1" value="0" leadInLength="0/1"  />
            <InterpolatingParam id="542" interp="linr"  time="0/1" value="0" leadInLength="0/1"  />
            <InterpolatingParam id="543" interp="linr"  time="0/1" value="0" leadInLength="0/1"  />
           </VectorParam>
          </Transformer>
          <Parameters>
           <VectorParam id="544"  name="sourceCrop">
            <InterpolatingParam id="545" interp="linr"  time="0/1" value="0" leadInLength="0/1"  />
            <InterpolatingParam id="546" interp="linr"  time="0/1" value="0" leadInLength="0/1"  />
            <InterpolatingParam id="547" interp="linr"  time="0/1" value="0" leadInLength="0/1"  />
            <InterpolatingParam id="548" interp="linr"  time="0/1" value="0" leadInLength="0/1"  />
           </VectorParam>
           <VectorParam id="549"  name="geometryCrop">
            <InterpolatingParam id="550" interp="linr"  time="-9999999/1" value="0" leadInLength="0/1"  />
            <InterpolatingParam id="551" interp="linr"  time="-9999999/1" value="0" leadInLength="0/1"  />
            <InterpolatingParam id="552" interp="linr"  time="-9999999/1" value="0" leadInLength="0/1"  />
            <InterpolatingParam id="553" interp="linr"  time="-9999999/1" value="0" leadInLength="0/1"  />
           </VectorParam>
           <InterpolatingParam id="554" interp="linr"  time="-9999999/1" value="1" leadInLength="0/1"  name="opacity"/>
           <Parameter id="555"  name="toc">
            <Keyframes>
            <Keyframe id="556"  time="0/1" value="Error Propagation Law: Multiple Dimensions" leadInLength="0/1"  >
             <MetaData>
              <entry key="Checked" val="True"/>
              <entry key="IndentLevel" val="0"/>
             </MetaData>
            </Keyframe>
            </Keyframes>
           </Parameter>
           <InterpolatingParam id="557" interp="linr"  time="0/1" value="1" leadInLength="0/1"  name="cursorOpacity"/>
           <InterpolatingParam id="558" interp="linr"  time="0/1" value="1" leadInLength="0/1"  name="cursorScale"/>
          </Parameters>
          <Effects>
           <GenericEffect id="559" name = "CursorBaseEffectName" >
            <Parameters>
            <InterpolatingParam id="560" interp="linr"  time="-9999999/1" value="1" leadInLength="0/1"   name="cursorSize"/>
            <InterpolatingParam id="561" interp="linr"  time="-9999999/1" value="0" leadInLength="0/1"   name="highlightBlurRadius"/>
            <InterpolatingParam id="562" interp="linr"  time="-9999999/1" value="0" leadInLength="0/1"   name="highlightColorBlue"/>
            <InterpolatingParam id="563" interp="linr"  time="-9999999/1" value="255" leadInLength="0/1"   name="highlightColorGreen"/>
            <InterpolatingParam id="564" interp="linr"  time="-9999999/1" value="255" leadInLength="0/1"   name="highlightColorRed"/>
            <InterpolatingParam id="565" interp="linr"  time="-9999999/1" value="5" leadInLength="0/1"   name="highlightFeatherSize"/>
            <InterpolatingParam id="566" interp="linr"  time="-9999999/1" value="2" leadInLength="0/1"   name="highlightMagnification"/>
            <InterpolatingParam id="567" interp="linr"  time="-9999999/1" value="1" leadInLength="0/1"   name="highlightOpacity"/>
            <InterpolatingParam id="568" interp="linr"  time="-9999999/1" value="45" leadInLength="0/1"   name="highlightSize"/>
            <Parameter id="569"   name="highlightType">
             <Keyframes>
             <Keyframe id="570"  time="-9999999/1" value="0" leadInLength="0/1"  />
             </Keyframes>
            </Parameter>
            <InterpolatingParam id="571" interp="linr"  time="-9999999/1" value="0" leadInLength="0/1"   name="leftClickColorBlue"/>
            <InterpolatingParam id="572" interp="linr"  time="-9999999/1" value="0" leadInLength="0/1"   name="leftClickColorGreen"/>
            <InterpolatingParam id="573" interp="linr"  time="-9999999/1" value="255" leadInLength="0/1"   name="leftClickColorRed"/>
            <InterpolatingParam id="574" interp="linr"  time="-9999999/1" value="0.80000000000000004" leadInLength="0/1"   name="leftClickDuration"/>
            <InterpolatingParam id="575" interp="linr"  time="-9999999/1" value="20" leadInLength="0/1"   name="leftClickSize"/>
            <Parameter id="576"   name="leftClickSoundFilename">
             <Keyframes>
             <Keyframe id="577"  time="-9999999/1" value="" leadInLength="0/1"  />
             </Keyframes>
            </Parameter>
            <InterpolatingParam id="578" interp="linr"  time="-9999999/1" value="1" leadInLength="0/1"   name="leftClickSoundVolume"/>
            <Parameter id="579"   name="leftClickType">
             <Keyframes>
             <Keyframe id="580"  time="-9999999/1" value="0" leadInLength="0/1"  />
             </Keyframes>
            </Parameter>
            <InterpolatingParam id="581" interp="linr"  time="-9999999/1" value="1" leadInLength="0/1"   name="opacity"/>
            <InterpolatingParam id="582" interp="linr"  time="-9999999/1" value="255" leadInLength="0/1"   name="rightClickColorBlue"/>
            <InterpolatingParam id="583" interp="linr"  time="-9999999/1" value="0" leadInLength="0/1"   name="rightClickColorGreen"/>
            <InterpolatingParam id="584" interp="linr"  time="-9999999/1" value="0" leadInLength="0/1"   name="rightClickColorRed"/>
            <InterpolatingParam id="585" interp="linr"  time="-9999999/1" value="0.80000000000000004" leadInLength="0/1"   name="rightClickDuration"/>
            <InterpolatingParam id="586" interp="linr"  time="-9999999/1" value="20" leadInLength="0/1"   name="rightClickSize"/>
            <Parameter id="587"   name="rightClickSoundFilename">
             <Keyframes>
             <Keyframe id="588"  time="-9999999/1" value="" leadInLength="0/1"  />
             </Keyframes>
            </Parameter>
            <InterpolatingParam id="589" interp="linr"  time="-9999999/1" value="1" leadInLength="0/1"   name="rightClickSoundVolume"/>
            <Parameter id="590"   name="rightClickType">
             <Keyframes>
             <Keyframe id="591"  time="-9999999/1" value="0" leadInLength="0/1"  />
             </Keyframes>
            </Parameter>
            </Parameters>
            <MetaData>
             <entry key="effectIndex" val="0"/>
            </MetaData>
           </GenericEffect>
          </Effects>
          <Attributes>
           <Attribute id="592" value="" name="ident"/>
          </Attributes>
          <ExtraData>
           <Entry key="ZoomPanBin">
            <ZoomPanBin id="593"  >
             <ZoomPanKeyframes>
              <ZoomPanKeyframe id="594" timeRangeEnd="-9999999/1" timeRangeDuration="0/1" interpolaterName="linr"  />
             </ZoomPanKeyframes>
            </ZoomPanBin>
           </Entry>
           <Entry key="CursorEffectBin">
            <CursorEffectBin id="595"  >
             <CursorEffectKeyframes>
              <CursorEffectKeyframe id="596" timeRangeEnd="-9999999/1" timeRangeDuration="0/1" interpolaterName=""  />
             </CursorEffectKeyframes>
            </CursorEffectBin>
           </Entry>
          </ExtraData>
         </ScreenVMFile>
         <MetaData>
          <entry key="AutoAppliedSmartFocus" val="False"/>
          <entry key="WinSubProjectDisplayName" val=""/>
         </MetaData>
        </UnifiedMedia>
        <UnifiedMedia id="597"  >
         <AMFile id="598" start="19167" duration="7476" scalar="1/1" mediaStart="0/1" mediaDuration="7476/1" trackNumber="1" src="9" channelNumber="0,1" >
          <Parameters>
           <InterpolatingParam id="599" interp="linr"  time="0/1" value="1" leadInLength="0/1"  name="volume"/>
           <Parameter id="600"  name="captions"/>
          </Parameters>
          <Attributes>
           <Attribute id="601" value="" name="ident"/>
           <Attribute id="602" value="44100" name="sampleRate"/>
           <Attribute id="603" value="16" name="bitDepth"/>
           <Attribute id="604" value="1" name="gain"/>
           <Attribute id="605" value="0" name="mixToMono"/>
          </Attributes>
         </AMFile>
         <ScreenVMFile id="606" start="19167" duration="7476" scalar="1/1" mediaStart="0/1" mediaDuration="7476/1" trackNumber="0" src="9" >
          <Transformer>
           <VectorParam id="607"  name="translation">
            <InterpolatingParam id="608" interp="linr"  time="-9999999/1" value="0" leadInLength="0/1"  />
            <InterpolatingParam id="609" interp="linr"  time="-9999999/1" value="0" leadInLength="0/1"  />
            <InterpolatingParam id="610" interp="linr"  time="-9999999/1" value="0" leadInLength="0/1"  />
           </VectorParam>
           <VectorParam id="611"  name="rotation">
            <InterpolatingParam id="612" interp="linr"  time="-9999999/1" value="0" leadInLength="0/1"  />
            <InterpolatingParam id="613" interp="linr"  time="-9999999/1" value="0" leadInLength="0/1"  />
            <InterpolatingParam id="614" interp="linr"  time="-9999999/1" value="0" leadInLength="0/1"  />
           </VectorParam>
           <VectorParam id="615"  name="shear">
            <InterpolatingParam id="616" interp="linr"  time="-9999999/1" value="0" leadInLength="0/1"  />
            <InterpolatingParam id="617" interp="linr"  time="-9999999/1" value="0" leadInLength="0/1"  />
            <InterpolatingParam id="618" interp="linr"  time="-9999999/1" value="0" leadInLength="0/1"  />
           </VectorParam>
           <VectorParam id="619"  name="scale">
            <InterpolatingParam id="620" interp="linr"  time="-9999999/1" value="1" leadInLength="0/1"  />
            <InterpolatingParam id="621" interp="linr"  time="-9999999/1" value="1" leadInLength="0/1"  />
            <InterpolatingParam id="622" interp="linr"  time="-9999999/1" value="1" leadInLength="0/1"  />
           </VectorParam>
           <VectorParam id="623"  name="anchor">
            <InterpolatingParam id="624" interp="linr"  time="0/1" value="0" leadInLength="0/1"  />
            <InterpolatingParam id="625" interp="linr"  time="0/1" value="0" leadInLength="0/1"  />
            <InterpolatingParam id="626" interp="linr"  time="0/1" value="0" leadInLength="0/1"  />
           </VectorParam>
          </Transformer>
          <Parameters>
           <VectorParam id="627"  name="sourceCrop">
            <InterpolatingParam id="628" interp="linr"  time="0/1" value="0" leadInLength="0/1"  />
            <InterpolatingParam id="629" interp="linr"  time="0/1" value="0" leadInLength="0/1"  />
            <InterpolatingParam id="630" interp="linr"  time="0/1" value="0" leadInLength="0/1"  />
            <InterpolatingParam id="631" interp="linr"  time="0/1" value="0" leadInLength="0/1"  />
           </VectorParam>
           <VectorParam id="632"  name="geometryCrop">
            <InterpolatingParam id="633" interp="linr"  time="-9999999/1" value="0" leadInLength="0/1"  />
            <InterpolatingParam id="634" interp="linr"  time="-9999999/1" value="0" leadInLength="0/1"  />
            <InterpolatingParam id="635" interp="linr"  time="-9999999/1" value="0" leadInLength="0/1"  />
            <InterpolatingParam id="636" interp="linr"  time="-9999999/1" value="0" leadInLength="0/1"  />
           </VectorParam>
           <InterpolatingParam id="637" interp="linr"  time="-9999999/1" value="1" leadInLength="0/1"  name="opacity"/>
           <Parameter id="638"  name="toc">
            <Keyframes>
            <Keyframe id="639"  time="0/1" value="Example: Odometry" leadInLength="0/1"  >
             <MetaData>
              <entry key="Checked" val="True"/>
              <entry key="IndentLevel" val="0"/>
             </MetaData>
            </Keyframe>
            </Keyframes>
           </Parameter>
           <InterpolatingParam id="640" interp="linr"  time="0/1" value="1" leadInLength="0/1"  name="cursorOpacity"/>
           <InterpolatingParam id="641" interp="linr"  time="0/1" value="1" leadInLength="0/1"  name="cursorScale"/>
          </Parameters>
          <Effects>
           <GenericEffect id="642" name = "CursorBaseEffectName" >
            <Parameters>
            <InterpolatingParam id="643" interp="linr"  time="-9999999/1" value="1" leadInLength="0/1"   name="cursorSize"/>
            <InterpolatingParam id="644" interp="linr"  time="-9999999/1" value="0" leadInLength="0/1"   name="highlightBlurRadius"/>
            <InterpolatingParam id="645" interp="linr"  time="-9999999/1" value="0" leadInLength="0/1"   name="highlightColorBlue"/>
            <InterpolatingParam id="646" interp="linr"  time="-9999999/1" value="255" leadInLength="0/1"   name="highlightColorGreen"/>
            <InterpolatingParam id="647" interp="linr"  time="-9999999/1" value="255" leadInLength="0/1"   name="highlightColorRed"/>
            <InterpolatingParam id="648" interp="linr"  time="-9999999/1" value="5" leadInLength="0/1"   name="highlightFeatherSize"/>
            <InterpolatingParam id="649" interp="linr"  time="-9999999/1" value="2" leadInLength="0/1"   name="highlightMagnification"/>
            <InterpolatingParam id="650" interp="linr"  time="-9999999/1" value="1" leadInLength="0/1"   name="highlightOpacity"/>
            <InterpolatingParam id="651" interp="linr"  time="-9999999/1" value="45" leadInLength="0/1"   name="highlightSize"/>
            <Parameter id="652"   name="highlightType">
             <Keyframes>
             <Keyframe id="653"  time="-9999999/1" value="0" leadInLength="0/1"  />
             </Keyframes>
            </Parameter>
            <InterpolatingParam id="654" interp="linr"  time="-9999999/1" value="0" leadInLength="0/1"   name="leftClickColorBlue"/>
            <InterpolatingParam id="655" interp="linr"  time="-9999999/1" value="0" leadInLength="0/1"   name="leftClickColorGreen"/>
            <InterpolatingParam id="656" interp="linr"  time="-9999999/1" value="255" leadInLength="0/1"   name="leftClickColorRed"/>
            <InterpolatingParam id="657" interp="linr"  time="-9999999/1" value="0.80000000000000004" leadInLength="0/1"   name="leftClickDuration"/>
            <InterpolatingParam id="658" interp="linr"  time="-9999999/1" value="20" leadInLength="0/1"   name="leftClickSize"/>
            <Parameter id="659"   name="leftClickSoundFilename">
             <Keyframes>
             <Keyframe id="660"  time="-9999999/1" value="" leadInLength="0/1"  />
             </Keyframes>
            </Parameter>
            <InterpolatingParam id="661" interp="linr"  time="-9999999/1" value="1" leadInLength="0/1"   name="leftClickSoundVolume"/>
            <Parameter id="662"   name="leftClickType">
             <Keyframes>
             <Keyframe id="663"  time="-9999999/1" value="0" leadInLength="0/1"  />
             </Keyframes>
            </Parameter>
            <InterpolatingParam id="664" interp="linr"  time="-9999999/1" value="1" leadInLength="0/1"   name="opacity"/>
            <InterpolatingParam id="665" interp="linr"  time="-9999999/1" value="255" leadInLength="0/1"   name="rightClickColorBlue"/>
            <InterpolatingParam id="666" interp="linr"  time="-9999999/1" value="0" leadInLength="0/1"   name="rightClickColorGreen"/>
            <InterpolatingParam id="667" interp="linr"  time="-9999999/1" value="0" leadInLength="0/1"   name="rightClickColorRed"/>
            <InterpolatingParam id="668" interp="linr"  time="-9999999/1" value="0.80000000000000004" leadInLength="0/1"   name="rightClickDuration"/>
            <InterpolatingParam id="669" interp="linr"  time="-9999999/1" value="20" leadInLength="0/1"   name="rightClickSize"/>
            <Parameter id="670"   name="rightClickSoundFilename">
             <Keyframes>
             <Keyframe id="671"  time="-9999999/1" value="" leadInLength="0/1"  />
             </Keyframes>
            </Parameter>
            <InterpolatingParam id="672" interp="linr"  time="-9999999/1" value="1" leadInLength="0/1"   name="rightClickSoundVolume"/>
            <Parameter id="673"   name="rightClickType">
             <Keyframes>
             <Keyframe id="674"  time="-9999999/1" value="0" leadInLength="0/1"  />
             </Keyframes>
            </Parameter>
            </Parameters>
            <MetaData>
             <entry key="effectIndex" val="0"/>
            </MetaData>
           </GenericEffect>
          </Effects>
          <Attributes>
           <Attribute id="675" value="" name="ident"/>
          </Attributes>
          <ExtraData>
           <Entry key="ZoomPanBin">
            <ZoomPanBin id="676"  >
             <ZoomPanKeyframes>
              <ZoomPanKeyframe id="677" timeRangeEnd="-9999999/1" timeRangeDuration="0/1" interpolaterName="linr"  />
             </ZoomPanKeyframes>
            </ZoomPanBin>
           </Entry>
           <Entry key="CursorEffectBin">
            <CursorEffectBin id="678"  >
             <CursorEffectKeyframes>
              <CursorEffectKeyframe id="679" timeRangeEnd="-9999999/1" timeRangeDuration="0/1" interpolaterName=""  />
             </CursorEffectKeyframes>
            </CursorEffectBin>
           </Entry>
          </ExtraData>
         </ScreenVMFile>
         <MetaData>
          <entry key="AutoAppliedSmartFocus" val="False"/>
          <entry key="WinSubProjectDisplayName" val=""/>
         </MetaData>
        </UnifiedMedia>
        <UnifiedMedia id="680"  >
         <AMFile id="681" start="26643" duration="9480" scalar="1/1" mediaStart="0/1" mediaDuration="9480/1" trackNumber="1" src="10" channelNumber="0,1" >
          <Parameters>
           <InterpolatingParam id="682" interp="linr"  time="0/1" value="1" leadInLength="0/1"  name="volume"/>
           <Parameter id="683"  name="captions"/>
          </Parameters>
          <Attributes>
           <Attribute id="684" value="" name="ident"/>
           <Attribute id="685" value="44100" name="sampleRate"/>
           <Attribute id="686" value="16" name="bitDepth"/>
           <Attribute id="687" value="1" name="gain"/>
           <Attribute id="688" value="0" name="mixToMono"/>
          </Attributes>
         </AMFile>
         <ScreenVMFile id="689" start="26643" duration="9480" scalar="1/1" mediaStart="0/1" mediaDuration="9480/1" trackNumber="0" src="10" >
          <Transformer>
           <VectorParam id="690"  name="translation">
            <InterpolatingParam id="691" interp="linr"  time="-9999999/1" value="0" leadInLength="0/1"  />
            <InterpolatingParam id="692" interp="linr"  time="-9999999/1" value="0" leadInLength="0/1"  />
            <InterpolatingParam id="693" interp="linr"  time="-9999999/1" value="0" leadInLength="0/1"  />
           </VectorParam>
           <VectorParam id="694"  name="rotation">
            <InterpolatingParam id="695" interp="linr"  time="-9999999/1" value="0" leadInLength="0/1"  />
            <InterpolatingParam id="696" interp="linr"  time="-9999999/1" value="0" leadInLength="0/1"  />
            <InterpolatingParam id="697" interp="linr"  time="-9999999/1" value="0" leadInLength="0/1"  />
           </VectorParam>
           <VectorParam id="698"  name="shear">
            <InterpolatingParam id="699" interp="linr"  time="-9999999/1" value="0" leadInLength="0/1"  />
            <InterpolatingParam id="700" interp="linr"  time="-9999999/1" value="0" leadInLength="0/1"  />
            <InterpolatingParam id="701" interp="linr"  time="-9999999/1" value="0" leadInLength="0/1"  />
           </VectorParam>
           <VectorParam id="702"  name="scale">
            <InterpolatingParam id="703" interp="linr"  time="-9999999/1" value="1" leadInLength="0/1"  />
            <InterpolatingParam id="704" interp="linr"  time="-9999999/1" value="1" leadInLength="0/1"  />
            <InterpolatingParam id="705" interp="linr"  time="-9999999/1" value="1" leadInLength="0/1"  />
           </VectorParam>
           <VectorParam id="706"  name="anchor">
            <InterpolatingParam id="707" interp="linr"  time="0/1" value="0" leadInLength="0/1"  />
            <InterpolatingParam id="708" interp="linr"  time="0/1" value="0" leadInLength="0/1"  />
            <InterpolatingParam id="709" interp="linr"  time="0/1" value="0" leadInLength="0/1"  />
           </VectorParam>
          </Transformer>
          <Parameters>
           <VectorParam id="710"  name="sourceCrop">
            <InterpolatingParam id="711" interp="linr"  time="0/1" value="0" leadInLength="0/1"  />
            <InterpolatingParam id="712" interp="linr"  time="0/1" value="0" leadInLength="0/1"  />
            <InterpolatingParam id="713" interp="linr"  time="0/1" value="0" leadInLength="0/1"  />
            <InterpolatingParam id="714" interp="linr"  time="0/1" value="0" leadInLength="0/1"  />
           </VectorParam>
           <VectorParam id="715"  name="geometryCrop">
            <InterpolatingParam id="716" interp="linr"  time="-9999999/1" value="0" leadInLength="0/1"  />
            <InterpolatingParam id="717" interp="linr"  time="-9999999/1" value="0" leadInLength="0/1"  />
            <InterpolatingParam id="718" interp="linr"  time="-9999999/1" value="0" leadInLength="0/1"  />
            <InterpolatingParam id="719" interp="linr"  time="-9999999/1" value="0" leadInLength="0/1"  />
           </VectorParam>
           <InterpolatingParam id="720" interp="linr"  time="-9999999/1" value="1" leadInLength="0/1"  name="opacity"/>
           <Parameter id="721"  name="toc">
            <Keyframes>
            <Keyframe id="722"  time="0/1" value="Example: Odometry" leadInLength="0/1"  >
             <MetaData>
              <entry key="Checked" val="True"/>
              <entry key="IndentLevel" val="0"/>
             </MetaData>
            </Keyframe>
            </Keyframes>
           </Parameter>
           <InterpolatingParam id="723" interp="linr"  time="0/1" value="1" leadInLength="0/1"  name="cursorOpacity"/>
           <InterpolatingParam id="724" interp="linr"  time="0/1" value="1" leadInLength="0/1"  name="cursorScale"/>
          </Parameters>
          <Effects>
           <GenericEffect id="725" name = "CursorBaseEffectName" >
            <Parameters>
            <InterpolatingParam id="726" interp="linr"  time="-9999999/1" value="1" leadInLength="0/1"   name="cursorSize"/>
            <InterpolatingParam id="727" interp="linr"  time="-9999999/1" value="0" leadInLength="0/1"   name="highlightBlurRadius"/>
            <InterpolatingParam id="728" interp="linr"  time="-9999999/1" value="0" leadInLength="0/1"   name="highlightColorBlue"/>
            <InterpolatingParam id="729" interp="linr"  time="-9999999/1" value="255" leadInLength="0/1"   name="highlightColorGreen"/>
            <InterpolatingParam id="730" interp="linr"  time="-9999999/1" value="255" leadInLength="0/1"   name="highlightColorRed"/>
            <InterpolatingParam id="731" interp="linr"  time="-9999999/1" value="5" leadInLength="0/1"   name="highlightFeatherSize"/>
            <InterpolatingParam id="732" interp="linr"  time="-9999999/1" value="2" leadInLength="0/1"   name="highlightMagnification"/>
            <InterpolatingParam id="733" interp="linr"  time="-9999999/1" value="1" leadInLength="0/1"   name="highlightOpacity"/>
            <InterpolatingParam id="734" interp="linr"  time="-9999999/1" value="45" leadInLength="0/1"   name="highlightSize"/>
            <Parameter id="735"   name="highlightType">
             <Keyframes>
             <Keyframe id="736"  time="-9999999/1" value="0" leadInLength="0/1"  />
             </Keyframes>
            </Parameter>
            <InterpolatingParam id="737" interp="linr"  time="-9999999/1" value="0" leadInLength="0/1"   name="leftClickColorBlue"/>
            <InterpolatingParam id="738" interp="linr"  time="-9999999/1" value="0" leadInLength="0/1"   name="leftClickColorGreen"/>
            <InterpolatingParam id="739" interp="linr"  time="-9999999/1" value="255" leadInLength="0/1"   name="leftClickColorRed"/>
            <InterpolatingParam id="740" interp="linr"  time="-9999999/1" value="0.80000000000000004" leadInLength="0/1"   name="leftClickDuration"/>
            <InterpolatingParam id="741" interp="linr"  time="-9999999/1" value="20" leadInLength="0/1"   name="leftClickSize"/>
            <Parameter id="742"   name="leftClickSoundFilename">
             <Keyframes>
             <Keyframe id="743"  time="-9999999/1" value="" leadInLength="0/1"  />
             </Keyframes>
            </Parameter>
            <InterpolatingParam id="744" interp="linr"  time="-9999999/1" value="1" leadInLength="0/1"   name="leftClickSoundVolume"/>
            <Parameter id="745"   name="leftClickType">
             <Keyframes>
             <Keyframe id="746"  time="-9999999/1" value="0" leadInLength="0/1"  />
             </Keyframes>
            </Parameter>
            <InterpolatingParam id="747" interp="linr"  time="-9999999/1" value="1" leadInLength="0/1"   name="opacity"/>
            <InterpolatingParam id="748" interp="linr"  time="-9999999/1" value="255" leadInLength="0/1"   name="rightClickColorBlue"/>
            <InterpolatingParam id="749" interp="linr"  time="-9999999/1" value="0" leadInLength="0/1"   name="rightClickColorGreen"/>
            <InterpolatingParam id="750" interp="linr"  time="-9999999/1" value="0" leadInLength="0/1"   name="rightClickColorRed"/>
            <InterpolatingParam id="751" interp="linr"  time="-9999999/1" value="0.80000000000000004" leadInLength="0/1"   name="rightClickDuration"/>
            <InterpolatingParam id="752" interp="linr"  time="-9999999/1" value="20" leadInLength="0/1"   name="rightClickSize"/>
            <Parameter id="753"   name="rightClickSoundFilename">
             <Keyframes>
             <Keyframe id="754"  time="-9999999/1" value="" leadInLength="0/1"  />
             </Keyframes>
            </Parameter>
            <InterpolatingParam id="755" interp="linr"  time="-9999999/1" value="1" leadInLength="0/1"   name="rightClickSoundVolume"/>
            <Parameter id="756"   name="rightClickType">
             <Keyframes>
             <Keyframe id="757"  time="-9999999/1" value="0" leadInLength="0/1"  />
             </Keyframes>
            </Parameter>
            </Parameters>
            <MetaData>
             <entry key="effectIndex" val="0"/>
            </MetaData>
           </GenericEffect>
          </Effects>
          <Attributes>
           <Attribute id="758" value="" name="ident"/>
          </Attributes>
          <ExtraData>
           <Entry key="ZoomPanBin">
            <ZoomPanBin id="759"  >
             <ZoomPanKeyframes>
              <ZoomPanKeyframe id="760" timeRangeEnd="-9999999/1" timeRangeDuration="0/1" interpolaterName="linr"  />
             </ZoomPanKeyframes>
            </ZoomPanBin>
           </Entry>
           <Entry key="CursorEffectBin">
            <CursorEffectBin id="761"  >
             <CursorEffectKeyframes>
              <CursorEffectKeyframe id="762" timeRangeEnd="-9999999/1" timeRangeDuration="0/1" interpolaterName=""  />
             </CursorEffectKeyframes>
            </CursorEffectBin>
           </Entry>
          </ExtraData>
         </ScreenVMFile>
         <MetaData>
          <entry key="AutoAppliedSmartFocus" val="False"/>
          <entry key="WinSubProjectDisplayName" val=""/>
         </MetaData>
        </UnifiedMedia>
        <UnifiedMedia id="763"  >
         <AMFile id="764" start="36123" duration="5610" scalar="1/1" mediaStart="0/1" mediaDuration="5610/1" trackNumber="1" src="11" channelNumber="0,1" >
          <Parameters>
           <InterpolatingParam id="765" interp="linr"  time="0/1" value="1" leadInLength="0/1"  name="volume"/>
           <Parameter id="766"  name="captions"/>
          </Parameters>
          <Attributes>
           <Attribute id="767" value="" name="ident"/>
           <Attribute id="768" value="44100" name="sampleRate"/>
           <Attribute id="769" value="16" name="bitDepth"/>
           <Attribute id="770" value="1" name="gain"/>
           <Attribute id="771" value="0" name="mixToMono"/>
          </Attributes>
         </AMFile>
         <ScreenVMFile id="772" start="36123" duration="5610" scalar="1/1" mediaStart="0/1" mediaDuration="5610/1" trackNumber="0" src="11" >
          <Transformer>
           <VectorParam id="773"  name="translation">
            <InterpolatingParam id="774" interp="linr"  time="-9999999/1" value="0" leadInLength="0/1"  />
            <InterpolatingParam id="775" interp="linr"  time="-9999999/1" value="0" leadInLength="0/1"  />
            <InterpolatingParam id="776" interp="linr"  time="-9999999/1" value="0" leadInLength="0/1"  />
           </VectorParam>
           <VectorParam id="777"  name="rotation">
            <InterpolatingParam id="778" interp="linr"  time="-9999999/1" value="0" leadInLength="0/1"  />
            <InterpolatingParam id="779" interp="linr"  time="-9999999/1" value="0" leadInLength="0/1"  />
            <InterpolatingParam id="780" interp="linr"  time="-9999999/1" value="0" leadInLength="0/1"  />
           </VectorParam>
           <VectorParam id="781"  name="shear">
            <InterpolatingParam id="782" interp="linr"  time="-9999999/1" value="0" leadInLength="0/1"  />
            <InterpolatingParam id="783" interp="linr"  time="-9999999/1" value="0" leadInLength="0/1"  />
            <InterpolatingParam id="784" interp="linr"  time="-9999999/1" value="0" leadInLength="0/1"  />
           </VectorParam>
           <VectorParam id="785"  name="scale">
            <InterpolatingParam id="786" interp="linr"  time="-9999999/1" value="1" leadInLength="0/1"  />
            <InterpolatingParam id="787" interp="linr"  time="-9999999/1" value="1" leadInLength="0/1"  />
            <InterpolatingParam id="788" interp="linr"  time="-9999999/1" value="1" leadInLength="0/1"  />
           </VectorParam>
           <VectorParam id="789"  name="anchor">
            <InterpolatingParam id="790" interp="linr"  time="0/1" value="0" leadInLength="0/1"  />
            <InterpolatingParam id="791" interp="linr"  time="0/1" value="0" leadInLength="0/1"  />
            <InterpolatingParam id="792" interp="linr"  time="0/1" value="0" leadInLength="0/1"  />
           </VectorParam>
          </Transformer>
          <Parameters>
           <VectorParam id="793"  name="sourceCrop">
            <InterpolatingParam id="794" interp="linr"  time="0/1" value="0" leadInLength="0/1"  />
            <InterpolatingParam id="795" interp="linr"  time="0/1" value="0" leadInLength="0/1"  />
            <InterpolatingParam id="796" interp="linr"  time="0/1" value="0" leadInLength="0/1"  />
            <InterpolatingParam id="797" interp="linr"  time="0/1" value="0" leadInLength="0/1"  />
           </VectorParam>
           <VectorParam id="798"  name="geometryCrop">
            <InterpolatingParam id="799" interp="linr"  time="-9999999/1" value="0" leadInLength="0/1"  />
            <InterpolatingParam id="800" interp="linr"  time="-9999999/1" value="0" leadInLength="0/1"  />
            <InterpolatingParam id="801" interp="linr"  time="-9999999/1" value="0" leadInLength="0/1"  />
            <InterpolatingParam id="802" interp="linr"  time="-9999999/1" value="0" leadInLength="0/1"  />
           </VectorParam>
           <InterpolatingParam id="803" interp="linr"  time="-9999999/1" value="1" leadInLength="0/1"  name="opacity"/>
           <Parameter id="804"  name="toc">
            <Keyframes>
            <Keyframe id="805"  time="0/1" value="Example: Odometry" leadInLength="0/1"  >
             <MetaData>
              <entry key="Checked" val="True"/>
              <entry key="IndentLevel" val="0"/>
             </MetaData>
            </Keyframe>
            </Keyframes>
           </Parameter>
           <InterpolatingParam id="806" interp="linr"  time="0/1" value="1" leadInLength="0/1"  name="cursorOpacity"/>
           <InterpolatingParam id="807" interp="linr"  time="0/1" value="1" leadInLength="0/1"  name="cursorScale"/>
          </Parameters>
          <Effects>
           <GenericEffect id="808" name = "CursorBaseEffectName" >
            <Parameters>
            <InterpolatingParam id="809" interp="linr"  time="-9999999/1" value="1" leadInLength="0/1"   name="cursorSize"/>
            <InterpolatingParam id="810" interp="linr"  time="-9999999/1" value="0" leadInLength="0/1"   name="highlightBlurRadius"/>
            <InterpolatingParam id="811" interp="linr"  time="-9999999/1" value="0" leadInLength="0/1"   name="highlightColorBlue"/>
            <InterpolatingParam id="812" interp="linr"  time="-9999999/1" value="255" leadInLength="0/1"   name="highlightColorGreen"/>
            <InterpolatingParam id="813" interp="linr"  time="-9999999/1" value="255" leadInLength="0/1"   name="highlightColorRed"/>
            <InterpolatingParam id="814" interp="linr"  time="-9999999/1" value="5" leadInLength="0/1"   name="highlightFeatherSize"/>
            <InterpolatingParam id="815" interp="linr"  time="-9999999/1" value="2" leadInLength="0/1"   name="highlightMagnification"/>
            <InterpolatingParam id="816" interp="linr"  time="-9999999/1" value="1" leadInLength="0/1"   name="highlightOpacity"/>
            <InterpolatingParam id="817" interp="linr"  time="-9999999/1" value="45" leadInLength="0/1"   name="highlightSize"/>
            <Parameter id="818"   name="highlightType">
             <Keyframes>
             <Keyframe id="819"  time="-9999999/1" value="0" leadInLength="0/1"  />
             </Keyframes>
            </Parameter>
            <InterpolatingParam id="820" interp="linr"  time="-9999999/1" value="0" leadInLength="0/1"   name="leftClickColorBlue"/>
            <InterpolatingParam id="821" interp="linr"  time="-9999999/1" value="0" leadInLength="0/1"   name="leftClickColorGreen"/>
            <InterpolatingParam id="822" interp="linr"  time="-9999999/1" value="255" leadInLength="0/1"   name="leftClickColorRed"/>
            <InterpolatingParam id="823" interp="linr"  time="-9999999/1" value="0.80000000000000004" leadInLength="0/1"   name="leftClickDuration"/>
            <InterpolatingParam id="824" interp="linr"  time="-9999999/1" value="20" leadInLength="0/1"   name="leftClickSize"/>
            <Parameter id="825"   name="leftClickSoundFilename">
             <Keyframes>
             <Keyframe id="826"  time="-9999999/1" value="" leadInLength="0/1"  />
             </Keyframes>
            </Parameter>
            <InterpolatingParam id="827" interp="linr"  time="-9999999/1" value="1" leadInLength="0/1"   name="leftClickSoundVolume"/>
            <Parameter id="828"   name="leftClickType">
             <Keyframes>
             <Keyframe id="829"  time="-9999999/1" value="0" leadInLength="0/1"  />
             </Keyframes>
            </Parameter>
            <InterpolatingParam id="830" interp="linr"  time="-9999999/1" value="1" leadInLength="0/1"   name="opacity"/>
            <InterpolatingParam id="831" interp="linr"  time="-9999999/1" value="255" leadInLength="0/1"   name="rightClickColorBlue"/>
            <InterpolatingParam id="832" interp="linr"  time="-9999999/1" value="0" leadInLength="0/1"   name="rightClickColorGreen"/>
            <InterpolatingParam id="833" interp="linr"  time="-9999999/1" value="0" leadInLength="0/1"   name="rightClickColorRed"/>
            <InterpolatingParam id="834" interp="linr"  time="-9999999/1" value="0.80000000000000004" leadInLength="0/1"   name="rightClickDuration"/>
            <InterpolatingParam id="835" interp="linr"  time="-9999999/1" value="20" leadInLength="0/1"   name="rightClickSize"/>
            <Parameter id="836"   name="rightClickSoundFilename">
             <Keyframes>
             <Keyframe id="837"  time="-9999999/1" value="" leadInLength="0/1"  />
             </Keyframes>
            </Parameter>
            <InterpolatingParam id="838" interp="linr"  time="-9999999/1" value="1" leadInLength="0/1"   name="rightClickSoundVolume"/>
            <Parameter id="839"   name="rightClickType">
             <Keyframes>
             <Keyframe id="840"  time="-9999999/1" value="0" leadInLength="0/1"  />
             </Keyframes>
            </Parameter>
            </Parameters>
            <MetaData>
             <entry key="effectIndex" val="0"/>
            </MetaData>
           </GenericEffect>
          </Effects>
          <Attributes>
           <Attribute id="841" value="" name="ident"/>
          </Attributes>
          <ExtraData>
           <Entry key="ZoomPanBin">
            <ZoomPanBin id="842"  >
             <ZoomPanKeyframes>
              <ZoomPanKeyframe id="843" timeRangeEnd="-9999999/1" timeRangeDuration="0/1" interpolaterName="linr"  />
             </ZoomPanKeyframes>
            </ZoomPanBin>
           </Entry>
           <Entry key="CursorEffectBin">
            <CursorEffectBin id="844"  >
             <CursorEffectKeyframes>
              <CursorEffectKeyframe id="845" timeRangeEnd="-9999999/1" timeRangeDuration="0/1" interpolaterName=""  />
             </CursorEffectKeyframes>
            </CursorEffectBin>
           </Entry>
          </ExtraData>
         </ScreenVMFile>
         <MetaData>
          <entry key="AutoAppliedSmartFocus" val="False"/>
          <entry key="WinSubProjectDisplayName" val=""/>
         </MetaData>
        </UnifiedMedia>
        <IMFile id="846" start="49208" duration="1022" scalar="1/1" mediaStart="0/1" mediaDuration="1/1" trackNumber="0" src="13" trimStartSum="2624/1" >
         <Transformer>
          <VectorParam id="847"  name="translation">
           <InterpolatingParam id="848" interp="linr"  time="-9999999/1" value="479.83994334309523" leadInLength="0/1"  />
           <InterpolatingParam id="849" interp="linr"  time="-9999999/1" value="254.4641564713165" leadInLength="0/1"  />
           <InterpolatingParam id="850" interp="linr"  time="-9999999/1" value="0" leadInLength="0/1"  />
          </VectorParam>
          <VectorParam id="851"  name="rotation">
           <InterpolatingParam id="852" interp="linr"  time="-9999999/1" value="0" leadInLength="0/1"  />
           <InterpolatingParam id="853" interp="linr"  time="-9999999/1" value="0" leadInLength="0/1"  />
           <InterpolatingParam id="854" interp="linr"  time="-9999999/1" value="0" leadInLength="0/1"  />
          </VectorParam>
          <VectorParam id="855"  name="shear">
           <InterpolatingParam id="856" interp="linr"  time="-9999999/1" value="0" leadInLength="0/1"  />
           <InterpolatingParam id="857" interp="linr"  time="-9999999/1" value="0" leadInLength="0/1"  />
           <InterpolatingParam id="858" interp="linr"  time="-9999999/1" value="0" leadInLength="0/1"  />
          </VectorParam>
          <VectorParam id="859"  name="scale">
           <InterpolatingParam id="860" interp="linr"  time="-9999999/1" value="0.67229342373340151" leadInLength="0/1"  />
           <InterpolatingParam id="861" interp="linr"  time="-9999999/1" value="0.67229342373340151" leadInLength="0/1"  />
           <InterpolatingParam id="862" interp="linr"  time="-9999999/1" value="1" leadInLength="0/1"  />
          </VectorParam>
          <VectorParam id="863"  name="anchor">
           <InterpolatingParam id="864" interp="linr"  time="0/1" value="0" leadInLength="0/1"  />
           <InterpolatingParam id="865" interp="linr"  time="0/1" value="0" leadInLength="0/1"  />
           <InterpolatingParam id="866" interp="linr"  time="0/1" value="0" leadInLength="0/1"  />
          </VectorParam>
         </Transformer>
         <Parameters>
          <VectorParam id="867"  name="sourceCrop">
           <InterpolatingParam id="868" interp="linr"  time="0/1" value="0" leadInLength="0/1"  />
           <InterpolatingParam id="869" interp="linr"  time="0/1" value="0" leadInLength="0/1"  />
           <InterpolatingParam id="870" interp="linr"  time="0/1" value="0" leadInLength="0/1"  />
           <InterpolatingParam id="871" interp="linr"  time="0/1" value="0" leadInLength="0/1"  />
          </VectorParam>
          <VectorParam id="872"  name="geometryCrop">
           <InterpolatingParam id="873" interp="linr"  time="-9999999/1" value="0" leadInLength="0/1"  />
           <InterpolatingParam id="874" interp="linr"  time="-9999999/1" value="0" leadInLength="0/1"  />
           <InterpolatingParam id="875" interp="linr"  time="-9999999/1" value="0" leadInLength="0/1"  />
           <InterpolatingParam id="876" interp="linr"  time="-9999999/1" value="0" leadInLength="0/1"  />
          </VectorParam>
          <InterpolatingParam id="877" interp="linr"  time="-9999999/1" value="1" leadInLength="0/1"  name="opacity"/>
         </Parameters>
         <Attributes>
          <Attribute id="878" value="" name="ident"/>
         </Attributes>
         <MetaData>
          <entry key="WinSubProjectDisplayName" val=""/>
         </MetaData>
         <ExtraData>
          <Entry key="ZoomPanBin">
           <ZoomPanBin id="879"  >
            <ZoomPanKeyframes>
             <ZoomPanKeyframe id="880" timeRangeEnd="-9999999/1" timeRangeDuration="0/1" interpolaterName="linr"  />
            </ZoomPanKeyframes>
           </ZoomPanBin>
          </Entry>
         </ExtraData>
        </IMFile>
        <IMFile id="881" start="50577" duration="1319" scalar="1/1" mediaStart="0/1" mediaDuration="1/1" trackNumber="0" src="13" trimStartSum="2624/1" >
         <Transformer>
          <VectorParam id="882"  name="translation">
           <InterpolatingParam id="883" interp="linr"  time="-9999999/1" value="479.83994334309523" leadInLength="0/1"  />
           <InterpolatingParam id="884" interp="linr"  time="-9999999/1" value="254.4641564713165" leadInLength="0/1"  />
           <InterpolatingParam id="885" interp="linr"  time="-9999999/1" value="0" leadInLength="0/1"  />
          </VectorParam>
          <VectorParam id="886"  name="rotation">
           <InterpolatingParam id="887" interp="linr"  time="-9999999/1" value="0" leadInLength="0/1"  />
           <InterpolatingParam id="888" interp="linr"  time="-9999999/1" value="0" leadInLength="0/1"  />
           <InterpolatingParam id="889" interp="linr"  time="-9999999/1" value="0" leadInLength="0/1"  />
          </VectorParam>
          <VectorParam id="890"  name="shear">
           <InterpolatingParam id="891" interp="linr"  time="-9999999/1" value="0" leadInLength="0/1"  />
           <InterpolatingParam id="892" interp="linr"  time="-9999999/1" value="0" leadInLength="0/1"  />
           <InterpolatingParam id="893" interp="linr"  time="-9999999/1" value="0" leadInLength="0/1"  />
          </VectorParam>
          <VectorParam id="894"  name="scale">
           <InterpolatingParam id="895" interp="linr"  time="-9999999/1" value="0.67229342373340151" leadInLength="0/1"  />
           <InterpolatingParam id="896" interp="linr"  time="-9999999/1" value="0.67229342373340151" leadInLength="0/1"  />
           <InterpolatingParam id="897" interp="linr"  time="-9999999/1" value="1" leadInLength="0/1"  />
          </VectorParam>
          <VectorParam id="898"  name="anchor">
           <InterpolatingParam id="899" interp="linr"  time="0/1" value="0" leadInLength="0/1"  />
           <InterpolatingParam id="900" interp="linr"  time="0/1" value="0" leadInLength="0/1"  />
           <InterpolatingParam id="901" interp="linr"  time="0/1" value="0" leadInLength="0/1"  />
          </VectorParam>
         </Transformer>
         <Parameters>
          <VectorParam id="902"  name="sourceCrop">
           <InterpolatingParam id="903" interp="linr"  time="0/1" value="0" leadInLength="0/1"  />
           <InterpolatingParam id="904" interp="linr"  time="0/1" value="0" leadInLength="0/1"  />
           <InterpolatingParam id="905" interp="linr"  time="0/1" value="0" leadInLength="0/1"  />
           <InterpolatingParam id="906" interp="linr"  time="0/1" value="0" leadInLength="0/1"  />
          </VectorParam>
          <VectorParam id="907"  name="geometryCrop">
           <InterpolatingParam id="908" interp="linr"  time="-9999999/1" value="0" leadInLength="0/1"  />
           <InterpolatingParam id="909" interp="linr"  time="-9999999/1" value="0" leadInLength="0/1"  />
           <InterpolatingParam id="910" interp="linr"  time="-9999999/1" value="0" leadInLength="0/1"  />
           <InterpolatingParam id="911" interp="linr"  time="-9999999/1" value="0" leadInLength="0/1"  />
          </VectorParam>
          <InterpolatingParam id="912" interp="linr"  time="-9999999/1" value="1" leadInLength="0/1"  name="opacity"/>
         </Parameters>
         <Attributes>
          <Attribute id="913" value="" name="ident"/>
         </Attributes>
         <MetaData>
          <entry key="WinSubProjectDisplayName" val=""/>
         </MetaData>
         <ExtraData>
          <Entry key="ZoomPanBin">
           <ZoomPanBin id="914"  >
            <ZoomPanKeyframes>
             <ZoomPanKeyframe id="915" timeRangeEnd="-9999999/1" timeRangeDuration="0/1" interpolaterName="linr"  />
            </ZoomPanKeyframes>
           </ZoomPanBin>
          </Entry>
         </ExtraData>
        </IMFile>
        <Callout id="916" start="52519" duration="300" scalar="1/1" mediaStart="0/1" mediaDuration="300/1" >
         <Transformer>
          <VectorParam id="917"  name="translation">
           <InterpolatingParam id="918" interp="linr"  time="-9999999/1" value="-220.97560975673849" leadInLength="0/1"  />
           <InterpolatingParam id="919" interp="linr"  time="-9999999/1" value="2.3636204105059733e-011" leadInLength="0/1"  />
           <InterpolatingParam id="920" interp="linr"  time="-9999999/1" value="0" leadInLength="0/1"  />
          </VectorParam>
          <VectorParam id="921"  name="rotation">
           <InterpolatingParam id="922" interp="linr"  time="-9999999/1" value="0" leadInLength="0/1"  />
           <InterpolatingParam id="923" interp="linr"  time="-9999999/1" value="0" leadInLength="0/1"  />
           <InterpolatingParam id="924" interp="linr"  time="-9999999/1" value="0" leadInLength="0/1"  />
          </VectorParam>
          <VectorParam id="925"  name="shear">
           <InterpolatingParam id="926" interp="linr"  time="-9999999/1" value="0" leadInLength="0/1"  />
           <InterpolatingParam id="927" interp="linr"  time="-9999999/1" value="0" leadInLength="0/1"  />
           <InterpolatingParam id="928" interp="linr"  time="-9999999/1" value="0" leadInLength="0/1"  />
          </VectorParam>
          <VectorParam id="929"  name="scale">
           <InterpolatingParam id="930" interp="linr"  time="-9999999/1" value="2.3353658536601318" leadInLength="0/1"  />
           <InterpolatingParam id="931" interp="linr"  time="-9999999/1" value="2.5609756097553857" leadInLength="0/1"  />
           <InterpolatingParam id="932" interp="linr"  time="-9999999/1" value="1" leadInLength="0/1"  />
          </VectorParam>
          <VectorParam id="933"  name="anchor">
           <InterpolatingParam id="934" interp="linr"  time="0/1" value="0" leadInLength="0/1"  />
           <InterpolatingParam id="935" interp="linr"  time="0/1" value="0" leadInLength="0/1"  />
           <InterpolatingParam id="936" interp="linr"  time="0/1" value="0" leadInLength="0/1"  />
          </VectorParam>
         </Transformer>
         <Parameters>
          <VectorParam id="937"  name="sourceCrop">
           <InterpolatingParam id="938" interp="linr"  time="0/1" value="0" leadInLength="0/1"  />
           <InterpolatingParam id="939" interp="linr"  time="0/1" value="0" leadInLength="0/1"  />
           <InterpolatingParam id="940" interp="linr"  time="0/1" value="0" leadInLength="0/1"  />
           <InterpolatingParam id="941" interp="linr"  time="0/1" value="0" leadInLength="0/1"  />
          </VectorParam>
          <VectorParam id="942"  name="geometryCrop">
           <InterpolatingParam id="943" interp="linr"  time="-9999999/1" value="0" leadInLength="0/1"  />
           <InterpolatingParam id="944" interp="linr"  time="-9999999/1" value="0" leadInLength="0/1"  />
           <InterpolatingParam id="945" interp="linr"  time="-9999999/1" value="0" leadInLength="0/1"  />
           <InterpolatingParam id="946" interp="linr"  time="-9999999/1" value="0" leadInLength="0/1"  />
          </VectorParam>
          <InterpolatingParam id="947" interp="linr"  time="-9999999/1" value="1" leadInLength="0/1"  name="opacity"/>
         </Parameters>
         <Attributes>
          <Attribute id="948"  name="vectorNode">
           <VectorNode id="949" kind="TypeWinText"  >
            <DoubleParameters>
             <InterpolatingParam id="950" interp="linr"  time="0/1" value="5" leadInLength="0/1"  name="Style"/>
             <InterpolatingParam id="951" interp="linr"  time="0/1" value="0" leadInLength="0/1"  name="dimensionTime"/>
             <InterpolatingParam id="952" interp="linr"  time="0/1" value="270" leadInLength="0/1"  name="height"/>
             <InterpolatingParam id="953" interp="linr"  time="0/1" value="0" leadInLength="0/1"  name="textDropShadow"/>
             <InterpolatingParam id="954" interp="linr"  time="0/1" value="0" leadInLength="0/1"  name="textIgnoresOpacity"/>
             <InterpolatingParam id="955" interp="linr"  time="0/1" value="1" leadInLength="0/1"  name="textRectHeight"/>
             <InterpolatingParam id="956" interp="linr"  time="0/1" value="1" leadInLength="0/1"  name="textRectWidth"/>
             <InterpolatingParam id="957" interp="linr"  time="0/1" value="0" leadInLength="0/1"  name="textRectX"/>
             <InterpolatingParam id="958" interp="linr"  time="0/1" value="0" leadInLength="0/1"  name="textRectY"/>
             <InterpolatingParam id="959" interp="linr"  time="0/1" value="0" leadInLength="0/1"  name="textVerticalAlign"/>
             <InterpolatingParam id="960" interp="linr"  time="0/1" value="480" leadInLength="0/1"  name="width"/>
            </DoubleParameters>
            <StringParameters>
             <Parameter id="961"  name="filename">
              <Keyframes>
              <Keyframe id="962"  time="0/1" value="C:\Program Files (x86)\TechSmith\Camtasia Studio 8\Media\Studio\Callouts\trans_100x100.xml" leadInLength="0/1"  />
              </Keyframes>
             </Parameter>
             <Parameter id="963"  name="name">
              <Keyframes>
              <Keyframe id="964"  time="0/1" value="Text" leadInLength="0/1"  />
              </Keyframes>
             </Parameter>
             <Parameter id="965"  name="text">
              <Keyframes>
              <Keyframe id="966"  time="0/1" value="{\rtf1\ansi\ansicpg1252\deff0\deflang1033{\fonttbl{\f0\fswiss\fprq2\fcharset0 Arial;}}&#xD;&#xa;{\colortbl ;\red0\green0\blue0;}&#xD;&#xa;\viewkind4\uc1\pard\cf1\f0\fs144 Uncertainty and Error Propagation\par&#xD;&#xa;\fs96 Example: Odometry\par&#xD;&#xa;\par&#xD;&#xa;Nikolaus Correll\par&#xD;&#xa;\par&#xD;&#xa;\fs48 https://github.com/correll/Introduction-to-Autonomous-Robots\fs32\par&#xD;&#xa;}&#xD;&#xa;" leadInLength="0/1"  />
              </Keyframes>
             </Parameter>
             <Parameter id="967"  name="xmlContent">
              <Keyframes>
              <Keyframe id="968"  time="0/1" value="ï»¿&lt;?xml version=&quot;1.0&quot;?&gt;&#xa;&#xa;&lt;Overlay version=&quot;1.0.1&quot;&gt;&#xa;&#xa;&lt;Overlay_Filename&gt;trans_100x100.png&lt;/Overlay_Filename&gt;&#xa;&lt;Overlay_Name&gt;Text&lt;/Overlay_Name&gt;&#xa;&lt;Text_Top&gt;0&lt;/Text_Top&gt;&#xa;&lt;Text_Left&gt;0&lt;/Text_Left&gt;&#xa;&lt;Text_Bottom&gt;0&lt;/Text_Bottom&gt;&#xa;&lt;Text_Right&gt;0&lt;/Text_Right&gt;&#xa;&lt;Fill_Color&gt;0&lt;/Fill_Color&gt;&#xa;&lt;Border_Color&gt;0&lt;/Border_Color&gt;&#xa;&lt;Style&gt;5&lt;/Style&gt;&#xa;&lt;/Overlay&gt;" leadInLength="0/1"  />
              </Keyframes>
             </Parameter>
            </StringParameters>
           </VectorNode>
          </Attribute>
         </Attributes>
         <MetaData>
          <entry key="WinSubProjectDisplayName" val=""/>
         </MetaData>
         <LeftEdgeMods length="0/1" groupName="OpacityFade">
          <EdgeMod parameter="947">
           <FadeInFunc id="344"  />
          </EdgeMod>
         </LeftEdgeMods>
         <RightEdgeMods length="30/1" groupName="OpacityFade">
          <EdgeMod parameter="947">
           <FadeOutFunc id="969"  />
          </EdgeMod>
         </RightEdgeMods>
         <ExtraData>
          <Entry key="ZoomPanBin">
           <ZoomPanBin id="970"  >
            <ZoomPanKeyframes>
             <ZoomPanKeyframe id="971" timeRangeEnd="-9999999/1" timeRangeDuration="0/1" interpolaterName="linr"  />
            </ZoomPanKeyframes>
           </ZoomPanBin>
          </Entry>
         </ExtraData>
        </Callout>
       </Medias>
      </GenericTrack>
      <GenericTrack id="972"  >
       <Attributes>
        <Attribute id="973" value="" name="ident"/>
        <Attribute id="974" value="0" name="audioMuted"/>
        <Attribute id="975" value="0" name="videoHidden"/>
       </Attributes>
       <MetaData>
        <entry key="IsLocked" val="False"/>
        <entry key="WinTrackHeight" val="62"/>
       </MetaData>
       <Medias>
        <AMFile id="976" start="234" duration="660" scalar="1/1" mediaStart="0/1" mediaDuration="660/1" trackNumber="0" src="14" channelNumber="0" >
         <Parameters>
          <InterpolatingParam id="977" interp="linr"  time="0/1" value="0.80000000000000004" leadInLength="0/1"  name="volume"/>
          <Parameter id="978"  name="captions"/>
         </Parameters>
         <Attributes>
          <Attribute id="979" value="" name="ident"/>
          <Attribute id="980" value="22050" name="sampleRate"/>
          <Attribute id="981" value="16" name="bitDepth"/>
          <Attribute id="982" value="1" name="gain"/>
          <Attribute id="983" value="0" name="mixToMono"/>
         </Attributes>
         <MetaData>
          <entry key="WinSubProjectDisplayName" val=""/>
         </MetaData>
        </AMFile>
       </Medias>
      </GenericTrack>
      <GenericTrack id="984"  >
       <Attributes>
        <Attribute id="985" value="" name="ident"/>
        <Attribute id="986" value="0" name="audioMuted"/>
        <Attribute id="987" value="0" name="videoHidden"/>
       </Attributes>
       <MetaData>
        <entry key="IsLocked" val="False"/>
        <entry key="WinTrackHeight" val="62"/>
       </MetaData>
       <Medias>
       </Medias>
      </GenericTrack>
     </Tracks>
    </GenericMixer>
   <CaptionAttributes id="988"  >
    <Attribute id="989" value="1" name="captionsEnabled"/>
    <Attribute id="990" value="Arial" name="captionsFontName"/>
    <Attribute id="991" value="36" name="captionsFontSize"/>
    <Attribute id="992" value="(0,0,0,255)" name="captionsBackgroundColor"/>
    <Attribute id="993" value="(255,255,255,255)" name="captionsForegroundColor"/>
    <Attribute id="994" value="en" name="lang"/>
    <Attribute id="995" value="0" name="captionsAlignment"/>
    <Attribute id="996" value="1" name="captionsDefaultFontSize"/>
    <Attribute id="997" value="0.5" name="captionsOpacity"/>
    <Attribute id="998" value="1" name="captionsBackgroundEnabled"/>
    <Attribute id="999" value="1" name="captionsBackgroundOnlyAroundText"/>
   </CaptionAttributes>
   <Parameters>
    <VectorParam id="1000"  name="eyePosition">
     <InterpolatingParam id="1001" interp="linr"  time="0/1" value="0" leadInLength="0/1"  />
     <InterpolatingParam id="1002" interp="linr"  time="0/1" value="0" leadInLength="0/1"  />
     <InterpolatingParam id="1003" interp="linr"  time="0/1" value="3000" leadInLength="0/1"  />
    </VectorParam>
    <VectorParam id="1004"  name="eyeLookAtPosition">
     <InterpolatingParam id="1005" interp="linr"  time="0/1" value="0" leadInLength="0/1"  />
     <InterpolatingParam id="1006" interp="linr"  time="0/1" value="0" leadInLength="0/1"  />
     <InterpolatingParam id="1007" interp="linr"  time="0/1" value="0" leadInLength="0/1"  />
    </VectorParam>
    <VectorParam id="1008"  name="eyeUpVector">
     <InterpolatingParam id="1009" interp="linr"  time="0/1" value="0" leadInLength="0/1"  />
     <InterpolatingParam id="1010" interp="linr"  time="0/1" value="1" leadInLength="0/1"  />
     <InterpolatingParam id="1011" interp="linr"  time="0/1" value="0" leadInLength="0/1"  />
    </VectorParam>
    <InterpolatingParam id="1012" interp="linr"  time="0/1" value="0.356185883" leadInLength="0/1"  name="fov"/>
    <InterpolatingParam id="1013" interp="linr"  time="0/1" value="1.5" leadInLength="0/1"  name="nearClipDistance"/>
    <InterpolatingParam id="1014" interp="linr"  time="0/1" value="6000" leadInLength="0/1"  name="farClipDistance"/>
   </Parameters>
  </Timeline>
 </Project>
</GoProject>
</CSMLData>

</Project_Data>
